<svg width="20" height="20" viewBox="0 0 20 20" fill="none" xmlns="http://www.w3.org/2000/svg">
<g clip-path="url(#clip0_652_14)">
<path d="M9.70068 2.43251L8.23793 4.61722C7.91775 5.10062 8.09353 5.65307 8.68366 5.6468L11.8163 5.6468C12.4253 5.65307 12.6136 5.11945 12.2683 4.61722L10.7805 2.43251C10.5168 2.05584 9.96435 2.037 9.70068 2.43251Z" fill="#1C1C1E"/>
<path d="M9.70068 17.5001L8.23793 15.3154C7.91775 14.832 8.09353 14.2795 8.68366 14.2858L11.8163 14.2858C12.4253 14.2795 12.6136 14.8132 12.2683 15.3154L10.7805 17.5001C10.5168 17.8768 9.96435 17.8956 9.70068 17.5001Z" fill="#1C1C1E"/>
<path d="M10.2363 9.31914C9.77804 9.31914 9.39509 8.94247 9.39509 8.48418C9.39509 8.01962 9.77804 7.64295 10.2363 7.64295C10.7009 7.64295 11.0713 8.01962 11.0713 8.48418C11.0713 8.95503 10.7072 9.31914 10.2363 9.31914Z" fill="#1C1C1E"/>
<path d="M10.2363 12.4204C9.77804 12.4204 9.39509 12.0438 9.39509 11.5855C9.39509 11.1209 9.77804 10.7442 10.2363 10.7442C10.7009 10.7442 11.0713 11.1209 11.0713 11.5855C11.0713 12.05 10.7072 12.4204 10.2363 12.4204Z" fill="#1C1C1E"/>
<path d="M0.870121 13.3291C0.516459 13.3291 0.275071 13.1214 0.275071 12.7958C0.275071 12.6611 0.308753 12.5151 0.381731 12.3018L2.48686 6.34567C2.68334 5.7843 2.95841 5.5373 3.46925 5.5373C3.9801 5.5373 4.25517 5.77869 4.44603 6.34567L6.55116 12.3018C6.61291 12.487 6.6466 12.6386 6.6466 12.7789C6.6466 13.1158 6.40521 13.3291 6.04032 13.3291C5.69789 13.3291 5.49579 13.1551 5.36668 12.7228L4.83899 11.1397H2.06583L1.53815 12.7228C1.40342 13.1607 1.21256 13.3291 0.870121 13.3291ZM2.36897 10.163H4.53585L3.4861 6.92388H3.42435L2.36897 10.163Z" fill="black"/>
<path d="M14.0092 12.6105C14.0092 12.3691 14.1102 12.1895 14.6042 11.5103L17.978 6.74985V6.67687H14.6996C14.3516 6.67687 14.127 6.46355 14.127 6.13796C14.127 5.80675 14.3572 5.59905 14.7053 5.59905H18.8145C19.2243 5.59905 19.4825 5.84044 19.4825 6.22217C19.4825 6.47478 19.3702 6.67687 18.8762 7.36174L15.5585 12.1165V12.1839H19.0727C19.4151 12.1839 19.6453 12.4028 19.6453 12.7284C19.6453 13.0484 19.4095 13.2617 19.0671 13.2617H14.6996C14.2898 13.2617 14.0092 12.9923 14.0092 12.6105Z" fill="black"/>
</g>
<defs>
<clipPath id="clip0_652_14">
<rect width="20" height="20" fill="white" transform="translate(20) rotate(90)"/>
</clipPath>
</defs>
</svg>
