<svg width="20" height="20" viewBox="0 0 20 20" fill="none" xmlns="http://www.w3.org/2000/svg">
<path d="M7.99993 4.89397C7.44748 4.24107 6.21701 3.65723 4.77309 3.65723C2.84577 3.65723 1.28885 4.65541 0.874512 5.60338V15.0265C0.874512 15.6417 1.2763 15.8803 1.72203 15.8803C2.05476 15.8803 2.2431 15.7799 2.45654 15.6229C2.88344 15.2776 3.58029 14.8758 4.77309 14.8758C5.97217 14.8758 6.7883 15.2776 7.15241 15.5852C7.35331 15.7359 7.58559 15.8803 7.99993 15.8803C8.41424 15.8803 8.64024 15.7234 8.84744 15.5852C9.23664 15.2965 10.0277 14.8758 11.2267 14.8758C12.4195 14.8758 13.1289 15.2839 13.5433 15.6229C13.7567 15.7799 13.9451 15.8803 14.2778 15.8803C14.7235 15.8803 15.1253 15.6417 15.1253 15.0265V5.60338C14.711 4.65541 13.1603 3.65723 11.2267 3.65723C9.78284 3.65723 8.55864 4.24107 7.99993 4.89397ZM2.23682 6.03655C2.40632 5.62221 3.33545 4.91908 4.77309 4.91908C6.21073 4.91908 7.17125 5.62849 7.32192 6.03655V14.3171C6.67529 13.8525 5.75244 13.6014 4.77309 13.6014C3.78746 13.6014 2.87089 13.8525 2.23682 14.3359V6.03655ZM13.763 6.03655V14.3359C13.1289 13.8525 12.2124 13.6014 11.2267 13.6014C10.2474 13.6014 9.32454 13.8525 8.67794 14.3171V6.03655C8.82864 5.62849 9.78914 4.91908 11.2267 4.91908C12.6644 4.91908 13.5935 5.62221 13.763 6.03655Z" fill="#1C1C1E"/>
</svg>
