<svg width="20" height="20" viewBox="0 0 20 20" fill="none" xmlns="http://www.w3.org/2000/svg">
<path d="M5.67456 15.6292H14.3192C15.6815 15.6292 16.3909 14.926 16.3909 13.5826V5.94235C16.3909 4.59888 15.6815 3.89575 14.3192 3.89575H5.67456C4.31853 3.89575 3.60913 4.5926 3.60913 5.94235V13.5826C3.60913 14.926 4.31853 15.6292 5.67456 15.6292ZM5.66828 14.3798C5.14722 14.3798 4.85843 14.1099 4.85843 13.5574V6C4.85843 5.44754 5.14722 5.17759 5.66828 5.17759H14.3255C14.8466 5.17759 15.1354 5.44754 15.1354 6V13.5574C15.1354 14.1099 14.8466 14.3798 14.3255 14.3798H5.66828ZM8.7884 9.12524H9.1588C9.3848 9.12524 9.46014 9.05619 9.46014 8.83646V8.46606C9.46014 8.24006 9.3848 8.171 9.1588 8.171H8.7884C8.5624 8.171 8.48706 8.24006 8.48706 8.46606V8.83646C8.48706 9.05619 8.5624 9.12524 8.7884 9.12524ZM10.8413 9.12524H11.2117C11.4314 9.12524 11.5067 9.05619 11.5067 8.83646V8.46606C11.5067 8.24006 11.4314 8.171 11.2117 8.171H10.8413C10.6153 8.171 10.5399 8.24006 10.5399 8.46606V8.83646C10.5399 9.05619 10.6153 9.12524 10.8413 9.12524ZM12.8879 9.12524H13.2583C13.4843 9.12524 13.5596 9.05619 13.5596 8.83646V8.46606C13.5596 8.24006 13.4843 8.171 13.2583 8.171H12.8879C12.6681 8.171 12.5928 8.24006 12.5928 8.46606V8.83646C12.5928 9.05619 12.6681 9.12524 12.8879 9.12524ZM6.7418 11.1467H7.10592C7.33193 11.1467 7.40726 11.0777 7.40726 10.8517V10.4813C7.40726 10.2615 7.33193 10.1925 7.10592 10.1925H6.7418C6.5158 10.1925 6.44046 10.2615 6.44046 10.4813V10.8517C6.44046 11.0777 6.5158 11.1467 6.7418 11.1467ZM8.7884 11.1467H9.1588C9.3848 11.1467 9.46014 11.0777 9.46014 10.8517V10.4813C9.46014 10.2615 9.3848 10.1925 9.1588 10.1925H8.7884C8.5624 10.1925 8.48706 10.2615 8.48706 10.4813V10.8517C8.48706 11.0777 8.5624 11.1467 8.7884 11.1467ZM10.8413 11.1467H11.2117C11.4314 11.1467 11.5067 11.0777 11.5067 10.8517V10.4813C11.5067 10.2615 11.4314 10.1925 11.2117 10.1925H10.8413C10.6153 10.1925 10.5399 10.2615 10.5399 10.4813V10.8517C10.5399 11.0777 10.6153 11.1467 10.8413 11.1467ZM12.8879 11.1467H13.2583C13.4843 11.1467 13.5596 11.0777 13.5596 10.8517V10.4813C13.5596 10.2615 13.4843 10.1925 13.2583 10.1925H12.8879C12.6681 10.1925 12.5928 10.2615 12.5928 10.4813V10.8517C12.5928 11.0777 12.6681 11.1467 12.8879 11.1467ZM6.7418 13.1619H7.10592C7.33193 13.1619 7.40726 13.0929 7.40726 12.8732V12.5028C7.40726 12.2768 7.33193 12.2077 7.10592 12.2077H6.7418C6.5158 12.2077 6.44046 12.2768 6.44046 12.5028V12.8732C6.44046 13.0929 6.5158 13.1619 6.7418 13.1619ZM8.7884 13.1619H9.1588C9.3848 13.1619 9.46014 13.0929 9.46014 12.8732V12.5028C9.46014 12.2768 9.3848 12.2077 9.1588 12.2077H8.7884C8.5624 12.2077 8.48706 12.2768 8.48706 12.5028V12.8732C8.48706 13.0929 8.5624 13.1619 8.7884 13.1619ZM10.8413 13.1619H11.2117C11.4314 13.1619 11.5067 13.0929 11.5067 12.8732V12.5028C11.5067 12.2768 11.4314 12.2077 11.2117 12.2077H10.8413C10.6153 12.2077 10.5399 12.2768 10.5399 12.5028V12.8732C10.5399 13.0929 10.6153 13.1619 10.8413 13.1619Z" fill="#1C1C1E"/>
<path d="M9.1588 7.12514H8.7884C8.5624 7.12514 8.48706 7.05608 8.48706 6.83636V6.46596C8.48706 6.23996 8.5624 6.1709 8.7884 6.1709H9.1588C9.3848 6.1709 9.46014 6.23996 9.46014 6.46596V6.83636C9.46014 7.05608 9.3848 7.12514 9.1588 7.12514Z" fill="#1C1C1E"/>
<path d="M11.2117 7.12514H10.8413C10.6153 7.12514 10.5399 7.05608 10.5399 6.83636V6.46596C10.5399 6.23996 10.6153 6.1709 10.8413 6.1709H11.2117C11.4314 6.1709 11.5067 6.23996 11.5067 6.46596V6.83636C11.5067 7.05608 11.4314 7.12514 11.2117 7.12514Z" fill="#1C1C1E"/>
<path d="M13.2583 7.12514H12.8879C12.6681 7.12514 12.5928 7.05608 12.5928 6.83636V6.46596C12.5928 6.23996 12.6681 6.1709 12.8879 6.1709H13.2583C13.4843 6.1709 13.5596 6.23996 13.5596 6.46596V6.83636C13.5596 7.05608 13.4843 7.12514 13.2583 7.12514Z" fill="#1C1C1E"/>
<path d="M7.10589 9.13417H6.74177C6.51576 9.13417 6.44043 9.06512 6.44043 8.83911V8.46872C6.44043 8.24899 6.51576 8.17993 6.74177 8.17993H7.10589C7.33189 8.17993 7.40723 8.24899 7.40723 8.46872V8.83911C7.40723 9.06512 7.33189 9.13417 7.10589 9.13417Z" fill="#1C1C1E"/>
</svg>
