<svg width="20" height="20" viewBox="0 0 20 20" fill="none" xmlns="http://www.w3.org/2000/svg">
<path d="M1.13196 15.1834C1.13196 15.5099 1.34541 15.7233 1.67186 15.7233H14.2465C14.5855 15.7233 14.868 15.4596 14.868 15.1081C14.868 14.7565 14.5855 14.4928 14.2465 14.4928H2.53821C2.40637 14.4928 2.36243 14.4489 2.36243 14.3171V10.9019L5.02426 9.35749C5.23771 9.55839 5.52021 9.68394 5.84038 9.68394C6.11033 9.68394 6.36773 9.58978 6.56862 9.43283L7.74887 10.4373C7.70492 10.5629 7.67981 10.701 7.67981 10.8391C7.67981 11.5046 8.2134 12.0382 8.8726 12.0382C9.5318 12.0382 10.0717 11.5046 10.0717 10.8391C10.0717 10.7889 10.0654 10.7324 10.0591 10.6822L12.9344 8.96199C13.1227 9.09382 13.355 9.16916 13.5999 9.16916C14.259 9.16916 14.7989 8.62926 14.7989 7.97008C14.7989 7.3109 14.259 6.771 13.5999 6.771C12.9407 6.771 12.4008 7.3109 12.4008 7.97008C12.4008 8.05169 12.4133 8.1333 12.4259 8.20864L9.6071 9.89739C9.4062 9.74045 9.1488 9.64628 8.8726 9.64628C8.678 9.64628 8.4897 9.69022 8.3202 9.77811L7.02063 8.6732C7.02691 8.61042 7.03319 8.54764 7.03319 8.48487C7.03319 7.82569 6.49956 7.28579 5.84038 7.28579C5.17493 7.28579 4.6413 7.82569 4.6413 8.48487C4.6413 8.5037 4.6413 8.52253 4.6413 8.54137L2.36243 9.85973V4.44817C2.36243 4.10289 2.09875 3.82666 1.74719 3.82666C1.39563 3.82666 1.13196 4.10289 1.13196 4.44817V15.1834Z" fill="#1C1C1E"/>
</svg>
