<svg width="20" height="20" viewBox="0 0 20 20" fill="none" xmlns="http://www.w3.org/2000/svg">
<path d="M2.54659 16.3196H6.11244C5.73577 15.9744 5.4407 15.5475 5.26492 15.0703H2.65959C2.05691 15.0703 1.75558 14.7627 1.75558 14.1852V4.86872C1.75558 4.29744 2.05691 3.97098 2.65959 3.97098H9.13213C9.71593 3.97098 10.0361 4.29116 10.0361 4.86872V10.2929C10.5132 10.4686 10.9401 10.7637 11.2854 11.1404V4.78711C11.2854 3.42481 10.5886 2.72168 9.23883 2.72168H2.54659C1.20312 2.72168 0.5 3.43108 0.5 4.78711V14.2542C0.5 15.6165 1.20312 16.3196 2.54659 16.3196ZM3.60756 6.52609H8.19043C8.41643 6.52609 8.58593 6.35031 8.58593 6.1243C8.58593 5.90458 8.41643 5.7288 8.19043 5.7288H3.60756C3.37527 5.7288 3.20577 5.90458 3.20577 6.1243C3.20577 6.35031 3.37527 6.52609 3.60756 6.52609ZM3.60756 8.66685H8.19043C8.41643 8.66685 8.58593 8.49107 8.58593 8.26507C8.58593 8.04534 8.41643 7.86956 8.19043 7.86956H3.60756C3.37527 7.86956 3.20577 8.04534 3.20577 8.26507C3.20577 8.49107 3.37527 8.66685 3.60756 8.66685ZM8.52943 16.3196C9.06303 16.3196 9.55903 16.169 9.97963 15.9116L11.3168 17.2488C11.4675 17.3994 11.6181 17.4559 11.8002 17.4559C12.1204 17.4559 12.3652 17.2048 12.3652 16.8595C12.3652 16.7089 12.2961 16.5519 12.1769 16.4326L10.8334 15.0829C11.1222 14.6497 11.2917 14.1224 11.2917 13.5636C11.2917 12.0381 10.0549 10.8014 8.52943 10.8014C7.01013 10.8014 5.76715 12.0444 5.76715 13.5636C5.76715 15.0829 7.01013 16.3196 8.52943 16.3196ZM8.52943 15.3654C7.53123 15.3654 6.72143 14.5555 6.72143 13.5636C6.72143 12.578 7.53123 11.7619 8.52943 11.7619C9.51503 11.7619 10.3249 12.578 10.3249 13.5636C10.3249 14.5555 9.52133 15.3654 8.52943 15.3654Z" fill="#1C1C1E"/>
</svg>
