<svg width="20" height="20" viewBox="0 0 20 20" fill="none" xmlns="http://www.w3.org/2000/svg">
<path d="M0.5 15.673C0.5 17.0353 1.20312 17.7384 2.54659 17.7384H8.42266C9.76616 17.7384 10.4693 17.029 10.4693 15.673V14.5116H11.5366C12.8801 14.5116 13.5832 13.8022 13.5832 12.4462V7.48033C13.5832 6.65165 13.4074 6.1243 12.9114 5.61579L9.78506 2.42662C9.30786 1.94322 8.74286 1.75488 8.02096 1.75488H5.66043C4.31696 1.75488 3.61383 2.46429 3.61383 3.82659V4.98173H2.54659C1.20312 4.98173 0.5 5.69741 0.5 7.05343V15.673ZM9.83526 9.06864L6.43261 5.61579C5.95549 5.1324 5.54743 5.00056 4.86314 4.988V3.90193C4.86314 3.33064 5.16448 3.01047 5.76715 3.01047H8.38506V5.99247C8.38506 6.77093 8.79936 7.17899 9.57156 7.17899H12.3276V12.3646C12.3276 12.9421 12.0263 13.2623 11.4236 13.2623H10.4693V10.8516C10.4693 10.0041 10.3626 9.60854 9.83526 9.06864ZM9.42086 5.83552V3.51898L12.0012 6.14314H9.72856C9.50876 6.14314 9.42086 6.05525 9.42086 5.83552ZM1.7493 15.5914V7.13505C1.7493 6.55748 2.05064 6.23731 2.65959 6.23731H4.57435V9.65249C4.57435 10.5628 5.02008 11.0023 5.9241 11.0023H9.21996V15.5914C9.21996 16.169 8.91866 16.4891 8.30966 16.4891H2.65332C2.05064 16.4891 1.7493 16.169 1.7493 15.5914ZM6.04338 9.9036C5.78599 9.9036 5.67299 9.79688 5.67299 9.53321V6.47587L9.05046 9.9036H6.04338Z" fill="#1C1C1E"/>
</svg>
