<svg width="20" height="20" viewBox="0 0 20 20" fill="none" xmlns="http://www.w3.org/2000/svg">
<path d="M10.0071 15.2019C15.1613 15.2019 18.6267 11.0459 18.6267 9.75893C18.6267 8.47196 15.1487 4.32227 10.0071 4.32227C4.92829 4.32227 1.375 8.47196 1.375 9.75893C1.375 11.0459 4.91574 15.2019 10.0071 15.2019ZM10.0071 13.9714C6.00181 13.9714 2.83147 10.6378 2.83147 9.75893C2.83147 9.02441 6.00181 5.55273 10.0071 5.55273C13.9936 5.55273 17.1702 9.02441 17.1702 9.75893C17.1702 10.6378 13.9936 13.9714 10.0071 13.9714ZM10.0071 13.1302C11.8779 13.1302 13.3783 11.5921 13.3783 9.75893C13.3783 7.88184 11.8779 6.39397 10.0071 6.39397C8.12374 6.39397 6.61705 7.88184 6.62333 9.75893C6.63588 11.5921 8.12374 13.1302 10.0071 13.1302ZM10.0008 10.845C9.39816 10.845 8.90848 10.3553 8.90848 9.75893C8.90848 9.16253 9.39816 8.67285 10.0008 8.67285C10.6035 8.67285 11.0932 9.16253 11.0932 9.75893C11.0932 10.3553 10.6035 10.845 10.0008 10.845Z" fill="#8A8B8D"/>
</svg>
