<svg width="27" height="27" viewBox="0 0 27 27" fill="none" xmlns="http://www.w3.org/2000/svg">
<g clip-path="url(#clip0_635_69)">
<path d="M27 13.5C27 6.04416 20.9558 0 13.5 0C6.04416 0 0 6.04416 0 13.5C0 20.9558 6.04416 27 13.5 27C20.9558 27 27 20.9558 27 13.5Z" fill="white"/>
<path d="M14.8174 6.39453C15.134 6.39453 15.4347 6.43256 15.7178 6.50977H15.7168C15.9885 6.57209 16.239 6.65853 16.4668 6.77148C16.4679 6.77198 16.4696 6.77294 16.4707 6.77344C16.4722 6.77419 16.4741 6.77463 16.4756 6.77539H16.4746C16.6193 6.84156 16.7387 6.95167 16.8369 7.0918L16.9082 7.2041C16.9694 7.31986 17 7.44803 17 7.58496C16.9999 7.81067 16.9089 8.01313 16.749 8.1875L16.748 8.18652C16.5899 8.3723 16.3809 8.46862 16.1348 8.46875C15.9739 8.46875 15.8127 8.44801 15.6533 8.4082C15.5268 8.37661 15.3864 8.36037 15.2324 8.36035C14.82 8.36039 14.5057 8.4601 14.2725 8.64258L14.2715 8.64355C14.0854 8.78745 13.9512 9.12183 13.9512 9.74902V10.542H16.0078C16.2594 10.542 16.4803 10.6259 16.6533 10.7988C16.8264 10.9719 16.9101 11.1928 16.9102 11.4443C16.9102 11.6871 16.8241 11.9029 16.6592 12.083L16.6533 12.0898C16.4802 12.2629 16.2594 12.3467 16.0078 12.3467H13.9512V19.2197C13.951 19.4984 13.8537 19.7419 13.6592 19.9365C13.4622 20.1334 13.2108 20.2285 12.9229 20.2285C12.6441 20.2284 12.4008 20.1312 12.2061 19.9365C12.0114 19.7418 11.9142 19.4985 11.9141 19.2197V12.3467H11.0479C10.8353 12.3467 10.6429 12.2813 10.4775 12.1543L10.4023 12.0898L10.3965 12.083C10.2315 11.9029 10.1455 11.6872 10.1455 11.4443C10.1456 11.1928 10.2293 10.9719 10.4023 10.7988L10.4092 10.793C10.5892 10.6282 10.8052 10.542 11.0479 10.542H11.9141V9.69434C11.9141 8.91638 12.049 8.2708 12.3369 7.77344L12.3389 7.77051C12.6327 7.28513 13.0095 6.93018 13.4717 6.71875C13.9152 6.504 14.3647 6.39454 14.8174 6.39453ZM13.0596 20.0205C13.0681 20.0194 13.0765 20.018 13.085 20.0166C13.0765 20.018 13.0681 20.0193 13.0596 20.0205ZM13.2012 19.9893C13.2107 19.9863 13.2201 19.9828 13.2295 19.9795C13.2201 19.9829 13.2107 19.9862 13.2012 19.9893ZM13.3369 19.9316C13.3426 19.9286 13.3479 19.9251 13.3535 19.9219C13.3479 19.9251 13.3426 19.9286 13.3369 19.9316ZM13.458 19.8516H13.459H13.458ZM12.249 19.6787C12.2534 19.685 12.2581 19.691 12.2627 19.6973C12.2581 19.691 12.2534 19.685 12.249 19.6787ZM13.6025 19.6973C13.607 19.6912 13.611 19.6849 13.6152 19.6787C13.611 19.6849 13.607 19.6912 13.6025 19.6973ZM12.1807 19.5586C12.1839 19.5658 12.187 19.573 12.1904 19.5801C12.187 19.573 12.1839 19.5658 12.1807 19.5586ZM13.6748 19.5752C13.677 19.5707 13.6786 19.566 13.6807 19.5615C13.6786 19.566 13.6769 19.5707 13.6748 19.5752ZM10.7881 12.1016C10.8267 12.116 10.8661 12.1282 10.9072 12.1357L11.0479 12.1484C10.9557 12.1484 10.8692 12.1319 10.7881 12.1016ZM10.6748 12.0459C10.7018 12.0619 10.7294 12.0757 10.7578 12.0879C10.7294 12.0757 10.7018 12.062 10.6748 12.0459ZM16.5127 11.9492C16.4797 11.9822 16.4447 12.0114 16.4072 12.0361L16.4062 12.0371C16.444 12.0123 16.4795 11.9833 16.5127 11.9502C16.5424 11.9177 16.5678 11.8826 16.5908 11.8477C16.5678 11.8825 16.5424 11.9168 16.5127 11.9492ZM10.4551 11.8369C10.4799 11.8761 10.5089 11.914 10.542 11.9502C10.5742 11.9798 10.6089 12.0044 10.6436 12.0273C10.6089 12.0044 10.5743 11.9788 10.542 11.9492C10.476 11.8771 10.4266 11.7989 10.3936 11.7148L10.4551 11.8369ZM16.6094 11.8164C16.6254 11.7894 16.6392 11.7619 16.6514 11.7334C16.6392 11.7618 16.6254 11.7894 16.6094 11.8164ZM16.665 11.7031C16.6793 11.6648 16.6917 11.6257 16.6992 11.585C16.6917 11.6257 16.6793 11.6648 16.665 11.7031ZM16.7119 11.4443C16.7119 11.3975 16.7072 11.3527 16.7002 11.3096C16.7072 11.3526 16.7119 11.3975 16.7119 11.4443ZM16.6934 11.2773C16.6867 11.2452 16.6777 11.2145 16.667 11.1846C16.6777 11.2145 16.6867 11.2452 16.6934 11.2773ZM10.6436 10.8604C10.6087 10.8834 10.5744 10.9097 10.542 10.9395C10.509 10.9725 10.4808 11.0083 10.4561 11.0459C10.4808 11.0084 10.509 10.9725 10.542 10.9395C10.5745 10.9097 10.6087 10.8834 10.6436 10.8604ZM16.5996 11.0459C16.6224 11.0804 16.6414 11.1169 16.6572 11.1553C16.6415 11.1171 16.6232 11.0803 16.6006 11.0459H16.5996ZM10.7617 10.7979C10.7313 10.8107 10.7017 10.8256 10.6729 10.8428C10.7017 10.8256 10.7313 10.8107 10.7617 10.7979ZM10.9072 10.7539C10.8658 10.7615 10.826 10.7735 10.7871 10.7881C10.8685 10.7575 10.9553 10.7412 11.0479 10.7412L10.9072 10.7539ZM12.1367 9.16113C12.1314 9.21709 12.1276 9.27407 12.124 9.33203C12.1276 9.27406 12.1314 9.21709 12.1367 9.16113ZM12.165 8.92578C12.1561 8.98632 12.1483 9.04816 12.1416 9.11133C12.1483 9.04817 12.156 8.98632 12.165 8.92578ZM12.2031 8.71289C12.1922 8.76612 12.1827 8.82049 12.1738 8.87598C12.1828 8.8205 12.1922 8.76611 12.2031 8.71289ZM12.2578 8.48633C12.2449 8.5329 12.2328 8.58037 12.2217 8.62891C12.2329 8.58038 12.2449 8.53289 12.2578 8.48633ZM12.333 8.24707C12.3829 8.11273 12.4421 7.98827 12.5088 7.87305C12.5394 7.82245 12.5701 7.77294 12.6025 7.72559C12.5702 7.77289 12.5394 7.8225 12.5088 7.87305L12.415 8.05078C12.3856 8.1137 12.3581 8.17928 12.333 8.24707ZM16.2715 8.25586C16.2281 8.26485 16.1826 8.2695 16.1348 8.26953C16.1826 8.2695 16.2281 8.26482 16.2715 8.25586ZM16.6221 8.0293C16.6423 8.00576 16.6609 7.98216 16.6777 7.95801C16.6609 7.98218 16.6423 8.00576 16.6221 8.0293ZM16.7061 7.91309C16.7182 7.89282 16.7285 7.87226 16.7383 7.85156C16.7285 7.87227 16.7182 7.89281 16.7061 7.91309ZM16.8018 7.58398C16.8018 7.66428 16.785 7.74158 16.7549 7.81641C16.7692 7.78087 16.7816 7.7448 16.7891 7.70801L16.8018 7.58496V7.58398ZM12.708 7.58301C12.705 7.58685 12.7022 7.59085 12.6992 7.59473C12.7022 7.59085 12.705 7.58686 12.708 7.58301ZM12.8311 7.43652C12.8105 7.45933 12.7905 7.48298 12.7705 7.50684C12.7905 7.48298 12.8105 7.45933 12.8311 7.43652ZM12.9492 7.31543C12.9242 7.33956 12.8993 7.36412 12.875 7.38965C12.8993 7.36411 12.9242 7.33957 12.9492 7.31543ZM16.6758 7.20605V7.20508V7.20605ZM13.0723 7.20508C13.0493 7.22422 13.0263 7.24346 13.0039 7.26367C13.0263 7.24346 13.0493 7.22423 13.0723 7.20508ZM13.2207 7.0918C13.1927 7.1114 13.164 7.13033 13.1367 7.15137C13.164 7.13032 13.1927 7.11141 13.2207 7.0918ZM13.2705 7.05664C13.2673 7.05872 13.2639 7.0604 13.2607 7.0625C13.3062 7.03224 13.3529 7.00412 13.4004 6.97754L13.2705 7.05664ZM13.7695 6.80469C13.698 6.83353 13.6262 6.86468 13.5547 6.89941L13.7129 6.82715C13.7317 6.81917 13.7508 6.81226 13.7695 6.80469ZM16.1484 6.84863C16.137 6.84416 16.1258 6.83931 16.1143 6.83496C16.1258 6.8393 16.137 6.84418 16.1484 6.84863ZM15.5938 6.68359C15.5592 6.6751 15.5245 6.66647 15.4893 6.65918C15.5245 6.66647 15.5591 6.6751 15.5938 6.68359ZM15.417 6.64551C15.3802 6.63881 15.3431 6.63236 15.3057 6.62695C15.3431 6.63235 15.3802 6.63882 15.417 6.64551ZM15.2188 6.61523C15.191 6.612 15.1629 6.60996 15.1348 6.60742C15.1629 6.60996 15.191 6.612 15.2188 6.61523ZM12.333 8.24707C12.3114 8.30534 12.2928 8.36587 12.2744 8.42773C12.2929 8.36589 12.3114 8.30532 12.333 8.24707Z" fill="#0346B8"/>
</g>
<defs>
<clipPath id="clip0_635_69">
<rect width="27" height="27" fill="white"/>
</clipPath>
</defs>
</svg>
