<svg width="27" height="27" viewBox="0 0 27 27" fill="none" xmlns="http://www.w3.org/2000/svg">
<rect width="27" height="27" rx="13.5" fill="white"/>
<path d="M10.3938 6.05245C9.59584 6.0901 9.05089 6.21746 8.57448 6.40466C8.08143 6.5968 7.66352 6.85465 7.24772 7.27196C6.83191 7.68926 6.57586 8.10746 6.38507 8.60126C6.20041 9.07872 6.07531 9.62412 6.04005 10.4226C6.00481 11.221 5.99702 11.4777 6.00091 13.5143C6.00481 15.5511 6.0138 15.8063 6.05251 16.6065C6.09061 17.4043 6.21751 17.9492 6.40472 18.4258C6.59717 18.9188 6.85472 19.3365 7.27217 19.7525C7.68962 20.1684 8.10753 20.4238 8.60253 20.6149C9.07954 20.7992 9.62509 20.925 10.4234 20.9599C11.2217 20.9949 11.4787 21.003 13.5148 20.9991C15.5509 20.9952 15.8072 20.9862 16.6072 20.9483C17.4072 20.9103 17.9491 20.7825 18.4258 20.5962C18.9189 20.4033 19.337 20.1462 19.7526 19.7287C20.1683 19.311 20.4241 18.8925 20.6148 18.3984C20.7995 17.9214 20.9252 17.3759 20.9598 16.5781C20.9947 15.7776 21.003 15.522 20.9991 13.4856C20.9952 11.4492 20.9861 11.1939 20.9481 10.3941C20.9102 9.59427 20.7831 9.05112 20.5961 8.57426C20.4033 8.08121 20.146 7.66376 19.7287 7.2475C19.3115 6.83126 18.8926 6.57551 18.3987 6.38531C17.9213 6.20066 17.3762 6.0748 16.5779 6.04031C15.7794 6.0058 15.5226 5.99696 13.4857 6.00085C11.4488 6.00475 11.1938 6.01345 10.3938 6.05245ZM10.4815 19.6107C9.75019 19.5789 9.35314 19.4574 9.08853 19.3557C8.73813 19.2206 8.48853 19.0574 8.22483 18.7964C7.96112 18.5353 7.79913 18.2847 7.66232 17.935C7.55957 17.6704 7.43582 17.2739 7.40162 16.5426C7.36442 15.7522 7.35662 15.5149 7.35227 13.5126C7.34792 11.5102 7.35557 11.2732 7.39022 10.4826C7.42141 9.75192 7.54367 9.35441 7.64522 9.08997C7.78023 8.73911 7.94283 8.48996 8.20458 8.22641C8.46633 7.96287 8.71608 7.80056 9.06604 7.66376C9.33034 7.56056 9.72694 7.43786 10.4579 7.40305C11.2489 7.36556 11.4859 7.35806 13.4879 7.35371C15.49 7.34936 15.7276 7.35686 16.5188 7.39165C17.2495 7.42345 17.6472 7.54451 17.9114 7.64667C18.2619 7.78166 18.5113 7.94381 18.7748 8.20601C19.0385 8.46822 19.2008 8.71706 19.3377 9.06777C19.4411 9.33131 19.5638 9.72776 19.5982 10.4592C19.6359 11.2501 19.6444 11.4873 19.6481 13.4892C19.6516 15.4911 19.6445 15.7288 19.61 16.5192C19.5779 17.2505 19.4568 17.6476 19.355 17.9125C19.22 18.2628 19.0572 18.5126 18.7952 18.776C18.5334 19.0393 18.284 19.2017 17.9338 19.3385C17.6698 19.4415 17.2727 19.5645 16.5425 19.5993C15.7514 19.6364 15.5144 19.6442 13.5116 19.6486C11.5088 19.653 11.2724 19.6449 10.4815 19.6107ZM16.5957 9.49152C16.596 9.66954 16.649 9.84346 16.7482 9.99131C16.8473 10.1391 16.9881 10.2543 17.1528 10.3221C17.3172 10.3899 17.4983 10.4075 17.6728 10.3724C17.8473 10.3374 18.0076 10.2513 18.1332 10.1253C18.2589 9.99914 18.3443 9.8386 18.3787 9.66394C18.4132 9.48928 18.3949 9.30834 18.3265 9.14401C18.258 8.97966 18.1424 8.83933 17.9943 8.74071C17.8461 8.6421 17.6718 8.58966 17.4939 8.59001C17.2552 8.59049 17.0265 8.68573 16.8581 8.85478C16.6896 9.02384 16.5953 9.25287 16.5957 9.49152ZM9.64909 13.5075C9.65329 15.6345 11.3807 17.3549 13.5073 17.3508C15.6338 17.3467 17.3553 15.6195 17.3514 13.4925C17.3473 11.3655 15.6195 9.64466 13.4926 9.64887C11.3657 9.65306 9.64504 11.3808 9.64909 13.5075ZM11 13.5048C10.999 13.0103 11.1447 12.5267 11.4186 12.115C11.6925 11.7033 12.0823 11.3821 12.5388 11.192C12.9952 11.0019 13.4978 10.9514 13.983 11.0468C14.4682 11.1424 14.914 11.3796 15.2643 11.7285C15.6147 12.0775 15.8537 12.5225 15.9511 13.0072C16.0486 13.492 16 13.9948 15.8117 14.452C15.6235 14.9092 15.3037 15.3003 14.8932 15.5758C14.4826 15.8514 13.9995 15.9989 13.505 15.9999C13.1767 16.0006 12.8514 15.9365 12.5479 15.8116C12.2443 15.6865 11.9683 15.5029 11.7357 15.2713C11.5031 15.0395 11.3183 14.7642 11.1921 14.4612C11.0659 14.158 11.0006 13.8331 11 13.5048Z" fill="#0346B8"/>
</svg>
