<svg width="27" height="27" viewBox="0 0 27 27" fill="none" xmlns="http://www.w3.org/2000/svg">
<g clip-path="url(#clip0_635_65)">
<path d="M27 13.5C27 6.04416 20.9558 0 13.5 0C6.04416 0 0 6.04416 0 13.5C0 20.9558 6.04416 27 13.5 27C20.9558 27 27 20.9558 27 13.5Z" fill="white"/>
<path d="M12.8417 18.9774C12.6277 18.9774 12.4476 18.9042 12.3012 18.7578C12.1548 18.6114 12.0816 18.4313 12.0816 18.2173V10.9714C12.0816 10.7462 12.1548 10.5604 12.3012 10.414C12.4476 10.2676 12.6277 10.1944 12.8417 10.1944C13.0556 10.1944 13.2358 10.2676 13.3822 10.414C13.5398 10.5604 13.6186 10.7462 13.6186 10.9714V11.6639C13.9789 11.2698 14.4012 10.9151 14.8854 10.5998C15.3808 10.2733 16.0058 10.11 16.7602 10.11C17.402 10.11 17.9482 10.262 18.3986 10.566C18.849 10.8588 19.1924 11.2585 19.4289 11.7652C19.6653 12.2607 19.7836 12.8124 19.7836 13.4205V18.2173C19.7836 18.4313 19.7048 18.6114 19.5471 18.7578C19.4007 18.9042 19.2206 18.9774 19.0066 18.9774C18.7927 18.9774 18.6125 18.9042 18.4661 18.7578C18.3198 18.6114 18.2466 18.4313 18.2466 18.2173V13.5894C18.2466 12.9476 18.1002 12.4465 17.8074 12.0862C17.5259 11.7146 17.053 11.5288 16.3886 11.5288C15.7806 11.5288 15.2514 11.692 14.8009 12.0186C14.3505 12.3451 13.9564 12.7224 13.6186 13.1502V18.2173C13.6186 18.4313 13.5398 18.6114 13.3822 18.7578C13.2358 18.9042 13.0556 18.9774 12.8417 18.9774Z" fill="#0346B8"/>
<path d="M8.60182 8.52231C8.36536 8.52231 8.16268 8.43785 7.99377 8.26895C7.82487 8.10005 7.74042 7.89736 7.74042 7.6609V7.59334C7.74042 7.35687 7.82487 7.15419 7.99377 6.98529C8.16268 6.81639 8.36536 6.73193 8.60182 6.73193H8.70316C8.93963 6.73193 9.14231 6.81639 9.31122 6.98529C9.48012 7.15419 9.56457 7.35687 9.56457 7.59334V7.6609C9.56457 7.89736 9.48012 8.10005 9.31122 8.26895C9.14231 8.43785 8.93963 8.52231 8.70316 8.52231H8.60182ZM8.6356 18.9774C8.42166 18.9774 8.2415 18.9042 8.09511 18.7578C7.94873 18.6114 7.87554 18.4313 7.87554 18.2173V10.9714C7.87554 10.7462 7.94873 10.5604 8.09511 10.414C8.2415 10.2676 8.42166 10.1944 8.6356 10.1944C8.86081 10.1944 9.0466 10.2676 9.19298 10.414C9.33937 10.5604 9.41256 10.7462 9.41256 10.9714V18.2173C9.41256 18.4313 9.33937 18.6114 9.19298 18.7578C9.0466 18.9042 8.86081 18.9774 8.6356 18.9774Z" fill="#0346B8"/>
<path d="M13.619 10.9713C13.619 10.8026 13.5743 10.656 13.4858 10.5315L13.3821 10.4141C13.2725 10.3044 13.1438 10.2354 12.9962 10.2079L12.8418 10.1942C12.628 10.1942 12.4479 10.2678 12.3015 10.4141L12.2053 10.5315C12.1231 10.656 12.0816 10.8025 12.0816 10.9713V18.2173L12.0954 18.3716C12.1228 18.5193 12.1918 18.6478 12.3015 18.7576C12.4113 18.8673 12.5397 18.9363 12.6875 18.9637L12.8418 18.9775C13.0557 18.9775 13.2358 18.9039 13.3821 18.7576C13.5003 18.6478 13.5746 18.5193 13.6042 18.3716L13.619 18.2173V13.1505C13.8723 12.8297 14.1567 12.5368 14.4733 12.2729L14.8011 12.0181C15.2513 11.6918 15.7804 11.5286 16.3882 11.5286C17.0523 11.5286 17.5256 11.7144 17.8071 12.0858C18.0999 12.4461 18.2469 12.9475 18.2469 13.5893V18.2173L18.2607 18.3716C18.2882 18.5192 18.3563 18.6479 18.4658 18.7576C18.5757 18.8674 18.7049 18.9363 18.8528 18.9637L19.0061 18.9775C19.2201 18.9775 19.4011 18.9039 19.5475 18.7576C19.7049 18.6112 19.7833 18.4311 19.7833 18.2173V13.4201C19.7832 12.8881 19.6926 12.3994 19.5115 11.9536L19.429 11.7654C19.2221 11.3219 18.9329 10.9602 18.562 10.6806L18.3981 10.5664C18.004 10.3004 17.5369 10.1502 16.9961 10.117L16.7603 10.1096C16.0059 10.1096 15.3811 10.2737 14.8857 10.6002L14.5336 10.8434C14.1938 11.0946 13.8892 11.3684 13.619 11.6639V10.9713ZM13.8347 11.1437C14.0137 10.9783 14.2032 10.8196 14.4056 10.67L14.7673 10.4184C15.3064 10.0634 15.9755 9.89392 16.7603 9.89392C17.4359 9.89394 18.0249 10.0537 18.5166 10.3845L18.6931 10.5082C19.0925 10.8095 19.4024 11.1989 19.6236 11.6724H19.6247C19.8763 12.1997 20 12.7836 20 13.4201V18.2173C20 18.4893 19.8965 18.7235 19.6987 18.9098L19.6997 18.9109C19.5113 19.0992 19.2752 19.1942 19.0061 19.1942C18.7371 19.1941 18.5009 19.0992 18.3125 18.9109C18.1242 18.7224 18.0302 18.4864 18.0302 18.2173V13.5893C18.0302 12.9784 17.8903 12.5314 17.639 12.2222L17.6347 12.2169C17.4096 11.9197 17.0151 11.7453 16.3882 11.7453C15.8215 11.7454 15.3378 11.8965 14.928 12.1936C14.5131 12.4944 14.1499 12.8408 13.8347 13.2298V18.2173C13.8347 18.4891 13.732 18.7236 13.5344 18.9098L13.5355 18.9109C13.347 19.0993 13.111 19.1942 12.8418 19.1942C12.5727 19.1942 12.3367 19.0993 12.1482 18.9109C11.9597 18.7224 11.8649 18.4865 11.8649 18.2173V10.9713C11.8649 10.6943 11.9575 10.4516 12.1482 10.2608C12.3367 10.0724 12.5727 9.97745 12.8418 9.97745C13.111 9.97749 13.347 10.0724 13.5355 10.2608H13.5344C13.7349 10.4496 13.8347 10.6916 13.8347 10.9713V11.1437Z" fill="#0346B8"/>
<path d="M9.4129 10.9714C9.4129 10.8026 9.37139 10.656 9.28919 10.5315L9.19297 10.4141C9.08328 10.3045 8.95148 10.2355 8.79753 10.208L8.63575 10.1942C8.42186 10.1942 8.24182 10.2678 8.09546 10.4141L7.99924 10.5315C7.91696 10.656 7.87553 10.8025 7.87553 10.9714V18.2173L7.88928 18.3717C7.91675 18.5193 7.98572 18.6478 8.09546 18.7576C8.20522 18.8673 8.33365 18.9363 8.48138 18.9638L8.63575 18.9775C8.80454 18.9775 8.9511 18.9361 9.07561 18.8538L9.19297 18.7576C9.30265 18.6479 9.3717 18.5193 9.39915 18.3717L9.4129 18.2173V10.9714ZM7.52344 7.66084V7.59317C7.52347 7.29868 7.63162 7.04091 7.84064 6.83189C8.04966 6.62293 8.30744 6.51575 8.60192 6.51575V6.73144L8.51522 6.73567C8.31554 6.75404 8.14184 6.83737 7.99395 6.9852L7.88293 7.11843C7.78799 7.25772 7.74022 7.41592 7.74019 7.59317V7.66084C7.74019 7.89731 7.82505 8.09991 7.99395 8.26881C8.14186 8.41669 8.31551 8.49997 8.51522 8.51834L8.60192 8.52257H8.70342L8.79013 8.51834C8.93266 8.50516 9.06203 8.45901 9.17817 8.37983L9.31139 8.26881C9.48019 8.09994 9.5641 7.89723 9.5641 7.66084V7.59317C9.56407 7.416 9.51726 7.25767 9.42241 7.11843L9.31139 6.9852C9.16357 6.83739 8.98969 6.75413 8.79013 6.73567L8.70342 6.73144V6.51575C8.99785 6.51582 9.25573 6.62291 9.46471 6.83189C9.67367 7.04089 9.78082 7.29872 9.78085 7.59317V7.66084C9.78085 7.95531 9.67365 8.2131 9.46471 8.42212C9.25573 8.6311 8.99785 8.73925 8.70342 8.73932H8.60192C8.3074 8.73932 8.04968 8.63114 7.84064 8.42212C7.63159 8.21307 7.52344 7.95539 7.52344 7.66084ZM8.70342 6.51575V6.73144H8.60192V6.51575H8.70342ZM9.62859 18.2173C9.62859 18.4865 9.53469 18.7224 9.34628 18.9109C9.15556 19.1016 8.91275 19.1942 8.63575 19.1943C8.36657 19.1943 8.13062 19.0993 7.94214 18.9109C7.75366 18.7224 7.65878 18.4865 7.65878 18.2173V10.9714C7.65878 10.6943 7.75138 10.4516 7.94214 10.2608C8.13061 10.0724 8.36658 9.97746 8.63575 9.97746C8.91275 9.97751 9.15556 10.0701 9.34628 10.2608C9.53698 10.4516 9.62859 10.6943 9.62859 10.9714V18.2173Z" fill="#0346B8"/>
</g>
<defs>
<clipPath id="clip0_635_65">
<rect width="27" height="27" fill="white"/>
</clipPath>
</defs>
</svg>
