<svg width="27" height="27" viewBox="0 0 27 27" fill="none" xmlns="http://www.w3.org/2000/svg">
<rect width="27" height="27" rx="13.5" fill="white"/>
<mask id="mask0_329_7653" style="mask-type:luminance" maskUnits="userSpaceOnUse" x="7" y="7" width="14" height="14">
<path d="M20.4982 7H7V20.4883H20.4982V7Z" fill="white"/>
</mask>
<g mask="url(#mask0_329_7653)">
<path d="M14.5914 20.4763C13.6322 20.4763 12.714 20.4763 11.7705 20.4763C11.7626 20.3801 11.7489 20.2918 11.7489 20.2036C11.747 18.9677 11.7489 17.7319 11.7489 16.496C11.7489 14.9129 11.7489 13.3319 11.7489 11.7488C11.7489 11.4526 11.7489 11.4506 12.0392 11.4506C12.7592 11.4506 13.4772 11.4506 14.1971 11.4506C14.2814 11.4506 14.3639 11.4624 14.4698 11.4703C14.4854 11.8587 14.4717 12.2373 14.4795 12.6414C14.511 12.6021 14.5305 12.5845 14.5463 12.5609C15.021 11.8332 15.7076 11.4251 16.551 11.2819C17.2239 11.1682 17.8949 11.225 18.5441 11.4408C19.2602 11.6782 19.7663 12.1529 20.0703 12.8415C20.2899 13.3358 20.4077 13.8596 20.4371 14.3971C20.4744 15.0482 20.492 15.7015 20.498 16.3547C20.5077 17.624 20.4999 18.8912 20.4999 20.1604C20.4999 20.2565 20.492 20.3546 20.4881 20.4448C20.3253 20.4919 17.9027 20.4997 17.679 20.4547C17.6751 20.3782 17.6673 20.2957 17.6673 20.2133C17.6673 19.0363 17.6712 17.8594 17.6652 16.6823C17.6633 16.2056 17.6496 15.7289 17.6261 15.2524C17.6103 14.9384 17.5397 14.6324 17.3886 14.35C17.22 14.0341 16.9551 13.8497 16.61 13.7791C16.304 13.7164 15.9998 13.734 15.6978 13.8105C15.2897 13.9125 15.0053 14.1656 14.8326 14.5442C14.715 14.8012 14.6463 15.0737 14.6325 15.3563C14.6169 15.676 14.5992 15.9958 14.5992 16.3156C14.5953 17.6102 14.5973 18.9049 14.5973 20.1997C14.5914 20.2859 14.5914 20.3702 14.5914 20.4763Z" fill="#0346B8"/>
<path d="M7.25279 11.4742C7.32341 11.4683 7.39993 11.4546 7.47643 11.4546C8.2552 11.4526 9.03202 11.4526 9.8108 11.4546C9.85592 11.4546 9.90299 11.4566 9.94811 11.4605C10.0266 11.4664 10.0658 11.5076 10.0678 11.586C10.0697 11.639 10.0717 11.69 10.0717 11.743C10.0717 14.5599 10.0717 17.3788 10.0717 20.1958C10.0717 20.284 10.0599 20.3743 10.054 20.4744C9.11048 20.4744 8.18458 20.4744 7.26457 20.4744C7.21748 20.3154 7.20767 11.6998 7.25279 11.4742Z" fill="#0346B8"/>
<path d="M10.276 8.65564C10.3034 9.47561 9.59332 10.2897 8.64387 10.2877C7.73758 10.2858 6.99804 9.54623 7 8.63995C7.00197 7.73366 7.74151 7 8.64976 7C9.60117 7 10.3152 7.81997 10.276 8.65564Z" fill="#0346B8"/>
</g>
</svg>
