<svg width="20" height="20" viewBox="0 0 20 20" fill="none" xmlns="http://www.w3.org/2000/svg">
<path d="M9.073 10.7063C8.88704 11.0672 8.65923 11.4068 8.36597 11.7122C8.09486 11.9944 7.78978 12.2237 7.45679 12.4143C7.797 12.6042 8.10868 12.8349 8.38647 13.1194C8.6936 13.4339 8.93176 13.7855 9.12378 14.1614C9.30806 13.8058 9.53536 13.4719 9.82397 13.1702C10.1026 12.8789 10.4165 12.643 10.7605 12.4485C10.4187 12.2608 10.099 12.0292 9.8103 11.7366C9.50372 11.4257 9.26535 11.0781 9.073 10.7063ZM3.89038 4.02954C4.08198 4.02963 4.22863 4.17831 4.26245 4.38403C4.61192 6.29293 4.49919 6.37287 6.58472 6.70435C6.7763 6.73863 6.91173 6.8988 6.91187 7.09302C6.91187 7.28737 6.7764 7.43596 6.58472 7.48169C4.4991 7.81319 4.61193 7.87078 4.26245 9.82544L4.2439 9.89282C4.18846 10.0435 4.04802 10.1574 3.89038 10.1575L3.81421 10.1506C3.64623 10.1193 3.54607 9.98137 3.50659 9.79126C3.1458 7.87074 3.25832 7.80179 1.21753 7.48169C0.992322 7.43586 0.857178 7.29865 0.857178 7.09302C0.857309 6.8988 0.992737 6.73863 1.18433 6.70435C3.21637 6.35909 3.1503 6.28514 3.47925 4.52661L3.50659 4.38403C3.55169 4.16682 3.68743 4.02954 3.89038 4.02954ZM15.1345 12.5325C15.0939 12.7581 14.9161 12.9281 14.6697 12.9583C10.6897 13.4955 10.3062 14.0327 9.60718 18.1135L9.58276 18.2092C9.51016 18.4225 9.32631 18.5715 9.09937 18.5715L8.9978 18.5627C8.80403 18.5276 8.66487 18.3908 8.60425 18.2014L8.58081 18.1028C8.03111 14.255 7.5408 13.5121 4.22046 13.0481L3.51831 12.9583C3.23643 12.924 3.04468 12.7062 3.04468 12.4319C3.04483 12.169 3.23654 11.9629 3.51831 11.9172C7.24937 11.4135 7.82923 10.9202 8.45386 7.48853L8.58081 6.76196C8.63721 6.48759 8.84007 6.30493 9.09937 6.30493C9.35875 6.30495 9.56208 6.49931 9.60718 6.77368C10.2047 10.8774 10.7122 11.38 14.6697 11.9172C14.9513 11.963 15.1432 12.1691 15.1433 12.4319L15.1345 12.5325ZM9.57983 2.82935C9.56073 2.93361 9.47728 3.01605 9.35913 3.04614L9.26636 3.06372C7.97424 3.31078 8.02287 3.36124 7.80249 4.61255L7.76538 4.7063C7.7168 4.78972 7.63654 4.84095 7.5437 4.84106L7.49487 4.83716C7.38643 4.81766 7.31354 4.73092 7.28394 4.60083C7.02467 3.3321 7.10322 3.28621 5.73901 3.04614C5.59268 3.01179 5.50273 2.92046 5.50269 2.78345C5.50269 2.64626 5.59296 2.54361 5.72827 2.52075C6.93158 2.28073 7.02161 2.21528 7.19897 1.36841L7.28394 0.954346C7.31776 0.817159 7.40839 0.714111 7.5437 0.714111C7.67883 0.714269 7.76869 0.817264 7.80249 0.954346C8.01668 2.20035 7.97229 2.24638 9.35913 2.52075C9.49418 2.54376 9.58472 2.64641 9.58472 2.78345L9.57983 2.82935Z" fill="black"/>
</svg>
