<svg width="28" height="28" viewBox="0 0 28 28" fill="none" xmlns="http://www.w3.org/2000/svg">
<path d="M4.748 19.0332H11.252C11.6035 19.0332 11.8408 18.7959 11.8408 18.4443V17.0996C11.8408 14.9727 14.9609 13.6367 14.9609 9.75195C14.9609 5.63867 12.1572 2.87891 8 2.87891C3.83398 2.87891 1.03906 5.63867 1.03906 9.75195C1.03906 13.6367 4.1592 14.9727 4.1592 17.0996V18.4443C4.1592 18.7959 4.3965 19.0332 4.748 19.0332ZM5.6885 17.0732C5.6885 14.4014 2.59473 13.0654 2.59473 9.75195C2.59473 6.55273 4.7568 4.43457 8 4.43457C11.2432 4.43457 13.4053 6.55273 13.4053 9.75195C13.4053 13.0654 10.3027 14.4014 10.3027 17.0732V17.5039H5.6885V17.0732ZM5.0029 21.4766H10.9971C11.4717 21.4766 11.8584 21.0898 11.8584 20.6064C11.8584 20.1318 11.4717 19.7363 10.9971 19.7363H5.0029C4.5283 19.7363 4.1416 20.1318 4.1416 20.6064C4.1416 21.0898 4.5283 21.4766 5.0029 21.4766ZM8 23.6914C9.2832 23.6914 10.2061 23.0938 10.2939 22.1885H5.6973C5.7852 23.0938 6.6992 23.6914 8 23.6914Z" fill="#1C1C1E"/>
</svg>
