<svg width="20" height="20" viewBox="0 0 20 20" fill="none" xmlns="http://www.w3.org/2000/svg">
<path d="M8.95157 13.5952C9.94976 13.5952 10.8852 13.2938 11.6636 12.779L14.4133 15.535C14.5954 15.7108 14.8277 15.7987 15.0788 15.7987C15.5999 15.7987 15.9828 15.3906 15.9828 14.8759C15.9828 14.6373 15.9012 14.405 15.7254 14.2292L12.9945 11.4858C13.5596 10.6822 13.8923 9.70914 13.8923 8.65445C13.8923 5.93612 11.6699 3.71375 8.95157 3.71375C6.23952 3.71375 4.01086 5.93612 4.01086 8.65445C4.01086 11.3728 6.23324 13.5952 8.95157 13.5952ZM8.95157 12.2768C6.96148 12.2768 5.32922 10.6445 5.32922 8.65445C5.32922 6.66436 6.96148 5.0321 8.95157 5.0321C10.9417 5.0321 12.5739 6.66436 12.5739 8.65445C12.5739 10.6445 10.9417 12.2768 8.95157 12.2768Z" fill="#1C1C1E"/>
</svg>
