<svg width="20" height="20" viewBox="0 0 20 20" fill="none" xmlns="http://www.w3.org/2000/svg">
<path d="M0.554443 9.67784C0.554443 11.241 1.32663 12.1702 2.77054 12.3711L4.19563 15.51C4.55974 16.3199 5.06825 16.7154 5.82788 16.7154C6.81351 16.7154 7.52291 16.006 7.30947 14.8948L6.87001 12.5971C8.6467 12.9424 10.4359 13.589 12.0869 14.5369C12.313 15.215 12.9219 15.6544 13.7192 15.6544C14.7299 15.6544 15.4393 14.945 15.4393 13.928V4.44835C15.4393 3.43133 14.7299 2.72192 13.7192 2.72192C12.9031 2.72192 12.2816 3.18649 12.0681 3.89589C10.1282 5.04475 7.64847 5.79809 5.67093 6.01154H3.3795C1.54635 6.01154 0.554443 6.97206 0.554443 8.74243V9.67784ZM13.1856 13.928V4.44835C13.1856 4.13445 13.399 3.91472 13.7192 3.91472C14.0331 3.91472 14.2465 4.13445 14.2465 4.44835V13.928C14.2465 14.2419 14.0331 14.4616 13.7192 14.4616C13.399 14.4616 13.1856 14.2419 13.1856 13.928ZM5.86555 11.2473V7.17295C8.0691 6.90928 10.1596 6.28149 11.9928 5.25192V13.1746C10.122 12.12 8.0503 11.511 5.86555 11.2473ZM3.3795 11.2159C2.21181 11.2159 1.74724 10.7765 1.74724 9.67784V8.74243C1.74724 7.6438 2.21181 7.20434 3.3795 7.20434H4.67275V11.2159H3.3795ZM5.31309 15.1773L4.00729 12.4087H5.63327C5.6521 12.4087 5.67721 12.415 5.70232 12.415L6.21711 15.0455C6.28617 15.3782 6.09783 15.5916 5.81532 15.5916C5.56421 15.5916 5.44493 15.4598 5.31309 15.1773Z" fill="#1C1C1E"/>
</svg>
