<svg width="20" height="20" viewBox="0 0 20 20" fill="none" xmlns="http://www.w3.org/2000/svg">
<path d="M2.96147 14.0159C4.71929 15.7737 6.92283 16.3136 7.96499 16.4203C8.37929 16.4831 8.64299 16.2634 8.66179 15.9432C8.68689 15.6481 8.50489 15.4096 8.13449 15.3342C7.18649 15.1773 5.23407 14.719 3.75249 13.2248C1.34805 10.8267 0.870931 7.10385 2.85475 5.11376C4.44306 3.53173 7.07978 3.68867 9.02589 4.73708L9.84829 3.92724C7.34969 2.40798 4.03499 2.35776 2.07001 4.32274C-0.277919 6.67696 -0.00169945 11.0527 2.96147 14.0159ZM12.5039 4.90659L13.0375 4.36669C13.3137 4.08418 13.3389 3.67612 13.0626 3.41245L12.8743 3.23039C12.6295 3.00438 12.2339 3.02322 11.964 3.28689L11.4241 3.82679L12.5039 4.90659ZM6.37037 11.0339L12.0393 5.37115L10.9533 4.29135L5.29057 9.95402L4.7444 11.2724C4.67534 11.4482 4.85112 11.6177 5.02062 11.5549L6.37037 11.0339ZM5.34708 12.1011C7.34969 14.1854 10.7963 14.9638 12.6797 13.0867C14.2115 11.5486 14.0796 8.81772 12.4097 6.45723L11.6062 7.2608C12.8366 9.07511 13.0626 11.1217 11.8887 12.2957C10.4447 13.7396 8.09049 13.0867 6.55243 11.6177L5.34708 12.1011Z" fill="#1C1C1E"/>
</svg>
