<svg width="20" height="20" viewBox="0 0 20 20" fill="none" xmlns="http://www.w3.org/2000/svg">
<path d="M2.60686 15.8676H13.386C14.7358 15.8676 15.4201 15.1896 15.4201 13.8587V7.71261C15.4201 6.3817 14.7358 5.70368 13.386 5.70368H11.804V5.22028C11.804 4.03376 11.1636 3.46875 9.9834 3.46875H6.01576C4.89202 3.46875 4.19517 4.03376 4.19517 5.22028V5.70368H2.60686C1.26967 5.70368 0.579102 6.3817 0.579102 7.71261V13.8587C0.579102 15.1896 1.26967 15.8676 2.60686 15.8676ZM5.33147 5.16378C5.33147 4.73689 5.58887 4.5046 6.02832 4.5046H9.9708C10.4103 4.5046 10.6677 4.73689 10.6677 5.16378V5.70368H5.33147V5.16378ZM2.65709 14.6811C2.10463 14.6811 1.80957 14.3923 1.80957 13.821V7.75656C1.80957 7.17899 2.10463 6.89648 2.65709 6.89648H3.37905V14.6811H2.65709ZM4.54674 14.6811V6.89648H11.4524V14.6811H4.54674ZM13.3421 6.89648C13.8945 6.89648 14.1896 7.17899 14.1896 7.75656V13.821C14.1896 14.3923 13.8945 14.6811 13.3421 14.6811H12.6201V6.89648H13.3421Z" fill="#393939"/>
</svg>
