<svg width="27" height="27" viewBox="0 0 27 27" fill="none" xmlns="http://www.w3.org/2000/svg">
<g clip-path="url(#clip0_634_60)">
<path d="M27 13.5C27 6.04416 20.9558 0 13.5 0C6.04416 0 0 6.04416 0 13.5C0 20.9558 6.04416 27 13.5 27C20.9558 27 27 20.9558 27 13.5Z" fill="white"/>
<path d="M17.4199 7.60056C17.5793 7.59809 17.7743 7.61637 17.9785 7.66989C18.1523 7.71544 18.408 7.80588 18.6582 7.99607L18.7647 8.08298L18.8516 8.16599C19.1523 8.47193 19.2748 8.81717 19.3272 9.03513L19.3613 9.21482V9.21579C19.3857 9.37295 19.4159 9.68832 19.3897 9.98923C19.2316 11.8117 18.5623 16.1276 18.2276 18.0908C18.1394 18.6077 17.9857 19.1077 17.7041 19.5185C17.3967 19.967 16.9176 20.3249 16.2959 20.3877C15.5475 20.4633 14.9631 20.1715 14.5879 19.9297C14.4021 19.8099 14.2307 19.6781 14.0987 19.5752C13.9525 19.4613 13.8475 19.3769 13.7334 19.2949V19.2959C13.2768 18.9678 12.9197 18.7012 12.5733 18.4424C12.2268 18.1836 11.893 17.9331 11.4707 17.6279H11.4697C11.1393 17.389 10.776 17.0611 10.5586 16.6045C10.5169 16.5168 10.4844 16.4285 10.4571 16.3408C10.1998 16.4188 9.92663 16.4635 9.63967 16.457H9.63772C9.27101 16.4482 8.86306 16.3488 8.57131 16.2685C8.24386 16.1784 7.90593 16.0672 7.62697 15.9677C7.42439 15.8955 6.95898 15.7493 6.63869 15.5791C6.45581 15.4819 6.16997 15.3052 5.94143 14.997C5.67795 14.6417 5.56026 14.2067 5.61135 13.7597C5.68326 13.1289 6.08066 12.7276 6.32424 12.5293C6.58613 12.3161 6.89344 12.1547 7.18361 12.0273C10.1175 10.625 12.0872 9.69423 13.0821 9.24021L14.8213 8.45603C15.2893 8.2494 15.655 8.09348 15.9463 7.97751C16.5009 7.75673 16.9485 7.60965 17.4141 7.60056H17.4199ZM17.4414 8.99997C17.0604 9.0074 16.4758 9.2305 13.6631 10.5136C12.6779 10.9633 10.7087 11.8932 7.75588 13.3047C7.27633 13.5139 7.0255 13.7188 7.00295 13.9189C6.95919 14.3028 7.46275 14.4224 8.0967 14.6484C8.61384 14.8329 9.31026 15.0489 9.6719 15.0576C9.99979 15.0648 10.3663 14.9168 10.7705 14.6123C13.5294 12.5695 14.9536 11.5368 15.043 11.5146C15.1058 11.499 15.1927 11.4796 15.252 11.5371C15.3112 11.5947 15.3061 11.7036 15.2998 11.7334C15.2496 11.9676 12.6611 14.5504 12.5088 14.7236C11.9391 15.3728 11.2902 15.7702 12.2901 16.4931C13.1553 17.1185 13.6595 17.5177 14.5508 18.1582C15.1206 18.5679 15.5673 19.0545 16.1553 18.9951C16.4259 18.9677 16.7056 18.6883 16.8477 17.8554C17.1832 15.8875 17.8428 11.624 17.9951 9.86716C18.0085 9.71315 17.992 9.51638 17.9785 9.42966C17.9651 9.34331 17.9363 9.21988 17.834 9.12888C17.7125 9.02102 17.5252 8.99867 17.4414 8.99997Z" fill="#0346B8"/>
</g>
<defs>
<clipPath id="clip0_634_60">
<rect width="27" height="27" fill="white"/>
</clipPath>
</defs>
</svg>
