<svg width="27" height="27" viewBox="0 0 27 27" fill="none" xmlns="http://www.w3.org/2000/svg">
<g clip-path="url(#clip0_633_11)">
<path d="M27 13.5C27 6.04416 20.9558 0 13.5 0C6.04416 0 0 6.04416 0 13.5C0 20.9558 6.04416 27 13.5 27C20.9558 27 27 20.9558 27 13.5Z" fill="white"/>
<g clip-path="url(#clip1_633_11)">
<path fill-rule="evenodd" clip-rule="evenodd" d="M18.8144 8.17973C17.4045 6.77482 15.5294 6.00073 13.5315 6C9.41465 6 6.06412 9.3341 6.06268 13.4323C6.06197 14.7424 6.40612 16.0211 7.05968 17.1481L6 21L9.95932 19.9664C11.0501 20.5588 12.2784 20.8706 13.5283 20.871H13.5315C17.6476 20.871 20.9986 17.5366 21 13.4383C21.0007 11.4522 20.2246 9.58501 18.8144 8.18008V8.17973ZM13.5315 19.6158H13.529C12.4152 19.6154 11.3226 19.3174 10.3694 18.7547L10.1427 18.6207L7.79309 19.234L8.42015 16.9542L8.27259 16.7204C7.65126 15.7368 7.32288 14.5998 7.32359 13.4327C7.32503 10.0266 10.1097 7.25521 13.534 7.25521C15.1921 7.25594 16.7506 7.89925 17.9227 9.06715C19.0948 10.2347 19.7398 11.7872 19.7391 13.4376C19.7376 16.8441 16.9529 19.6154 13.5315 19.6154V19.6158ZM16.9364 14.989C16.7499 14.896 15.8324 14.4469 15.6612 14.3849C15.49 14.3229 15.3658 14.2919 15.2415 14.4779C15.1172 14.664 14.7595 15.0824 14.6506 15.2061C14.5417 15.3301 14.4329 15.3454 14.2463 15.2524C14.0597 15.1594 13.4584 14.9634 12.7454 14.3307C12.1907 13.8382 11.8161 13.2302 11.7073 13.0442C11.5984 12.8581 11.6958 12.7576 11.7889 12.6653C11.8727 12.5819 11.9755 12.4483 12.069 12.3399C12.1624 12.2316 12.1932 12.1539 12.2555 12.0302C12.3179 11.9062 12.2867 11.7979 12.2402 11.7048C12.1936 11.6118 11.8204 10.6976 11.6646 10.3259C11.5131 9.96386 11.3592 10.013 11.245 10.007C11.1361 10.0016 11.0118 10.0006 10.8872 10.0006C10.7626 10.0006 10.5606 10.0469 10.3894 10.2329C10.2182 10.4189 9.73621 10.8684 9.73621 11.7822C9.73621 12.696 10.4048 13.5795 10.4983 13.7035C10.5917 13.8276 11.8143 15.7032 13.6862 16.508C14.1314 16.6994 14.4791 16.8138 14.7502 16.8993C15.1971 17.0408 15.6039 17.0209 15.9255 16.9731C16.284 16.9196 17.0296 16.5237 17.185 16.0899C17.3404 15.6562 17.3404 15.2841 17.2939 15.2068C17.2473 15.1295 17.1227 15.0827 16.9361 14.9897L16.9364 14.989Z" fill="#0346B8"/>
</g>
</g>
<defs>
<clipPath id="clip0_633_11">
<rect width="27" height="27" fill="white"/>
</clipPath>
<clipPath id="clip1_633_11">
<rect width="15" height="15" fill="white" transform="translate(6 6)"/>
</clipPath>
</defs>
</svg>
