<svg width="27" height="27" viewBox="0 0 27 27" fill="none" xmlns="http://www.w3.org/2000/svg">
<rect width="27" height="27" rx="13.5" fill="white"/>
<path d="M13.5 21.2187C12.4717 21.2187 11.5013 21.0216 10.5888 20.6274C9.67632 20.2332 8.88053 19.6965 8.20145 19.0173C7.52224 18.3382 6.98553 17.5424 6.59132 16.6299C6.19711 15.7174 6 14.747 6 13.7187C6 12.6823 6.19711 11.7099 6.59132 10.8014C6.98553 9.89303 7.52224 9.09928 8.20145 8.4202C8.88053 7.74099 9.67632 7.20428 10.5888 6.81007C11.5013 6.41586 12.4717 6.21875 13.5 6.21875C14.5364 6.21875 15.5089 6.41586 16.4173 6.81007C17.3257 7.20428 18.1195 7.74099 18.7986 8.4202C19.4778 9.09928 20.0145 9.89303 20.4087 10.8014C20.8029 11.7099 21 12.6823 21 13.7187C21 14.747 20.8029 15.7174 20.4087 16.6299C20.0145 17.5424 19.4778 18.3382 18.7986 19.0173C18.1195 19.6965 17.3257 20.2332 16.4173 20.6274C15.5089 21.0216 14.5364 21.2187 13.5 21.2187ZM13.5 20.0178C13.9029 19.4834 14.242 18.9445 14.5172 18.4009C14.7925 17.8574 15.0167 17.2632 15.1899 16.6185H11.8101C11.9934 17.2835 12.2202 17.8878 12.4905 18.4313C12.7606 18.9749 13.0971 19.5037 13.5 20.0178ZM11.9712 19.8007C11.6686 19.3664 11.3968 18.8728 11.1559 18.3198C10.9149 17.7666 10.7277 17.1995 10.5941 16.6185H7.91605C8.33303 17.4384 8.89224 18.1272 9.59368 18.6849C10.2951 19.2426 11.0876 19.6145 11.9712 19.8007ZM15.0288 19.8007C15.9124 19.6145 16.7049 19.2426 17.4063 18.6849C18.1078 18.1272 18.667 17.4384 19.0839 16.6185H16.4059C16.2469 17.2045 16.047 17.7741 15.8061 18.3273C15.5653 18.8805 15.3062 19.3716 15.0288 19.8007ZM7.41947 15.4343H10.3543C10.3047 15.1409 10.2688 14.8532 10.2464 14.5712C10.2241 14.2893 10.213 14.0052 10.213 13.7187C10.213 13.4323 10.2241 13.1482 10.2464 12.8663C10.2688 12.5843 10.3047 12.2966 10.3543 12.0032H7.41947C7.34355 12.2714 7.28539 12.5502 7.245 12.8397C7.20447 13.1291 7.18421 13.4222 7.18421 13.7187C7.18421 14.0153 7.20447 14.3084 7.245 14.5978C7.28539 14.8873 7.34355 15.1661 7.41947 15.4343ZM11.5384 15.4343H15.4616C15.5111 15.1409 15.547 14.8557 15.5694 14.5789C15.5916 14.302 15.6028 14.0153 15.6028 13.7187C15.6028 13.4222 15.5916 13.1355 15.5694 12.8586C15.547 12.5818 15.5111 12.2966 15.4616 12.0032H11.5384C11.4889 12.2966 11.453 12.5818 11.4306 12.8586C11.4084 13.1355 11.3972 13.4222 11.3972 13.7187C11.3972 14.0153 11.4084 14.302 11.4306 14.5789C11.453 14.8557 11.4889 15.1409 11.5384 15.4343ZM16.6457 15.4343H19.5805C19.6564 15.1661 19.7146 14.8873 19.755 14.5978C19.7955 14.3084 19.8158 14.0153 19.8158 13.7187C19.8158 13.4222 19.7955 13.1291 19.755 12.8397C19.7146 12.5502 19.6564 12.2714 19.5805 12.0032H16.6457C16.6953 12.2966 16.7312 12.5843 16.7536 12.8663C16.7759 13.1482 16.787 13.4323 16.787 13.7187C16.787 14.0052 16.7759 14.2893 16.7536 14.5712C16.7312 14.8532 16.6953 15.1409 16.6457 15.4343ZM16.4059 10.819H19.0839C18.662 9.98901 18.1066 9.3002 17.4178 8.75257C16.7289 8.20507 15.9326 7.83059 15.0288 7.62915C15.3314 8.08862 15.6007 8.59118 15.8364 9.13684C16.0724 9.68237 16.2622 10.2431 16.4059 10.819ZM11.8101 10.819H15.1899C15.0066 10.159 14.7761 9.55092 14.4983 8.99474C14.2204 8.43855 13.8876 7.91355 13.5 7.41974C13.1124 7.91355 12.7796 8.43855 12.5017 8.99474C12.2239 9.55092 11.9934 10.159 11.8101 10.819ZM7.91605 10.819H10.5941C10.7378 10.2431 10.9276 9.68237 11.1636 9.13684C11.3993 8.59118 11.6686 8.08862 11.9712 7.62915C11.0622 7.83059 10.2647 8.20638 9.57849 8.75651C8.89217 9.30651 8.33803 9.99401 7.91605 10.819Z" fill="#0346B8"/>
</svg>
