<svg width="27" height="27" viewBox="0 0 27 27" fill="none" xmlns="http://www.w3.org/2000/svg">
<g clip-path="url(#clip0_634_51)">
<path d="M27 13.5C27 6.04416 20.9558 0 13.5 0C6.04416 0 0 6.04416 0 13.5C0 20.9558 6.04416 27 13.5 27C20.9558 27 27 20.9558 27 13.5Z" fill="white"/>
<path d="M13.4941 9V7.5H13.6016C13.6666 7.50026 13.7613 7.50091 13.8809 7.50195C14.1201 7.50403 14.4606 7.50832 14.8672 7.5166C15.4755 7.529 16.2376 7.55052 17.0352 7.58887L17.8398 7.63281L17.8975 7.6377C18.0718 7.65529 19.2316 7.66282 20.2266 8.53613L20.2275 8.53516C20.2293 8.53665 20.2307 8.53854 20.2324 8.54004C20.2374 8.54446 20.243 8.54826 20.248 8.55273L20.2471 8.55371C20.769 9.01254 21.0202 9.63114 21.1328 9.95508C21.2233 10.2154 21.2743 10.4449 21.3018 10.5781C21.2992 10.568 21.295 10.5578 21.292 10.5469C21.2961 10.562 21.3013 10.576 21.3047 10.5898C21.3038 10.586 21.3028 10.5821 21.3018 10.5781C21.3026 10.5822 21.3049 10.5859 21.3057 10.5898C21.3072 10.5961 21.3072 10.6025 21.3086 10.6084C21.3098 10.6138 21.3124 10.6188 21.3135 10.624L21.333 10.7285L21.416 11.4512C21.457 11.8758 21.4983 12.4396 21.5 13.0088V13.9824C21.5 14.5663 21.4588 15.1369 21.4189 15.5518C21.3988 15.7611 21.3777 15.9361 21.3623 16.0605C21.3546 16.1229 21.3485 16.1737 21.3438 16.209C21.3414 16.2262 21.3393 16.24 21.3379 16.25C21.3372 16.2551 21.3364 16.2596 21.3359 16.2627V16.2686H21.335L19.8506 16.0547L21.3301 16.3008V16.3057C21.3297 16.3078 21.3286 16.31 21.3281 16.3125C21.3272 16.3176 21.3264 16.3242 21.3252 16.3311C21.3227 16.3447 21.3194 16.3617 21.3154 16.3818C21.3075 16.4225 21.2961 16.4763 21.2812 16.54C21.2519 16.6658 21.2068 16.8398 21.1396 17.0342C21.0278 17.3583 20.7757 17.9807 20.251 18.4424L20.252 18.4443C20.2468 18.449 20.2406 18.4524 20.2354 18.457C20.2335 18.4586 20.2323 18.4613 20.2305 18.4629L20.2295 18.4619C19.2354 19.3342 18.0786 19.3417 17.9014 19.3594C17.8818 19.3613 17.8614 19.3631 17.8418 19.3643C16.7662 19.4299 15.6821 19.464 14.8711 19.4814C14.4646 19.4902 14.124 19.4946 13.8848 19.4971C13.7656 19.4983 13.6714 19.4996 13.6064 19.5H13.4512C13.4292 19.4998 13.3967 19.4986 13.3555 19.498C13.2727 19.497 13.1526 19.4963 13.0059 19.4941C12.7126 19.4898 12.3083 19.4826 11.8662 19.4727C10.9975 19.4532 9.92863 19.4212 9.27734 19.3682C9.23783 19.3649 9.19832 19.3599 9.15918 19.3535C9.15728 19.3532 9.14112 19.3506 9.0957 19.3457C9.06336 19.3422 8.97634 19.3341 8.91406 19.3271C8.76592 19.3107 8.56273 19.2842 8.33691 19.2344C7.88987 19.1358 7.29986 18.9308 6.7627 18.458L6.76172 18.459C6.75912 18.4567 6.75746 18.4534 6.75488 18.4512C6.75195 18.4486 6.74804 18.4469 6.74512 18.4443L6.74609 18.4434C6.22239 17.9812 5.9719 17.3572 5.86035 17.0332C5.79367 16.8395 5.74804 16.6664 5.71875 16.541C5.7039 16.4774 5.69251 16.4233 5.68457 16.3828C5.68062 16.3627 5.67726 16.3457 5.6748 16.332C5.67357 16.3252 5.67276 16.3186 5.67188 16.3135C5.67146 16.3111 5.67026 16.3086 5.66992 16.3066V16.3018C5.66816 16.2911 5.6656 16.2802 5.66406 16.2695V16.2627C5.66364 16.2597 5.66278 16.2558 5.66211 16.251C5.6607 16.2409 5.65861 16.2265 5.65625 16.209C5.65151 16.1737 5.6444 16.1238 5.63672 16.0615C5.62135 15.9369 5.60119 15.7606 5.58105 15.5508C5.54124 15.1358 5.5 14.5661 5.5 13.9834V13.0137C5.50001 12.4299 5.54121 11.8601 5.58105 11.4453C5.6012 11.2356 5.62134 11.06 5.63672 10.9355C5.64441 10.8733 5.6515 10.8234 5.65625 10.7881C5.65862 10.7705 5.66069 10.7562 5.66211 10.7461C5.66278 10.7413 5.66363 10.7374 5.66406 10.7344V10.7275C5.66534 10.7187 5.66751 10.71 5.66895 10.7012L7.14941 10.9414L5.66895 10.7002V10.6982C5.6691 10.6973 5.66975 10.6963 5.66992 10.6953C5.67026 10.6933 5.67048 10.691 5.6709 10.6885C5.67177 10.6833 5.67261 10.6768 5.67383 10.6699C5.67625 10.6563 5.67971 10.6393 5.68359 10.6191C5.69145 10.5784 5.70206 10.5238 5.7168 10.46C5.74587 10.3341 5.79169 10.1604 5.8584 9.96582C5.96964 9.64143 6.21991 9.01815 6.74512 8.55566L6.74414 8.55371C6.74887 8.54949 6.75502 8.54618 6.75977 8.54199C6.76223 8.53986 6.76413 8.5363 6.7666 8.53418L6.76758 8.53516C7.7621 7.66247 8.9241 7.65607 9.0918 7.63867L9.15332 7.63281C10.2311 7.56587 11.3161 7.53313 12.127 7.5166C12.5332 7.50832 12.8733 7.50403 13.1123 7.50195C13.2318 7.50091 13.3266 7.50026 13.3916 7.5H13.4932C13.4932 7.5 13.4941 7.5 13.4941 9ZM13.4941 9C13.4941 9 11.3447 8.99953 9.24609 9.12988C8.95256 9.16031 8.31383 9.16342 7.74316 9.67285C7.29767 10.0559 7.15267 10.9217 7.14941 10.9414C7.14941 10.9414 7.00001 11.9766 7 13.0137V13.9834C7 15.0184 7.14941 16.0557 7.14941 16.0557C7.15022 16.0605 7.29683 16.9381 7.74316 17.3252C8.31397 17.8345 9.06445 17.8187 9.39941 17.873C10.5921 17.9701 13.4612 17.9996 13.5 18C13.5 18 15.6535 17.9952 17.751 17.8672C18.0445 17.8377 18.6829 17.8347 19.2539 17.3252C19.7048 16.9379 19.8506 16.0547 19.8506 16.0547C19.8532 16.0366 20 15.0104 20 13.9824V13.0127C19.9969 11.9891 19.8508 10.9636 19.8477 10.9414H19.8467C19.8433 10.9216 19.6953 10.0558 19.25 9.67285C18.679 9.16355 18.0394 9.15938 17.7471 9.12988C15.6496 8.99953 13.499 9 13.499 9H13.4941ZM21.335 16.2695C21.3335 16.2796 21.3327 16.2898 21.3311 16.2998L19.8506 16.0547L21.335 16.2695ZM11.9893 12.1592C11.9944 11.7902 12.384 11.5541 12.7139 11.7197L15.1279 12.9316C15.4915 13.1142 15.4968 13.6318 15.1367 13.8213L12.6895 15.1084C12.3539 15.2849 11.952 15.0383 11.957 14.6592L11.9893 12.1592ZM20.0293 12.4287C20.0365 12.4278 20.0437 12.4268 20.0508 12.4258C20.0437 12.4268 20.0365 12.4278 20.0293 12.4287ZM20.1592 12.4072C20.166 12.4058 20.1729 12.4049 20.1797 12.4033C20.173 12.4049 20.166 12.4058 20.1592 12.4072ZM20.2568 12.3828C20.2736 12.3781 20.2898 12.3732 20.3057 12.3682C20.2899 12.3732 20.2736 12.378 20.2568 12.3828ZM20.3301 12.3594C20.3656 12.3473 20.3983 12.3341 20.4287 12.3213C20.3987 12.3339 20.366 12.3471 20.3301 12.3594ZM20.5332 12.2734C20.5494 12.2651 20.5646 12.2576 20.5781 12.25C20.5653 12.2572 20.5502 12.2647 20.5332 12.2734ZM20.6025 12.2354C20.6208 12.2247 20.637 12.2172 20.6484 12.21C20.6688 12.1971 20.6861 12.1815 20.7041 12.1689C20.6741 12.1899 20.6406 12.2131 20.6025 12.2354ZM20.7783 12.1152C20.7852 12.1098 20.7917 12.1047 20.7979 12.0996C20.7918 12.1045 20.7853 12.1097 20.7783 12.1152ZM20.8398 12.0635C20.8435 12.0602 20.8464 12.0566 20.8496 12.0537C20.8463 12.0567 20.8434 12.0604 20.8398 12.0635ZM20.9258 11.9834C20.9221 11.9872 20.9184 11.9917 20.9141 11.9961C20.9119 11.9983 20.9089 12.0002 20.9062 12.0029C20.9054 12.0037 20.9042 12.0041 20.9033 12.0049C20.8995 12.0087 20.8957 12.0127 20.8916 12.0166C20.8804 12.0275 20.8656 12.0393 20.8496 12.0537C20.8541 12.0496 20.8599 12.048 20.8633 12.0449C20.8715 12.0374 20.8789 12.029 20.8867 12.0215C20.8944 12.0141 20.9015 12.0087 20.9062 12.0039L20.9336 11.9766C20.9317 11.9785 20.9287 11.9804 20.9258 11.9834ZM20.8662 9.84375C20.8537 9.83219 20.842 9.81978 20.8291 9.80859C20.842 9.81977 20.8537 9.83216 20.8662 9.84375ZM20.7432 9.74219C20.7262 9.72954 20.7099 9.7161 20.6924 9.7041C20.7099 9.71607 20.7262 9.72951 20.7432 9.74219ZM20.6045 9.64941C20.5836 9.6371 20.5627 9.62464 20.541 9.61328C20.5627 9.62461 20.5835 9.63709 20.6045 9.64941ZM19.2451 9.56934C19.2192 9.58069 19.1955 9.59115 19.1748 9.60156C19.1961 9.59087 19.2197 9.58045 19.2451 9.56934ZM20.4492 9.56934C20.427 9.55955 20.4047 9.54977 20.3818 9.54102C20.4047 9.54975 20.4269 9.55954 20.4492 9.56934ZM19.3857 9.51367C19.3767 9.51659 19.3681 9.52044 19.3594 9.52344C19.3677 9.52056 19.3761 9.51745 19.3848 9.51465L19.3857 9.51367ZM20.2803 9.50684C20.2577 9.50001 20.235 9.4931 20.2119 9.4873C20.235 9.49309 20.2576 9.49999 20.2803 9.50684ZM20.1055 9.46582C20.0809 9.46155 20.0563 9.45718 20.0312 9.4541C20.0563 9.45717 20.0809 9.46153 20.1055 9.46582ZM19.6113 9.46094C19.6048 9.46198 19.5982 9.46275 19.5918 9.46387C19.5982 9.46275 19.6048 9.46198 19.6113 9.46094ZM19.7637 9.44434C19.7404 9.44563 19.7176 9.44793 19.6953 9.4502C19.7177 9.44791 19.7404 9.44564 19.7637 9.44434ZM19.8311 9.44336C19.8606 9.44302 19.8898 9.44395 19.9189 9.44531C19.9057 9.44468 19.8923 9.44267 19.8789 9.44238C19.8628 9.44204 19.8468 9.44319 19.8311 9.44336Z" fill="#0346B8"/>
</g>
<defs>
<clipPath id="clip0_634_51">
<rect width="27" height="27" fill="white"/>
</clipPath>
</defs>
</svg>
