<svg width="124" height="58" viewBox="0 0 124 58" fill="none" xmlns="http://www.w3.org/2000/svg">
<g clip-path="url(#clip0_336_6163)">
<path d="M43.8371 47.7187H117.746L117.544 48.3249H43.635L43.8371 47.7187ZM43.8876 47.5166H117.797L120.474 38.5748H46.5651L43.8876 47.5166ZM46.8177 37.7665L46.6156 38.3727H120.525L120.727 37.7665H46.8177ZM24.0337 38.5748H45.5547L44.1907 43.071V42.9194H43.3319V43.3741H44.0897L42.8772 47.4661H21.1036C18.0725 47.4661 15.3445 46.2031 13.3237 44.1319C11.303 42.0606 10.141 39.2821 10.1916 36.1499C10.1916 34.3312 10.6967 32.5631 11.505 30.997C12.1113 29.835 12.9196 28.7236 13.9299 27.8143C14.2331 27.5617 14.5362 27.2586 14.8393 27.006C14.6877 27.5112 14.5867 28.1679 14.5867 28.7741C14.5362 31.4516 15.5971 33.8765 17.3147 35.6447C19.0324 37.5139 21.4067 38.5748 24.0337 38.5748ZM13.3237 29.4309L13.7279 29.5824C13.8289 29.3299 13.93 29.0773 14.031 28.8247L13.6774 28.6226C13.5258 28.8752 13.4248 29.1278 13.3237 29.4309ZM12.8185 31.098L13.2227 31.199V31.1485C13.2732 30.8959 13.3237 30.6433 13.4248 30.3402L13.0206 30.2392C12.9701 30.5423 12.8691 30.8454 12.8185 31.098ZM12.6165 32.8662H13.0206C13.0206 32.5631 13.0711 32.3105 13.0711 32.0074H12.667V32.0579C12.667 32.3105 12.6165 32.5631 12.6165 32.8662ZM12.7175 34.6343L13.1216 34.5838C13.0711 34.2807 13.0711 34.0281 13.0206 33.725H12.667C12.667 34.0281 12.7175 34.3312 12.7175 34.6343ZM13.5763 36.2004C13.4753 35.9478 13.4248 35.6952 13.3237 35.3921L12.9196 35.4931C12.9701 35.7963 13.0711 36.0489 13.1722 36.352L13.5763 36.2004ZM14.2331 37.716C14.0815 37.4634 13.9805 37.2108 13.8794 36.9582L13.4753 37.1603C13.5763 37.4129 13.7279 37.6655 13.8794 37.9181L14.2331 37.716ZM15.1424 39.08C14.9908 38.8779 14.7888 38.6253 14.6372 38.4232L14.2836 38.6758C14.4351 38.9284 14.6372 39.1305 14.7888 39.3831L15.1424 39.08ZM16.3043 40.2924C16.1023 40.0904 15.9002 39.9388 15.6981 39.7367L15.395 40.0398C15.5971 40.2419 15.7991 40.444 16.0012 40.6461L16.3043 40.2924ZM17.6178 41.3028C17.3652 41.1513 17.1632 40.9997 16.9611 40.8481L16.7085 41.2018C16.9611 41.3533 17.1632 41.5554 17.4157 41.707L17.6178 41.3028ZM19.0829 42.0606C18.8303 41.9596 18.5777 41.8585 18.3251 41.707L18.123 42.1111C18.3756 42.2627 18.6282 42.3637 18.8808 42.4647L19.0829 42.0606ZM20.649 42.5658C20.3964 42.5153 20.0932 42.4142 19.8407 42.3132L19.6891 42.7173C19.9417 42.8184 20.2448 42.8689 20.4974 42.9699L20.649 42.5658ZM22.2656 42.8689C22.013 42.8184 21.7098 42.8184 21.4573 42.7679L21.3562 43.172C21.6593 43.2225 21.9119 43.273 22.215 43.273L22.2656 42.8689ZM23.9327 42.9699C23.6296 42.9699 23.377 42.9699 23.0739 42.9699V43.4246C23.377 43.4246 23.6296 43.4246 23.9327 43.4246V42.9699ZM41.6648 43.3741H42.5236V42.9194H41.6648V43.3741ZM39.9977 43.3741H40.8565V42.9194H39.9977V43.3741ZM38.28 43.3741H39.1388V42.9194H38.28V43.3741ZM36.6129 43.3741H37.4717V42.9194H36.6129V43.3741ZM34.8953 43.3741H35.7541V42.9194H34.8953V43.3741ZM33.2281 43.3741H34.087V42.9194H33.2281V43.3741ZM31.5105 43.3741H32.3693V42.9194H31.5105V43.3741ZM29.8434 43.3741H30.7022V42.9194H29.8434V43.3741ZM28.1763 43.3741H29.0351V42.9194H28.1763V43.3741ZM26.4586 43.3741H27.3174V42.9194H26.4586V43.3741ZM24.7915 43.3741H25.6503V42.9194H24.7915V43.3741ZM24.0337 37.7665C19.2344 37.7665 15.395 33.7755 15.4455 28.8752C15.4455 27.6122 15.7486 26.4503 16.2033 25.3389C12.2123 27.3091 9.43377 31.4516 9.38326 36.2509C9.28222 42.9194 14.5867 48.3754 21.1036 48.3754H42.6752L42.8772 47.7692H21.1541C18.0725 47.7692 15.2434 46.4557 13.2227 44.3845C11.2019 42.3132 9.98948 39.4336 10.04 36.2509C10.04 34.3817 10.5452 32.5631 11.3535 30.997C12.1113 29.4814 13.2227 28.1679 14.5867 27.1575C14.6877 27.0565 14.7888 27.006 14.8898 26.9049L15.0414 27.006C14.9908 27.3091 14.9403 27.6122 14.8898 27.9658C14.8393 28.269 14.8393 28.5721 14.8393 28.9257C14.7888 31.5527 15.8497 33.9271 17.5168 35.6447C19.1839 37.3623 21.5078 38.4232 24.0842 38.4232H45.6558L45.8578 37.817H24.0337V37.7665Z" fill="url(#paint0_linear_336_6163)"/>
<path fill-rule="evenodd" clip-rule="evenodd" d="M30.299 30.797C30.299 30.7461 30.299 30.7461 30.299 30.7461C30.248 30.7461 30.248 30.7461 30.299 30.797C30.248 30.7461 30.248 30.7461 30.299 30.797Z" fill="#151717"/>
<path fill-rule="evenodd" clip-rule="evenodd" d="M28.7322 29.8359C28.7322 29.8865 28.7322 29.8865 28.7322 29.8359C28.6816 29.8865 28.7322 29.937 28.6816 29.9875C28.6816 30.038 28.6816 30.0885 28.7322 30.1391L28.7827 30.1896C28.8332 30.1896 28.8837 30.1391 28.8837 30.038C28.8837 29.9875 28.8332 29.937 28.7322 29.8359C28.7827 29.8359 28.7827 29.8359 28.7322 29.8359Z" fill="#151717"/>
<path fill-rule="evenodd" clip-rule="evenodd" d="M48.5359 13.165H46.01L39.8467 24.077H42.1705L43.484 21.6521H47.8287L48.1823 24.077H50.3041L48.5359 13.165ZM44.4944 19.8334L46.9193 15.4383L47.5255 19.8334H44.4944ZM59.8016 18.3684C60.5089 18.1158 61.0141 17.8127 61.3677 17.358C61.7213 16.9034 61.8729 16.3982 61.8729 15.7919C61.8729 15.3373 61.7718 14.9331 61.5698 14.5795C61.3677 14.2259 61.1151 13.9227 60.711 13.6702C60.3068 13.4176 59.9027 13.3165 59.3469 13.2155C59.0438 13.165 58.4376 13.165 57.6293 13.165H53.8909L51.6176 24.077H56.7705C57.9324 24.077 58.7912 23.9255 59.448 23.6729C60.1047 23.4203 60.6099 22.9656 61.0141 22.4099C61.3677 21.8037 61.5698 21.1975 61.5698 20.5407C61.5698 20.0355 61.4182 19.5809 61.1151 19.2272C60.812 18.8231 60.3573 18.52 59.8016 18.3684ZM58.9933 21.5511C58.7912 21.8037 58.5386 22.0058 58.2355 22.1068C57.9324 22.2078 57.3262 22.3089 56.4169 22.3089H54.2445L54.8508 19.4798H57.5283C58.1345 19.4798 58.5892 19.5809 58.8923 19.8334C59.1449 20.086 59.2964 20.3892 59.2964 20.7428C59.2964 20.9954 59.1954 21.2985 58.9933 21.5511ZM59.3975 16.8528C59.2459 17.1054 58.9933 17.3075 58.6397 17.4085C58.286 17.5096 57.7303 17.5601 56.9726 17.5601H55.2549L55.8106 14.9836H57.5788C58.185 14.9836 58.5892 14.9836 58.7407 15.0342C59.0438 15.0847 59.2459 15.2362 59.3975 15.3878C59.549 15.5394 59.6501 15.7919 59.6501 16.0445C59.6501 16.3477 59.549 16.6002 59.3975 16.8528ZM82.7877 14.9836L83.1918 13.165H75.1088L72.8355 24.077H81.3226L81.7268 22.2584H75.4119L76.0687 19.3283H81.7268L82.1309 17.5096H76.4728L77.0285 15.0342H82.7877V14.9836ZM93.5987 15.994C93.5987 15.3373 93.4471 14.7816 93.1946 14.3269C92.8914 13.8722 92.5378 13.5691 92.0831 13.367C91.6285 13.2155 90.9717 13.1144 90.1634 13.1144H85.3136L83.0403 24.0265H85.2631L86.223 19.5303H87.1323C87.688 19.5303 88.0416 19.5809 88.2437 19.7324C88.5973 19.985 88.9005 20.4397 89.2036 21.1469C89.7593 22.4604 90.1634 23.4203 90.3655 24.0265H92.7904C92.1842 22.4604 91.6285 21.248 91.1233 20.4397C90.8707 20.0355 90.6181 19.6819 90.315 19.4293C91.4264 19.2777 92.2852 18.9241 92.8409 18.3179C93.3461 17.7117 93.5987 16.9539 93.5987 15.994ZM91.0728 17.0044C90.8707 17.3075 90.5171 17.5601 90.1634 17.6611C89.7593 17.8127 88.951 17.8632 87.789 17.8632H86.5766L87.1828 14.9331H89.6582C90.315 14.9331 90.7696 14.9836 90.9212 15.1352C91.2243 15.3373 91.4264 15.6404 91.4264 16.0445C91.3759 16.3982 91.2748 16.7013 91.0728 17.0044ZM104.006 14.2259C103.147 13.367 102.086 12.9629 100.722 12.9629C99.7115 12.9629 98.8021 13.165 98.0444 13.5691C97.2866 13.9733 96.6298 14.529 96.0741 15.2362C95.5689 15.9435 95.1648 16.7518 94.9122 17.7117C94.7101 18.4189 94.6091 19.1262 94.6091 19.7324C94.6091 20.4397 94.7606 21.0964 95.0638 21.8037C95.3669 22.5109 95.8215 23.0667 96.5288 23.5213C97.2361 23.976 98.0949 24.2286 99.1053 24.2286C100.267 24.2286 101.328 23.9255 102.237 23.3698C103.147 22.7635 103.905 21.9552 104.46 20.8943C105.016 19.8335 105.269 18.722 105.269 17.5601C105.269 16.1456 104.864 15.0342 104.006 14.2259ZM102.49 19.985C102.136 20.7933 101.682 21.3995 101.126 21.8037C100.57 22.2078 99.9641 22.4099 99.3579 22.4099C98.6001 22.4099 98.0444 22.1573 97.5392 21.6521C97.0845 21.1469 96.8824 20.4902 96.8824 19.7829C96.8824 18.5705 97.2361 17.4591 97.8928 16.3982C98.6001 15.3878 99.4589 14.8826 100.57 14.8826C101.278 14.8826 101.884 15.1352 102.338 15.5899C102.793 16.0951 103.046 16.7518 103.046 17.6106C103.046 18.3684 102.844 19.1262 102.49 19.985ZM114.716 13.165L113.2 20.4397L110.27 13.165H108.148L105.875 24.077H107.946L109.462 16.7518L112.392 24.077H114.463L116.736 13.165H114.716ZM41.6148 32.9683L42.5242 28.6742H41.4633L40.3519 33.8777H44.0397L44.2418 33.0189H41.6148V32.9683ZM49.5463 29.1289C49.1421 28.7248 48.637 28.5227 47.9802 28.5227C47.5255 28.5227 47.0709 28.6237 46.7172 28.8258C46.3636 29.0279 46.01 29.2805 45.8079 29.6341C45.5553 29.9877 45.4037 30.3414 45.2522 30.796C45.1512 31.1497 45.1006 31.4528 45.1006 31.7559C45.1006 32.1095 45.1512 32.4126 45.3027 32.7663C45.4543 33.0694 45.6563 33.3725 46.01 33.5746C46.3131 33.7766 46.7172 33.9282 47.2224 33.9282C47.7781 33.9282 48.2833 33.7766 48.738 33.524C49.1927 33.2715 49.5463 32.8673 49.7989 32.3621C50.0515 31.8569 50.203 31.3012 50.203 30.796C50.1525 30.0888 49.9504 29.5331 49.5463 29.1289ZM48.7885 31.9074C48.637 32.3116 48.3844 32.5642 48.1318 32.7663C47.8792 32.9683 47.5761 33.0694 47.3235 33.0694C46.9698 33.0694 46.6667 32.9683 46.4646 32.7157C46.2626 32.4632 46.1615 32.16 46.1615 31.8064C46.1615 31.2002 46.3131 30.695 46.6667 30.1898C46.9698 29.6846 47.4245 29.4825 47.9297 29.4825C48.2833 29.4825 48.5359 29.5836 48.7885 29.8362C48.9906 30.0888 49.1421 30.3919 49.1421 30.796C49.0916 31.0991 48.9906 31.5033 48.7885 31.9074ZM53.0826 31.9074H54.4466L54.2951 32.6652C54.1435 32.7663 53.8909 32.8168 53.6888 32.9178C53.4362 32.9683 53.2342 33.0189 52.9816 33.0189C52.5774 33.0189 52.3248 32.9178 52.1228 32.7157C51.9207 32.5137 51.8196 32.16 51.8196 31.7559C51.8196 31.3012 51.9207 30.8971 52.0722 30.5434C52.2238 30.1898 52.4764 29.8867 52.729 29.7351C53.0321 29.5331 53.3352 29.4825 53.6888 29.4825C53.9919 29.4825 54.2445 29.5331 54.4466 29.6846C54.6487 29.8362 54.8002 30.0383 54.8508 30.3414L55.8611 30.2403C55.7601 29.7351 55.5075 29.331 55.1539 29.0279C54.8002 28.7753 54.2951 28.6237 53.6888 28.6237C53.0826 28.6237 52.5774 28.7753 52.1228 29.0784C51.6681 29.3815 51.3145 29.8362 51.1124 30.3919C50.9103 30.8466 50.8093 31.3517 50.8093 31.8569C50.8093 32.6147 51.0619 33.1704 51.5165 33.5746C51.8702 33.8777 52.3248 34.0292 52.9816 34.0292C53.3857 34.0292 53.7899 33.9787 54.194 33.8272C54.5982 33.7261 54.9518 33.5746 55.2044 33.3725L55.6591 31.1497H53.3352L53.0826 31.9074ZM57.0231 28.6237L55.9622 33.8272H57.0231L58.084 28.6237H57.0231ZM57.3262 27.2597L57.1241 28.1691H58.1345L58.3366 27.2597H57.3262ZM60.7615 30.7455C60.3573 30.594 60.1047 30.4424 60.0037 30.3414C59.9026 30.2403 59.8521 30.1393 59.8521 29.9877C59.8521 29.8362 59.9027 29.6846 60.0542 29.5836C60.2058 29.4825 60.4078 29.432 60.711 29.432C61.0141 29.432 61.2161 29.4825 61.3677 29.6341C61.5193 29.7857 61.6203 29.9372 61.6203 30.1898L62.6307 30.1393C62.5801 29.6846 62.4286 29.2805 62.075 28.9774C61.7213 28.6742 61.2667 28.5732 60.6604 28.5732C60.0542 28.5732 59.5995 28.7248 59.2964 28.9774C58.9933 29.2805 58.8418 29.6341 58.8418 30.0888C58.8418 30.3414 58.8923 30.5434 58.9933 30.7455C59.0943 30.9476 59.2459 31.0991 59.448 31.2002C59.6501 31.3012 59.9027 31.4528 60.3068 31.6549C60.711 31.8064 60.9635 31.958 61.0646 32.059C61.2161 32.16 61.2667 32.3116 61.2667 32.4632C61.2667 32.6652 61.1656 32.8168 61.0141 32.9178C60.8625 33.0694 60.6099 33.1199 60.2563 33.1199C59.8521 33.1199 59.549 33.0189 59.3975 32.8673C59.2964 32.7663 59.2459 32.5137 59.2459 32.2106L58.2355 32.2611C58.2355 32.6147 58.286 32.9178 58.4376 33.1704C58.5892 33.423 58.7912 33.6251 59.1449 33.7766C59.4985 33.9282 59.8521 33.9787 60.3068 33.9787C60.9635 33.9787 61.4687 33.8272 61.8224 33.4735C62.176 33.1704 62.3781 32.7663 62.3781 32.3116C62.3781 31.958 62.277 31.6549 62.0244 31.4023C61.7213 31.2002 61.3677 30.9981 60.7615 30.7455ZM63.5905 28.6237L63.439 29.4825H64.9545L64.0452 33.7766H65.1061L66.0154 29.4825H67.531L67.6825 28.6237H63.5905ZM68.2888 28.6237L67.2279 33.8272H68.2888L69.4002 28.6237H68.2888ZM68.5919 27.2597L68.3898 28.1691H69.4002L69.6023 27.2597H68.5919ZM74.7552 28.6237H73.3407L70.9663 30.8466L71.4209 28.6237H70.36L69.2486 33.8272H70.3095L70.6632 32.2611L71.6735 31.3517L72.9365 33.8272H74.0984L74.149 33.7766L72.4818 30.695L74.7552 28.6237ZM78.241 28.6237H77.0285L74.149 33.7766L74.1995 33.8272H75.2604L75.8666 32.6652H77.9379L78.0894 33.8272H79.0998L78.241 28.6237ZM76.3213 31.8064L77.4832 29.7351L77.7863 31.8064H76.3213ZM85.8188 28.6237L84.2022 32.16L84.0506 28.6237H82.5351L81.4742 33.8272H82.434L83.2423 29.4825L83.4444 33.8272H84.4548L86.3745 29.5331L85.4652 33.8272H86.425L87.3849 28.6237H85.8188ZM92.0831 29.1794C91.679 28.7753 91.1738 28.5732 90.4665 28.5732C89.9614 28.5732 89.5067 28.7248 89.1025 28.9774C88.6479 29.2805 88.3953 29.6341 88.2942 30.0888L89.3046 30.2908C89.3551 30.0383 89.5067 29.8362 89.7088 29.6846C89.9108 29.5331 90.1634 29.4825 90.416 29.4825C90.7696 29.4825 91.0728 29.6341 91.2748 29.8867C91.4769 30.1393 91.5274 30.4424 91.5274 30.8466H87.8901C87.8396 31.0991 87.789 31.4023 87.789 31.7559C87.789 32.4632 87.9406 32.9683 88.3447 33.3725C88.6984 33.7766 89.2036 33.9787 89.8098 33.9787C90.6686 33.9787 91.3759 33.6756 91.8811 33.0694C92.3863 32.4632 92.6388 31.7559 92.6388 30.8971C92.6388 30.0888 92.4368 29.5836 92.0831 29.1794ZM90.8707 32.6147C90.6181 32.9178 90.2645 33.0189 89.9108 33.0189C89.6077 33.0189 89.3551 32.9178 89.153 32.7157C88.951 32.4632 88.8499 32.16 88.8499 31.7054H91.4264C91.3254 32.059 91.1233 32.3621 90.8707 32.6147ZM97.9433 29.9877C97.9433 29.6846 97.8928 29.432 97.7412 29.1794C97.5897 28.9268 97.4381 28.8258 97.2361 28.7248C97.034 28.6237 96.6804 28.5732 96.3267 28.5732H94.0029L92.942 33.7766H94.0029L94.4575 31.6549H94.9122C95.1648 31.6549 95.3669 31.7054 95.4679 31.7559C95.6195 31.8569 95.771 32.1095 95.9226 32.4126C96.1752 33.0189 96.3772 33.4735 96.4783 33.7766H97.6402C97.3371 33.0189 97.0845 32.4632 96.8319 32.059C96.7309 31.8569 96.5793 31.7054 96.4278 31.5538C96.9835 31.5033 97.3876 31.3012 97.6402 30.9981C97.7918 30.796 97.9433 30.4424 97.9433 29.9877ZM96.7309 30.4929C96.6298 30.6445 96.4783 30.7455 96.2762 30.796C96.0741 30.8466 95.7205 30.8971 95.1143 30.8971H94.5586L94.8617 29.4825H96.0236C96.3267 29.4825 96.5288 29.5331 96.6298 29.5836C96.7814 29.6846 96.8824 29.8362 96.8824 29.9877C96.8824 30.1898 96.8319 30.3414 96.7309 30.4929ZM103.601 28.6237H102.187L99.8125 30.8466L100.267 28.6237H99.2063L98.0949 33.8272H99.1558L99.4589 32.2611L100.469 31.3517L101.732 33.8272H102.945L101.227 30.695L103.601 28.6237ZM107.946 29.1794C107.542 28.7753 107.037 28.5732 106.329 28.5732C105.824 28.5732 105.37 28.7248 104.965 28.9774C104.511 29.2805 104.258 29.6341 104.157 30.0888L105.168 30.2908C105.218 30.0383 105.37 29.8362 105.572 29.6846C105.774 29.5331 106.026 29.4825 106.279 29.4825C106.633 29.4825 106.936 29.6341 107.138 29.8867C107.289 30.1393 107.39 30.4424 107.39 30.8466H103.753C103.702 31.0991 103.652 31.4023 103.652 31.7559C103.652 32.4632 103.854 32.9683 104.208 33.3725C104.561 33.7766 105.066 33.9787 105.673 33.9787C106.532 33.9787 107.239 33.6756 107.744 33.0694C108.249 32.4632 108.502 31.7559 108.502 30.8971C108.451 30.0888 108.3 29.5836 107.946 29.1794ZM106.734 32.6147C106.43 32.9178 106.127 33.0189 105.774 33.0189C105.471 33.0189 105.168 32.9178 105.016 32.7157C104.814 32.4632 104.713 32.16 104.713 31.7054H107.289C107.138 32.059 106.986 32.3621 106.734 32.6147ZM113.251 28.6237H109.512L109.31 29.4825H111.735L108.754 32.9683L108.603 33.7766H112.594L112.796 32.9178H111.583C111.179 32.9178 110.876 32.9178 110.624 32.9178C110.573 32.9178 110.371 32.9178 110.068 32.9178L113.099 29.3815L113.251 28.6237ZM114.16 28.6237L113.099 33.8272H114.16L115.221 28.6237H114.16ZM114.463 27.2597L114.261 28.1691H115.271L115.473 27.2597H114.463Z" fill="#151717"/>
<path fill-rule="evenodd" clip-rule="evenodd" d="M70.8155 18.8228C71.3207 19.328 71.5733 19.9342 71.5733 20.7425C71.5733 21.7024 71.1691 22.5107 70.4114 23.2179C69.6536 23.9252 68.5927 24.2283 67.2287 24.2283H67.1276C67.2287 24.2788 67.2792 24.3294 67.3802 24.3799C67.6833 24.6325 67.7844 24.8851 67.7844 25.2387C67.7844 25.6429 67.5823 25.9965 67.1276 26.2996C66.5214 26.7543 65.6626 26.9563 64.5512 26.9563C64.2481 26.9563 63.9955 26.9563 63.8439 26.9058L64.1975 26.047H64.6017C65.0058 26.047 65.41 25.9965 65.8141 25.8954C66.0667 25.7944 66.2183 25.7439 66.3193 25.6429C66.4204 25.5418 66.4709 25.4408 66.4709 25.3397C66.4709 25.1882 66.4204 25.0871 66.2688 24.9861C66.1173 24.8851 65.9152 24.8346 65.6121 24.8346C65.4605 24.8346 65.2079 24.8346 64.9553 24.8851L65.2079 24.1273C65.41 24.0768 65.5615 24.0262 65.7131 24.0262C65.41 23.9757 65.1069 23.8242 64.8038 23.7231C64.0965 23.42 63.6418 22.9654 63.3387 22.4096C63.0356 21.8539 62.9346 21.1972 62.9346 20.4899L65.0564 20.3889C65.1069 21.0456 65.2079 21.5003 65.41 21.7529C65.7131 22.1571 66.3193 22.3086 67.2287 22.3086C67.9865 22.3086 68.4916 22.1571 68.8453 21.9045C69.1484 21.6519 69.3505 21.2982 69.3505 20.9446C69.3505 20.6415 69.1989 20.3384 68.9463 20.1363C68.7442 19.9847 68.239 19.6816 67.3802 19.328C66.5214 18.9744 65.9152 18.6713 65.511 18.4187C65.1069 18.1661 64.8038 17.863 64.6017 17.4588C64.3996 17.0547 64.2481 16.6 64.2481 16.0948C64.2481 15.1855 64.6017 14.4277 65.2584 13.8214C65.9152 13.2152 66.875 12.9121 68.138 12.9121C69.401 12.9121 70.4114 13.2152 71.1186 13.8214C71.8259 14.4277 72.23 15.236 72.2806 16.1958L70.1082 16.2969C70.0577 15.7917 69.8557 15.3875 69.5525 15.0844C69.2494 14.8318 68.7442 14.6803 68.138 14.6803C67.5318 14.6803 67.0771 14.7813 66.8245 15.0339C66.5719 15.236 66.4204 15.5391 66.4204 15.8422C66.4204 16.1453 66.5214 16.3979 66.774 16.6C67.0266 16.8021 67.5823 17.1052 68.3906 17.4588C69.7041 18.065 70.5124 18.5197 70.8155 18.8228Z" fill="#151717"/>
<path d="M113.957 45.6442L115.026 40.5381H116.075L115.009 45.6442H113.957Z" fill="white"/>
<path d="M109.67 45.6442L110.739 40.5381H111.788L110.899 44.7909H113.498L113.32 45.6442H109.67Z" fill="white"/>
<path d="M107.831 44.5157H105.807L105.194 45.6442H104.114L107.002 40.5381H108.169L108.997 45.6442H108.001L107.831 44.5157ZM107.702 43.6659L107.406 41.6109L106.173 43.6659H107.702Z" fill="white"/>
<path d="M102.879 45.6442H101.827L102.718 41.3914H101.221L101.398 40.5381H105.421L105.244 41.3914H103.767L102.879 45.6442Z" fill="white"/>
<path d="M96.7062 45.6442H95.6543L96.7236 40.5381H98.991C99.3811 40.5381 99.6842 40.5787 99.9001 40.66C100.118 40.7389 100.294 40.8852 100.426 41.0989C100.561 41.3125 100.628 41.5714 100.628 41.8756C100.628 42.3098 100.498 42.6685 100.238 42.9518C99.9779 43.2328 99.5843 43.407 99.0572 43.4743C99.1919 43.595 99.3185 43.7541 99.4369 43.9515C99.6714 44.3509 99.9326 44.9151 100.221 45.6442H99.0921C99.0015 45.3563 98.8239 44.907 98.5592 44.2963C98.4152 43.9666 98.2619 43.7448 98.0994 43.631C97.9995 43.5637 97.8254 43.53 97.5769 43.53H97.1485L96.7062 45.6442ZM97.3087 42.7637H97.866C98.4303 42.7637 98.8041 42.7301 98.9876 42.6627C99.1733 42.5954 99.3185 42.4897 99.4229 42.3458C99.5274 42.2018 99.5797 42.0509 99.5797 41.893C99.5797 41.7072 99.5042 41.5679 99.3533 41.475C99.2604 41.4193 99.0596 41.3914 98.7507 41.3914H97.5944L97.3087 42.7637Z" fill="white"/>
<path d="M90.4121 43.6407C90.4121 43.3388 90.4574 43.0207 90.5479 42.6863C90.6664 42.2382 90.8463 41.8492 91.0878 41.5195C91.3316 41.1898 91.6381 40.9297 92.0073 40.7393C92.3765 40.5466 92.7968 40.4502 93.2682 40.4502C93.8998 40.4502 94.4095 40.6464 94.7973 41.0388C95.1874 41.4313 95.3824 41.9514 95.3824 42.5992C95.3824 43.1379 95.2559 43.6592 95.0028 44.1631C94.7497 44.667 94.406 45.0548 93.9718 45.3265C93.5376 45.5981 93.0465 45.734 92.4985 45.734C92.0224 45.734 91.623 45.626 91.3003 45.41C90.9775 45.1941 90.7488 44.9271 90.6141 44.6089C90.4794 44.2885 90.4121 43.9657 90.4121 43.6407ZM91.4501 43.6198C91.4501 43.9704 91.5569 44.2641 91.7705 44.501C91.9841 44.7378 92.2651 44.8562 92.6134 44.8562C92.8967 44.8562 93.1684 44.7634 93.4284 44.5776C93.6908 44.3895 93.9068 44.1062 94.0763 43.7277C94.2481 43.3469 94.334 42.9766 94.334 42.6166C94.334 42.2149 94.226 41.9003 94.0101 41.6727C93.7941 41.4429 93.519 41.3279 93.1846 41.3279C92.6714 41.3279 92.2535 41.5671 91.9307 42.0454C91.6103 42.5238 91.4501 43.0485 91.4501 43.6198Z" fill="white"/>
<path d="M86.3712 45.6442H85.3193L86.3886 40.5381H88.4645C88.8337 40.5381 89.1251 40.5822 89.3388 40.6704C89.5547 40.7564 89.7254 40.9003 89.8508 41.1023C89.9762 41.302 90.0389 41.5412 90.0389 41.8198C90.0389 42.0776 89.9889 42.3284 89.8891 42.5722C89.7892 42.816 89.6662 43.011 89.5199 43.1573C89.3759 43.3036 89.2203 43.4151 89.0532 43.4917C88.886 43.566 88.6607 43.6229 88.3774 43.6624C88.2126 43.6856 87.9038 43.6972 87.451 43.6972H86.7787L86.3712 45.6442ZM86.9529 42.8508H87.2768C87.8318 42.8508 88.2021 42.816 88.3879 42.7463C88.5737 42.6767 88.7199 42.5652 88.8268 42.412C88.9336 42.2587 88.987 42.0904 88.987 41.9069C88.987 41.7839 88.9591 41.6828 88.9034 41.6039C88.85 41.5249 88.7734 41.4681 88.6735 41.4332C88.576 41.3961 88.3565 41.3775 88.0152 41.3775H87.2629L86.9529 42.8508Z" fill="white"/>
<path d="M81.7906 44.5157H79.767L79.154 45.6442H78.0742L80.9617 40.5381H82.1285L82.9574 45.6442H81.9613L81.7906 44.5157ZM81.6618 43.6659L81.3657 41.6109L80.1327 43.6659H81.6618Z" fill="white"/>
<path d="M74.3654 45.6442H73.3135L74.3828 40.5381H76.6502C77.0403 40.5381 77.3434 40.5787 77.5593 40.66C77.7776 40.7389 77.9529 40.8852 78.0852 41.0989C78.2199 41.3125 78.2873 41.5714 78.2873 41.8756C78.2873 42.3098 78.1572 42.6685 77.8972 42.9518C77.6371 43.2328 77.2435 43.407 76.7164 43.4743C76.8511 43.595 76.9776 43.7541 77.0961 43.9515C77.3306 44.3509 77.5918 44.9151 77.8797 45.6442H76.7512C76.6607 45.3563 76.483 44.907 76.2183 44.2963C76.0744 43.9666 75.9211 43.7448 75.7586 43.631C75.6587 43.5637 75.4846 43.53 75.2361 43.53H74.8077L74.3654 45.6442ZM74.9679 42.7637H75.5252C76.0895 42.7637 76.4633 42.7301 76.6467 42.6627C76.8325 42.5954 76.9776 42.4897 77.0821 42.3458C77.1866 42.2018 77.2389 42.0509 77.2389 41.893C77.2389 41.7072 77.1634 41.5679 77.0125 41.475C76.9196 41.4193 76.7187 41.3914 76.4099 41.3914H75.2535L74.9679 42.7637Z" fill="white"/>
<path d="M68.5361 45.6442L69.6019 40.5381H73.388L73.2104 41.3914H70.4762L70.2324 42.5513H72.876L72.6984 43.4046H70.0547L69.7343 44.7909H72.7053L72.5242 45.6442H68.5361Z" fill="white"/>
<path d="M66.3438 45.6442H65.2954L65.7099 43.6554L64.3027 40.5381H65.4208L66.0547 41.9801C66.2056 42.326 66.3066 42.5757 66.3577 42.7289C66.4436 42.578 66.5435 42.4178 66.6573 42.2483L67.1414 41.5725L67.8624 40.5381H69.0815L66.7409 43.7529L66.3438 45.6442Z" fill="white"/>
<path d="M59.8263 45.6442H58.7744L59.8437 40.5381H62.1112C62.5013 40.5381 62.8043 40.5787 63.0202 40.66C63.2385 40.7389 63.4138 40.8852 63.5462 41.0989C63.6809 41.3125 63.7482 41.5714 63.7482 41.8756C63.7482 42.3098 63.6182 42.6685 63.3581 42.9518C63.098 43.2328 62.7044 43.407 62.1773 43.4743C62.312 43.595 62.4386 43.7541 62.557 43.9515C62.7915 44.3509 63.0527 44.9151 63.3407 45.6442H62.2122C62.1216 45.3563 61.944 44.907 61.6793 44.2963C61.5353 43.9666 61.3821 43.7448 61.2195 43.631C61.1197 43.5637 60.9455 43.53 60.6971 43.53H60.2686L59.8263 45.6442ZM60.4289 42.7637H60.9861C61.5504 42.7637 61.9242 42.7301 62.1077 42.6627C62.2934 42.5954 62.4386 42.4897 62.5431 42.3458C62.6476 42.2018 62.6998 42.0509 62.6998 41.893C62.6998 41.7072 62.6243 41.5679 62.4734 41.475C62.3805 41.4193 62.1797 41.3914 61.8708 41.3914H60.7145L60.4289 42.7637Z" fill="white"/>
<path d="M56.9449 44.5157H54.9213L54.3083 45.6442H53.2285L56.116 40.5381H57.2828L58.1117 45.6442H57.1156L56.9449 44.5157ZM56.816 43.6659L56.52 41.6109L55.287 43.6659H56.816Z" fill="white"/>
<path d="M48.4346 45.6442L49.5004 40.5381H50.5523L50.0995 42.708L52.461 40.5381H53.8681L51.5763 42.5408L53.2586 45.6442H52.0709L50.81 43.2131L49.8173 44.0803L49.4899 45.6442H48.4346Z" fill="white"/>
<path fill-rule="evenodd" clip-rule="evenodd" d="M24.1362 27.4619C24.0848 27.5133 24.0848 27.4619 24.1362 27.4619C24.0848 27.5133 24.0848 27.5133 24.1362 27.4619Z" fill="#151717"/>
<path fill-rule="evenodd" clip-rule="evenodd" d="M23.8818 25.1889C23.9332 25.1889 23.9332 25.1889 23.8818 25.1889C23.9332 25.1375 23.8818 25.1375 23.8818 25.1889C23.8818 25.1375 23.8818 25.1375 23.8818 25.1889Z" fill="#151717"/>
<path fill-rule="evenodd" clip-rule="evenodd" d="M30.7025 30.1912C30.652 30.1912 30.652 30.1407 30.6015 30.1407L30.551 30.0902V30.0396L30.5004 29.9891C30.4499 29.9891 30.4499 29.9891 30.4499 29.9386V29.8881C30.4499 29.8376 30.5004 29.7365 30.5004 29.686C30.5004 29.7365 30.551 29.7365 30.551 29.7365C30.551 29.7365 30.551 29.7365 30.6015 29.7365C30.652 29.7365 30.652 29.787 30.7025 29.8376L30.753 29.8881C30.753 29.9386 30.7025 30.0396 30.7025 30.1912ZM25.4991 29.686C25.5496 29.686 25.5496 29.686 25.4991 29.686C25.5496 29.7365 25.5496 29.7365 25.4991 29.686ZM22.6195 30.0396C22.6195 30.0902 22.6195 30.0902 22.6195 30.0396ZM24.8928 31.151C24.8928 31.1005 24.8928 31.05 24.8928 30.9995C24.8928 31.05 24.8928 31.05 24.8928 31.1005C24.8928 31.151 24.8928 31.151 24.9434 31.2016V31.2521V31.3026C24.9434 31.3026 24.9434 31.3026 24.9434 31.3531V31.3026C24.9434 31.3026 24.9434 31.2521 24.8928 31.2521C24.9434 31.2521 24.9434 31.2521 24.8928 31.151C24.8928 31.2016 24.8928 31.2016 24.8928 31.151ZM25.1454 28.3725C25.1454 28.322 25.1454 28.322 25.1454 28.3725ZM25.297 31.7573C25.297 31.8078 25.297 31.8078 25.297 31.7573C25.2465 31.7068 25.2465 31.7068 25.2465 31.6562V31.6057C25.2465 31.5552 25.2465 31.5552 25.2465 31.5047V31.4542C25.2465 31.4542 25.2465 31.4542 25.2465 31.5047V31.5552C25.2465 31.6057 25.2465 31.6057 25.2465 31.6057V31.6562C25.297 31.7573 25.297 31.7573 25.297 31.7573ZM25.196 30.6459C25.2465 30.6459 25.2465 30.6459 25.2465 30.6964C25.2465 30.7469 25.196 30.7469 25.196 30.7974C25.196 30.7974 25.196 30.7974 25.196 30.8479C25.196 30.8479 25.196 30.8479 25.1454 30.8479H25.0949C25.0949 30.7974 25.0949 30.7974 25.0949 30.7469C25.0949 30.7469 25.0949 30.7469 25.0949 30.6964C25.1454 30.6964 25.196 30.6459 25.196 30.6459ZM24.4382 25.3919C24.4382 25.3414 24.4382 25.3414 24.4382 25.3919ZM23.4783 25.3414C23.4783 25.3919 23.4783 25.3919 23.4278 25.3919H23.3773C23.4278 25.3919 23.4278 25.3414 23.4783 25.3414C23.4783 25.2909 23.4783 25.2909 23.4783 25.3414ZM23.5794 25.3919C23.5288 25.4424 23.5288 25.4424 23.5794 25.3919C23.5288 25.3919 23.5288 25.3919 23.5794 25.3919ZM24.2866 23.9269C24.2866 23.9774 24.2866 23.9774 24.2866 23.9269ZM24.4382 24.9878C24.4382 25.0383 24.4382 25.0383 24.4382 25.0383C24.4382 25.0383 24.4382 25.0383 24.3877 25.0383C24.4382 25.0383 24.4382 24.9878 24.4382 24.9878ZM24.5392 24.7857C24.4887 24.7857 24.4887 24.7857 24.5392 24.7857ZM25.196 25.3414C25.196 25.3919 25.196 25.3919 25.196 25.3414C25.1454 25.3414 25.1454 25.3414 25.196 25.3414ZM24.8928 24.9878C24.8423 24.9372 24.8423 24.9372 24.8423 24.8867H24.8928C24.8928 24.9372 24.9434 24.9372 24.9434 24.9878C24.9434 24.9878 24.9434 24.9878 24.9434 25.0383C24.9434 25.0383 24.9434 25.0383 24.9434 25.0888C24.9434 24.9878 24.9434 24.9878 24.8928 24.9878ZM24.8423 24.6846C24.8423 24.7352 24.8423 24.7352 24.8423 24.6846ZM24.6403 27.1095C24.6403 27.059 24.6403 27.059 24.6403 27.059V27.0085L24.6908 26.958V26.9075C24.6908 26.9075 24.6908 26.9075 24.6908 26.8569L24.7413 26.8064C24.7413 26.8064 24.7413 26.8064 24.7413 26.7559C24.7413 26.7054 24.7918 26.7054 24.7918 26.6549H24.8423C24.8928 26.7054 24.8928 26.7054 24.9434 26.7054C24.9434 26.7054 24.9434 26.7054 24.8928 26.7559C24.8928 26.7559 24.9434 26.7559 24.9434 26.8064C24.9434 26.8569 24.9939 26.8569 24.9939 26.8569C24.9939 26.8569 24.9939 26.8569 25.0444 26.8569C25.0444 26.8569 25.0949 26.8569 25.0949 26.8064H25.1454C25.1454 26.8064 25.1454 26.8064 25.1454 26.7559C25.0949 26.7559 25.0949 26.7559 25.0444 26.7054C25.0949 26.6549 25.0949 26.6549 25.1454 26.6549C25.1454 26.6549 25.196 26.6549 25.196 26.6044C25.2465 26.5538 25.2465 26.5538 25.297 26.5538L25.2465 26.6044C25.2465 26.6044 25.2465 26.6044 25.2465 26.6549C25.2465 26.6549 25.2465 26.6549 25.2465 26.7054C25.2465 26.7559 25.196 26.7559 25.196 26.7559L25.2465 26.8064C25.297 26.8064 25.3475 26.8569 25.3475 26.8569C25.398 26.9075 25.4486 26.9075 25.4991 26.958C25.5496 26.958 25.5496 27.0085 25.5496 27.059V27.1095C25.5496 27.1095 25.5496 27.1095 25.4991 27.1095H25.4486C25.398 27.1095 25.398 27.1095 25.3475 27.1095H25.297C25.2465 27.1095 25.2465 27.1095 25.196 27.059C25.1454 27.059 25.1454 27.059 25.0949 27.059C25.0444 27.059 24.9434 27.059 24.8928 27.059L24.8423 27.1095H24.7918C24.7413 27.1095 24.7413 27.1095 24.6908 27.1095C24.6908 27.1601 24.6908 27.1601 24.6403 27.1095ZM24.6403 27.2106C24.6908 27.2106 24.6908 27.2106 24.7413 27.2106C24.7413 27.2106 24.7413 27.2106 24.7413 27.2611C24.6908 27.2611 24.6908 27.2611 24.6403 27.2106C24.6908 27.2611 24.6403 27.2611 24.6403 27.2106C24.6403 27.2611 24.6403 27.2611 24.6403 27.2106ZM24.6403 24.9878C24.6908 24.9878 24.6908 25.0383 24.7413 25.0383C24.7918 25.0888 24.7918 25.1393 24.7413 25.1393C24.7413 25.1393 24.7413 25.1393 24.6908 25.1393C24.6403 25.0888 24.6403 25.0888 24.6403 25.0383C24.5897 24.9878 24.5897 24.9878 24.6403 24.9878ZM26.3074 27.2106C26.2569 27.2106 26.2569 27.1601 26.2063 27.1601C26.2063 27.1095 26.1558 27.1095 26.1558 27.059C26.1053 27.0085 26.1053 27.0085 26.0548 26.958C26.0548 26.9075 26.0043 26.8569 26.0043 26.8569V26.8064V26.7559C26.0043 26.7559 26.0043 26.7054 26.0548 26.7054C26.1053 26.7054 26.1053 26.6549 26.1558 26.6549C26.2063 26.6549 26.2063 26.6044 26.2569 26.6044C26.2569 26.6044 26.2569 26.6044 26.3074 26.6044C26.3579 26.6044 26.3579 26.6044 26.4084 26.6044H26.4589V26.6549V26.7054H26.4084C26.3579 26.7054 26.3579 26.7054 26.3579 26.7559C26.3579 26.7559 26.3579 26.7559 26.3579 26.8064C26.3074 26.8064 26.3074 26.8064 26.3579 26.8569L26.4084 26.9075C26.4084 26.958 26.4589 26.958 26.5094 27.0085C26.5094 27.0085 26.5094 27.0085 26.5094 27.059C26.5094 27.1095 26.5094 27.1095 26.5094 27.1601C26.5094 27.2106 26.56 27.2106 26.5094 27.2611C26.5094 27.2611 26.5094 27.2611 26.5094 27.3116C26.5094 27.3116 26.5094 27.3621 26.56 27.3621C26.56 27.3621 26.56 27.3621 26.6105 27.3621C26.6105 27.3621 26.6105 27.3621 26.6105 27.4127L26.661 27.4632C26.661 27.5137 26.661 27.5642 26.7115 27.6147C26.661 27.6147 26.6105 27.6147 26.6105 27.6147C26.6105 27.6147 26.6105 27.6147 26.56 27.6147C26.5094 27.6147 26.4589 27.6147 26.4589 27.5642H26.4084C26.4084 27.5642 26.4084 27.5642 26.3579 27.5642C26.3579 27.5137 26.3074 27.4632 26.3579 27.4127V27.3621C26.3074 27.2611 26.3074 27.2611 26.3074 27.2106C26.3579 27.2106 26.3579 27.2106 26.3074 27.2106ZM27.0652 26.7054C27.0652 26.7559 27.0652 26.7559 27.0652 26.7559L27.0146 26.8064H26.9641C26.9641 26.8064 26.9641 26.8064 26.9641 26.7559C26.9641 26.7054 27.0146 26.6549 27.0652 26.6549C27.0146 26.6549 27.0146 26.6549 27.0652 26.7054ZM30.652 30.5448C30.6015 30.5448 30.6015 30.4943 30.6015 30.4943C30.6015 30.4943 30.551 30.4943 30.551 30.4438L30.5004 30.3933C30.4499 30.3427 30.3994 30.3427 30.3489 30.2922L30.2984 30.2417C30.2478 30.2417 30.1973 30.2417 30.1973 30.1912C30.1973 30.1912 30.1973 30.1912 30.1468 30.1912C30.1468 30.1912 30.1468 30.1912 30.1468 30.2417V30.2922C30.1468 30.3427 30.1973 30.3427 30.2478 30.3427L30.2984 30.3933L30.3489 30.4438C30.3489 30.4943 30.3994 30.4943 30.3994 30.5448C30.3994 30.5448 30.3994 30.5448 30.3994 30.5953C30.3994 30.5953 30.3994 30.6459 30.4499 30.6459C30.4499 30.6459 30.4499 30.6459 30.4499 30.6964C30.5004 30.7469 30.5004 30.7469 30.5004 30.7974C30.4499 30.9995 30.3489 31.2016 30.2984 31.4036C29.9447 32.2119 29.4901 32.9192 28.8838 33.5254C28.2776 34.1317 27.5703 34.6368 26.762 34.94C26.0043 35.2431 25.1454 35.4451 24.2866 35.4451C23.3773 35.4451 22.569 35.2936 21.7607 34.94C20.9524 34.5863 20.2451 34.1317 19.6389 33.5254C19.3863 33.2728 19.1337 32.9697 18.9316 32.6666C18.9821 32.6161 18.9821 32.6161 19.0327 32.6161C19.0327 32.6161 19.0832 32.6161 19.0832 32.5656C19.0832 32.5656 19.1337 32.5656 19.1337 32.5151H19.1842H19.2347C19.2853 32.5151 19.2853 32.5151 19.3358 32.4645C19.3358 32.4645 19.3863 32.4645 19.3863 32.414C19.3863 32.414 19.3863 32.414 19.3863 32.3635V32.313C19.3863 32.2625 19.4368 32.2625 19.4368 32.2119C19.4368 32.2119 19.4873 32.1614 19.4368 32.1109V32.0604C19.4873 32.0099 19.4873 31.9593 19.4873 31.9593C19.4873 31.9088 19.4873 31.8583 19.4873 31.8078C19.4873 31.7573 19.4873 31.7573 19.4873 31.7068V31.6562C19.5378 31.6562 19.5378 31.6057 19.5884 31.5552C19.5884 31.5552 19.5884 31.5552 19.5884 31.5047C19.5884 31.4542 19.6389 31.4542 19.6389 31.4542C19.6894 31.4542 19.6894 31.4036 19.6894 31.4036C19.6894 31.3531 19.7399 31.3531 19.7399 31.3026C19.7399 31.2521 19.7399 31.2016 19.7399 31.151C19.7399 31.1005 19.6894 31.05 19.6894 31.05H19.6389C19.5884 31.05 19.5884 31.05 19.5884 31.05C19.5884 31.05 19.5378 30.9995 19.4873 30.9995C19.4368 30.949 19.3863 30.949 19.3863 30.8985H19.3358C19.2347 30.8985 19.1842 30.8985 19.1337 30.8479C19.1337 30.8479 19.1337 30.8479 19.0832 30.8479C19.0832 30.8479 19.0832 30.8479 19.0327 30.8479V30.7974C19.0327 30.7974 19.0327 30.7974 18.9821 30.7974C18.9316 30.7974 18.8811 30.7469 18.8811 30.7469C18.8306 30.7469 18.8306 30.7469 18.7801 30.7469C18.7295 30.7469 18.7295 30.7469 18.7295 30.7974C18.7295 30.7469 18.7295 30.7469 18.7295 30.7469H18.679C18.6285 30.7469 18.6285 30.7469 18.6285 30.7469C18.6285 30.7469 18.6285 30.7469 18.578 30.7469L18.6285 30.6964V30.6459V30.5953C18.6285 30.5953 18.6285 30.5448 18.578 30.5448C18.5275 30.4943 18.5275 30.4943 18.5275 30.4438C18.5275 30.4438 18.5275 30.3933 18.477 30.3933C18.4264 30.3427 18.3759 30.2922 18.2749 30.2922C18.2749 30.2922 18.2749 30.2922 18.2244 30.2922C18.1738 30.2922 18.1738 30.2922 18.1233 30.2922C18.0728 30.2922 18.0728 30.2922 18.0223 30.2922C18.0223 30.2922 18.0223 30.2922 17.9718 30.2922C17.9212 30.2922 17.9212 30.2417 17.8707 30.2417V30.1912L17.8202 30.1407C17.8202 30.1407 17.7697 30.1407 17.7697 30.0902H17.7192V29.9891V29.9386C17.6687 29.6355 17.6687 29.3324 17.6687 29.0293C17.6687 28.221 17.8202 27.4632 18.0728 26.8064C18.0728 26.8064 18.0728 26.8064 18.1233 26.8064C18.1233 26.8064 18.1233 26.8064 18.1233 26.7559C18.1233 26.7559 18.1233 26.7559 18.1233 26.7054C18.1738 26.5538 18.2749 26.3518 18.3254 26.2002C18.3254 26.2002 18.3254 26.2002 18.3759 26.2002H18.4264C18.477 26.2002 18.5275 26.1497 18.5275 26.1497C18.5275 26.1497 18.578 26.0992 18.5275 26.0992V26.0486C18.5275 26.0486 18.5275 26.0486 18.5275 25.9981C18.5275 25.9981 18.5275 25.9981 18.5275 25.9476L18.477 25.8971C18.477 25.8971 18.477 25.8971 18.477 25.8466C18.679 25.4929 18.9316 25.1393 19.1842 24.8362C19.1842 24.8362 19.1842 24.8867 19.2347 24.8867V24.9372C19.2347 24.9372 19.2347 24.9878 19.2853 24.9878C19.3358 24.9878 19.3358 24.9878 19.3358 25.0383H19.3863C19.3863 25.0383 19.3863 25.0383 19.4368 25.0383H19.4873C19.4873 25.0888 19.4873 25.0888 19.5378 25.0888H19.5884H19.6389C19.6389 25.0383 19.6389 24.9878 19.6894 24.9878C19.6894 24.9372 19.6894 24.9372 19.7399 24.8867C19.7399 24.8867 19.7399 24.8362 19.7904 24.8362V24.7857C19.7904 24.7857 19.841 24.7857 19.841 24.7352C19.841 24.6846 19.8915 24.6846 19.8915 24.6341C19.942 24.6341 19.942 24.5836 19.8915 24.5331C19.8915 24.5331 19.8915 24.5331 19.8915 24.4826C19.8915 24.4826 19.8915 24.4826 19.8915 24.432C19.8915 24.432 19.8915 24.432 19.8915 24.3815H19.942C19.942 24.3815 19.942 24.331 19.9925 24.331C20.043 24.331 20.043 24.331 20.0936 24.331C20.1441 24.331 20.1946 24.331 20.2451 24.2805C20.2956 24.2805 20.2956 24.23 20.2956 24.23C20.2956 24.1795 20.3462 24.1795 20.3462 24.1289C20.3462 24.0784 20.3967 24.0784 20.4472 24.0279H20.4977C20.4977 24.0279 20.4977 24.0279 20.5482 24.0279C20.5482 24.0279 20.5482 24.0279 20.5987 24.0279H20.6493C20.6998 24.0279 20.6998 24.0279 20.7503 23.9774C20.8008 23.9774 20.8513 23.9269 20.9019 23.9269C20.9524 23.8763 21.0029 23.8258 21.1039 23.7753C21.0534 23.7753 21.0029 23.7753 21.0029 23.7248C20.9524 23.7248 20.9524 23.7248 20.9019 23.7248H20.9524L21.0029 23.6743V23.6237C21.0029 23.6743 21.0029 23.6743 21.0534 23.7248L21.1039 23.7753C21.1039 23.7753 21.1039 23.7753 21.1545 23.7753C21.205 23.7753 21.205 23.7753 21.205 23.7248C21.205 23.6743 21.205 23.6743 21.205 23.6237C21.205 23.5732 21.1545 23.5732 21.205 23.5227C21.205 23.4722 21.1545 23.4722 21.1545 23.4217C21.1545 23.4217 21.1545 23.4217 21.1039 23.3711V23.3206C21.1039 23.3712 21.1039 23.3711 21.1545 23.4217L21.205 23.4722V23.4217V23.3711V23.3206L21.1545 23.2701H21.1039C21.1039 23.2701 21.1039 23.2701 21.1545 23.3206H21.205H21.2555V23.2701V23.2196C21.205 23.2196 21.205 23.2196 21.205 23.1691C21.2555 23.1691 21.2555 23.2196 21.306 23.1691C21.306 23.1691 21.306 23.1691 21.3565 23.1691C21.407 23.1691 21.407 23.1186 21.407 23.1186C21.5081 23.068 21.6091 23.0175 21.7607 22.967C22.2659 22.7649 22.7711 22.6134 23.2762 22.5628C23.2762 22.5628 23.2762 22.5628 23.2257 22.5628V22.6134C23.2762 22.6639 23.2762 22.7144 23.3268 22.7144C23.3268 22.7649 23.3268 22.7649 23.3773 22.7649H23.4278C23.4278 22.7144 23.4278 22.6639 23.4278 22.6639V22.6134C23.4278 22.6134 23.4278 22.6134 23.4278 22.5628C23.4278 22.5123 23.4278 22.5628 23.4278 22.5123C23.4783 22.5123 23.5288 22.5123 23.5794 22.5123C23.5794 22.5123 23.5794 22.5123 23.5794 22.5628V22.6134H23.6299C23.6299 22.6134 23.6299 22.6134 23.6804 22.6134C23.7309 22.5628 23.7309 22.5628 23.7309 22.5123C23.8825 22.5123 24.034 22.5123 24.1856 22.5123C24.6908 22.5123 25.2465 22.5628 25.7011 22.7144C25.7011 22.7144 25.7011 22.7144 25.7011 22.7649V22.8154V22.866C25.7011 22.866 25.7011 22.866 25.6506 22.9165C25.6506 22.9165 25.6506 22.9165 25.6001 22.9165L25.6506 22.967V23.0175V23.068C25.6506 23.068 25.6506 23.1186 25.6001 23.1186V23.1691C25.6001 23.2196 25.6506 23.2196 25.6001 23.2196C25.6001 23.2701 25.6001 23.2701 25.5496 23.3206V23.3711V23.4217C25.5496 23.4217 25.4991 23.4217 25.4991 23.4722V23.5227C25.4991 23.5227 25.4991 23.5732 25.5496 23.5732C25.5496 23.5732 25.5496 23.5732 25.6001 23.5732C25.6001 23.5732 25.6001 23.5732 25.6506 23.5732H25.7011C25.7011 23.5732 25.7011 23.5732 25.7011 23.6237C25.7011 23.6743 25.7011 23.6743 25.7517 23.6743H25.8022H25.8527H25.9032H25.9537V23.6237C25.9537 23.6237 25.9032 23.6237 25.9032 23.5732C25.8527 23.5227 25.8022 23.4722 25.8022 23.4217C25.8022 23.3711 25.8022 23.3712 25.8022 23.3206C25.8022 23.2701 25.8022 23.2196 25.8022 23.2196V23.1691C25.8022 23.1691 25.8022 23.1691 25.8022 23.1186C25.8022 23.068 25.8022 23.0175 25.8022 22.967C25.8022 22.967 25.8022 22.9165 25.8527 22.9165C25.9032 22.9165 25.9032 22.866 25.9032 22.866C25.9032 22.8154 25.9537 22.8154 25.9537 22.7649C26.2063 22.8154 26.4589 22.9165 26.661 23.0175C26.762 23.068 26.8631 23.1186 27.0146 23.1691C27.0146 23.1691 27.0146 23.1691 27.0146 23.2196C27.0146 23.2196 27.0146 23.2196 27.0652 23.2196C27.0652 23.2196 27.0652 23.2196 27.1157 23.2196C27.1157 23.2196 27.1157 23.2196 27.1157 23.2701C27.1157 23.2701 27.1157 23.2701 27.0652 23.2701H27.0146C27.0146 23.2701 27.0146 23.2701 27.0146 23.3206C27.0146 23.3712 27.0652 23.3711 27.1157 23.3711H27.1662C27.1662 23.3711 27.1662 23.3711 27.2167 23.3711H27.1662C27.1157 23.3711 27.1157 23.3711 27.0652 23.3711H27.0146C27.0146 23.3206 26.9641 23.3206 26.9641 23.2701C26.9641 23.2196 26.9641 23.2196 26.9136 23.1691V23.2196V23.2701V23.3206V23.3711L26.9641 23.4217C26.9641 23.4217 26.9641 23.4217 27.0146 23.4722L27.0652 23.5227C27.0652 23.5732 27.0652 23.5732 27.0652 23.5732C27.0652 23.6237 27.1157 23.6743 27.1157 23.7248C27.1157 23.7248 27.1157 23.7248 27.1662 23.7248C27.2167 23.7248 27.2167 23.7248 27.2167 23.6743C27.2167 23.6237 27.2672 23.6743 27.2672 23.6743C27.2167 23.6743 27.2167 23.7248 27.2167 23.7248C27.2167 23.7248 27.1662 23.7753 27.2167 23.8258C27.2167 23.8258 27.2167 23.8258 27.2672 23.8763V23.9269C27.2672 23.9774 27.2672 23.9774 27.2672 24.0279V24.0784C27.2672 24.1289 27.2167 24.1289 27.2167 24.1795C27.1662 24.1795 27.1157 24.1795 27.1157 24.1795C27.1157 24.1795 27.1157 24.1795 27.1157 24.1289C27.1662 24.1289 27.1662 24.1289 27.1662 24.0784C27.1662 24.0279 27.2167 23.9774 27.2167 23.9269C27.2167 23.9269 27.2167 23.9269 27.2167 23.8763V23.8258V23.7753C27.2167 23.7753 27.1662 23.7753 27.1662 23.7248L27.1157 23.6743C27.0652 23.6237 27.0652 23.5227 27.0652 23.4722C27.0652 23.4217 27.0146 23.3711 27.0146 23.3711L26.9641 23.3206C26.9641 23.2701 26.9641 23.1691 26.9136 23.1186C26.9136 23.1186 26.9136 23.1186 26.9136 23.068C26.8631 23.068 26.8126 23.0175 26.762 23.068H26.7115V23.1186C26.7115 23.1691 26.7115 23.2196 26.7115 23.2701C26.7115 23.3206 26.7115 23.3206 26.7115 23.3206C26.7115 23.3206 26.661 23.3711 26.7115 23.4217V23.4722L26.762 23.5227C26.762 23.5732 26.8126 23.5732 26.762 23.6237L26.8126 23.6743H26.8631C26.9136 23.7248 26.9136 23.7248 26.9641 23.7248V23.7753L26.9136 23.7248H26.8631C26.8631 23.7248 26.8126 23.7248 26.8126 23.6743C26.8126 23.6743 26.762 23.6743 26.762 23.6237C26.7115 23.6237 26.7115 23.6237 26.7115 23.5732C26.661 23.5732 26.6105 23.5227 26.56 23.5732C26.5094 23.5732 26.4589 23.5732 26.4084 23.5227L26.3579 23.4722C26.3579 23.5227 26.3579 23.5227 26.3579 23.5227C26.4084 23.5227 26.4084 23.5227 26.4589 23.5732C26.4589 23.5732 26.4589 23.5732 26.5094 23.5732L26.56 23.6237V23.6743L26.5094 23.7248V23.6743H26.4589C26.4589 23.6743 26.4084 23.7248 26.4084 23.6743C26.4084 23.7248 26.3579 23.7248 26.3579 23.7248H26.3074L26.2569 23.7753C26.2569 23.7753 26.2569 23.7753 26.2063 23.7753C26.2063 23.7248 26.2063 23.7248 26.2063 23.7248C26.2063 23.7248 26.1558 23.7248 26.1558 23.7753C26.1558 23.7753 26.1558 23.7753 26.1053 23.8258H26.0548C26.0548 23.8258 26.0043 23.8258 26.0043 23.8763C25.9537 23.9269 25.9537 23.9774 25.9032 23.9774C25.9032 23.9774 25.9032 23.9774 25.9032 24.0279V24.0784C25.8527 24.1289 25.8022 24.1289 25.8022 24.0784L25.7517 24.0279V23.9774C25.7517 23.9774 25.8022 23.9774 25.8022 23.9269V23.8763L25.7517 23.8258C25.7517 23.7753 25.7011 23.7753 25.6506 23.7753C25.6001 23.7753 25.6001 23.7753 25.6001 23.7753C25.6506 23.8258 25.6506 23.8763 25.6506 23.9269V23.9774V24.0279L25.7011 24.0784V24.1289C25.7011 24.1289 25.7011 24.1795 25.6506 24.1289H25.6001C25.5496 24.1289 25.5496 24.1289 25.5496 24.1289C25.5496 24.1289 25.5496 24.1795 25.4991 24.1795L25.4486 24.23C25.398 24.2805 25.398 24.2805 25.4486 24.331V24.3815C25.4486 24.3815 25.4486 24.3815 25.398 24.3815C25.3475 24.3815 25.297 24.331 25.2465 24.331C25.2465 24.331 25.2465 24.331 25.196 24.331C25.196 24.331 25.196 24.331 25.196 24.3815V24.432L25.2465 24.4826C25.2465 24.4826 25.2465 24.5331 25.196 24.5331C25.1454 24.5331 25.1454 24.5331 25.0949 24.4826C25.0949 24.4826 25.0444 24.4826 25.0444 24.432C25.0444 24.432 25.0444 24.432 24.9939 24.432C24.9939 24.3815 24.9939 24.3815 24.9434 24.331V24.2805C24.9434 24.23 24.9434 24.23 24.8928 24.1795C24.8928 24.1795 24.8423 24.1795 24.8423 24.1289C24.8423 24.1289 24.7918 24.1289 24.7918 24.0784C24.8423 24.0784 24.8423 24.0784 24.8928 24.0784C24.9434 24.1289 25.0444 24.1289 25.0949 24.1289C25.1454 24.1289 25.196 24.1289 25.2465 24.1289C25.297 24.0784 25.297 24.0784 25.297 24.0279V23.9774C25.297 23.9269 25.2465 23.9269 25.2465 23.8763C25.2465 23.8763 25.2465 23.8763 25.196 23.8258H25.1454C25.0949 23.8258 25.0949 23.8258 25.0444 23.7753C25.0444 23.7753 24.9939 23.7248 24.9434 23.7248C24.7918 23.8763 24.7413 23.8763 24.6403 23.8763H24.5897H24.5392C24.5392 23.8763 24.5392 23.8763 24.5392 23.8258C24.5392 23.8258 24.5392 23.8258 24.4887 23.8258C24.4887 23.8258 24.4887 23.8258 24.4382 23.8258H24.3877H24.3371C24.3371 23.8258 24.3371 23.8258 24.2866 23.8258H24.3371C24.3371 23.8258 24.3371 23.8258 24.3877 23.7753C24.3371 23.7248 24.2866 23.7248 24.2361 23.7248C24.2361 23.7248 24.2361 23.7248 24.2361 23.6743C24.2361 23.6743 24.2361 23.6237 24.1856 23.6237H24.1351C24.1351 23.6237 24.1351 23.6237 24.1351 23.6743C24.1351 23.6743 24.1351 23.6743 24.1351 23.7248C24.1351 23.7248 24.1351 23.6743 24.0845 23.6743C24.0845 23.6743 24.034 23.6237 24.034 23.6743L23.9835 23.7248C23.933 23.7248 23.933 23.7248 23.933 23.7753C23.8825 23.7753 23.8825 23.7753 23.8825 23.8258C23.8319 23.8258 23.8319 23.8258 23.7814 23.8763C23.7814 23.8763 23.7814 23.8763 23.7814 23.9269H23.7309C23.7309 23.9269 23.7309 23.9269 23.7309 23.8763C23.7309 23.8763 23.7309 23.8763 23.7309 23.9269C23.6804 23.9269 23.6804 23.9269 23.6804 23.9774C23.6804 23.9774 23.6804 23.9774 23.6299 23.9774C23.6299 23.9774 23.5794 23.9774 23.5794 24.0279V24.0784C23.5794 24.0784 23.5794 24.0784 23.5288 24.0784H23.4783V24.0279L23.4278 24.0784C23.4278 24.0784 23.4278 24.0784 23.4278 24.1289C23.4278 24.1289 23.4278 24.1289 23.4783 24.1289H23.5288C23.5288 24.1289 23.5288 24.1289 23.5794 24.1289C23.5794 24.1289 23.5794 24.1289 23.5288 24.1289C23.5288 24.1289 23.5288 24.1289 23.5288 24.1795C23.5288 24.1795 23.5288 24.1795 23.4783 24.1795V24.23V24.2805C23.4783 24.2805 23.4278 24.2805 23.4278 24.331V24.3815V24.432V24.4826V24.5331C23.4278 24.5331 23.4278 24.5331 23.3773 24.5836C23.3773 24.5836 23.3773 24.5836 23.3268 24.5836V24.6341C23.2762 24.6341 23.2762 24.6846 23.2762 24.7352C23.2762 24.7352 23.2762 24.7352 23.2762 24.7857C23.2762 24.7857 23.2762 24.7857 23.2257 24.7857H23.1752C23.1247 24.7857 23.1247 24.8362 23.0742 24.8362L23.0236 24.8867C23.0236 24.8867 23.0236 24.9372 22.9731 24.9372H22.9226V24.9878C22.9226 25.0383 22.9226 25.0383 22.9226 25.0888L22.9731 25.1393V25.1898C22.9731 25.1898 22.9731 25.1898 22.9731 25.2403C22.9731 25.2403 22.9731 25.2403 22.9731 25.2909C22.9731 25.2909 22.9731 25.2909 22.9731 25.3414C22.9731 25.3414 22.9731 25.3414 23.0236 25.3414C23.0236 25.3414 23.0236 25.3414 23.0236 25.3919V25.4424C23.0742 25.4929 23.0742 25.4929 23.1247 25.4929C23.1752 25.4929 23.2257 25.4929 23.2257 25.4424C23.2257 25.4424 23.2257 25.3919 23.2762 25.3919C23.3268 25.3919 23.3268 25.3919 23.3268 25.3414C23.3268 25.3414 23.3268 25.3414 23.3773 25.3414V25.3919V25.4424C23.3773 25.4929 23.3773 25.4929 23.4278 25.5435C23.4278 25.594 23.4783 25.594 23.4783 25.6445C23.4783 25.6445 23.4783 25.6445 23.4783 25.695C23.4783 25.695 23.4783 25.695 23.4783 25.7455C23.4783 25.7961 23.5288 25.7961 23.5794 25.7961C23.5794 25.7961 23.5794 25.7961 23.5794 25.7455C23.5794 25.7455 23.5794 25.695 23.6299 25.695C23.6299 25.695 23.6299 25.695 23.6804 25.695C23.7309 25.695 23.7309 25.695 23.7309 25.6445C23.7814 25.6445 23.7814 25.594 23.7814 25.594C23.7814 25.5435 23.7814 25.5435 23.7814 25.4929V25.4424C23.7814 25.3919 23.7814 25.3919 23.8319 25.3919C23.8319 25.3919 23.8825 25.3919 23.8825 25.3414L23.933 25.2909V25.2403C23.933 25.2403 23.933 25.2403 23.933 25.1898C23.933 25.1393 23.8825 25.1393 23.8319 25.0888L23.7814 25.0383C23.7814 24.9878 23.7814 24.9372 23.7814 24.8867C23.7814 24.8867 23.7814 24.8867 23.7814 24.8362C23.8319 24.7857 23.8319 24.7352 23.8825 24.7352L23.933 24.6846C23.9835 24.6341 23.9835 24.6341 23.9835 24.5836V24.5331C23.9835 24.4826 23.9835 24.432 23.9835 24.432C23.9835 24.3815 24.034 24.3815 24.034 24.3815C24.0845 24.3815 24.1351 24.3815 24.1856 24.3815V24.432C24.1856 24.432 24.1856 24.432 24.1856 24.4826V24.5331C24.1351 24.5836 24.1351 24.6341 24.0845 24.6846C24.0845 24.6846 24.0845 24.6846 24.034 24.7352C24.034 24.7352 24.034 24.7857 23.9835 24.7857V24.8362V24.8867C23.9835 24.8867 23.9835 24.8867 23.9835 24.9372C23.9835 24.9878 24.034 25.0383 23.9835 25.0888C23.9835 25.0888 23.9835 25.0888 23.9835 25.1393C23.9835 25.1393 23.9835 25.1898 24.034 25.1898C24.034 25.1898 24.034 25.1898 24.0845 25.1898H24.1351H24.1856H24.2361C24.2866 25.1393 24.3371 25.1393 24.4382 25.1393H24.4887C24.4887 25.1898 24.5392 25.1393 24.5392 25.1898C24.5392 25.1898 24.5392 25.1898 24.4887 25.1898C24.4887 25.1898 24.4382 25.1898 24.4382 25.2403C24.4382 25.2909 24.3877 25.2909 24.3371 25.2403H24.2866C24.2866 25.2403 24.2866 25.2403 24.2361 25.2403C24.1856 25.2403 24.1856 25.2403 24.1351 25.2909C24.0845 25.2909 24.0845 25.3414 24.0845 25.3414C24.0845 25.3414 24.0845 25.3919 24.034 25.3919H23.9835C23.9835 25.3919 23.933 25.3919 23.9835 25.4424C24.034 25.4424 24.034 25.4424 24.034 25.3919C24.034 25.3919 24.034 25.3919 24.0845 25.3919C24.0845 25.3919 24.0845 25.3919 24.1351 25.3919C24.1351 25.4424 24.1351 25.4424 24.1351 25.4424V25.4929L24.0845 25.4424C24.0845 25.4424 24.0845 25.4424 24.034 25.4424C23.9835 25.4424 23.9835 25.4424 23.9835 25.4929V25.5435C23.9835 25.5435 23.9835 25.594 23.9835 25.6445C23.9835 25.695 23.9835 25.695 23.9835 25.7455H23.933C23.933 25.7455 23.933 25.7455 23.8825 25.7961C23.8825 25.8466 23.8319 25.8466 23.7814 25.7961C23.7814 25.7961 23.7814 25.7961 23.7309 25.7961C23.6804 25.7961 23.6804 25.7961 23.6299 25.8466C23.5794 25.8466 23.5794 25.8971 23.5288 25.8971C23.5288 25.8971 23.5288 25.8971 23.4783 25.9476C23.4783 25.9476 23.4783 25.9476 23.4278 25.9476L23.3773 25.8971C23.3773 25.8971 23.3773 25.8971 23.3773 25.8466H23.3268C23.2762 25.8466 23.2762 25.8466 23.2257 25.8971C23.2257 25.8971 23.2257 25.8971 23.1752 25.8466H23.1247V25.7961C23.1752 25.7961 23.1752 25.7961 23.2257 25.8466C23.2762 25.8466 23.2762 25.8466 23.2762 25.8466C23.2762 25.7961 23.3268 25.7455 23.3268 25.7455C23.2762 25.7455 23.2762 25.7455 23.2257 25.7961C23.2257 25.7961 23.2257 25.7961 23.2257 25.8466C23.2257 25.8466 23.2257 25.8466 23.2257 25.8971L23.1752 25.8466C23.1752 25.8466 23.1752 25.7961 23.2257 25.7961C23.1752 25.7961 23.1752 25.7455 23.1752 25.7455V25.695C23.1247 25.695 23.1247 25.7455 23.0742 25.7455C23.0742 25.7961 23.0236 25.7961 23.0742 25.8466V25.8971C23.0742 25.9476 23.0742 25.9981 23.1247 25.9981L23.0742 26.0486C23.0236 26.0486 23.0236 26.0486 23.0236 26.0486H22.9731C22.9226 26.0486 22.9226 26.0486 22.8721 26.0992L22.8216 26.1497C22.7711 26.2507 22.7711 26.2507 22.7205 26.3012C22.7205 26.3012 22.67 26.3012 22.67 26.3518V26.4023C22.67 26.4023 22.67 26.4528 22.6195 26.4528C22.6195 26.4528 22.6195 26.4528 22.569 26.4528C22.569 26.4528 22.5185 26.4528 22.5185 26.5033H22.4679H22.4174C22.4174 26.5033 22.4174 26.5033 22.3669 26.5033V26.5538H22.3164C22.3164 26.5538 22.3164 26.5538 22.2659 26.5538C22.2153 26.5538 22.2153 26.5538 22.2153 26.5538C22.2153 26.6044 22.2153 26.6044 22.2659 26.6044H22.3164C22.3669 26.6044 22.3669 26.6549 22.3669 26.6549C22.3669 26.7054 22.4174 26.7054 22.4174 26.7054V26.7559C22.4174 26.8064 22.4174 26.8569 22.4174 26.9075V26.958L22.3669 27.0085C22.3164 27.0085 22.3164 27.0085 22.2659 27.0085C22.2659 27.0085 22.2659 27.0085 22.2153 27.0085C22.1648 27.0085 22.1648 27.0085 22.1143 27.0085C22.0638 27.0085 22.0638 27.0085 22.0133 27.0085C22.0133 27.0085 22.0133 27.0085 21.9628 27.0085C21.9122 27.0085 21.9122 27.0085 21.8617 27.0085C21.8617 27.0085 21.8617 27.0085 21.8112 27.0085C21.8112 27.0085 21.8112 27.0085 21.8112 27.059C21.8112 27.1095 21.8617 27.1095 21.8112 27.1601C21.8112 27.2106 21.8112 27.3116 21.7607 27.3621V27.4127C21.7607 27.4127 21.7607 27.4127 21.7607 27.4632C21.8112 27.5137 21.8112 27.5137 21.8112 27.5642H21.8617H21.9122H21.9628C21.9628 27.5642 21.9628 27.6147 22.0133 27.6147H22.0638C22.0638 27.6147 22.1143 27.6147 22.1143 27.5642C22.1648 27.5642 22.1648 27.5137 22.2153 27.5137C22.2659 27.5137 22.2659 27.5137 22.3164 27.5137H22.3669L22.4174 27.4632C22.4174 27.4632 22.4679 27.4632 22.4679 27.4127C22.4679 27.3621 22.4679 27.3621 22.5185 27.3621C22.5185 27.3621 22.5185 27.3621 22.5185 27.3116C22.4679 27.2611 22.5185 27.2106 22.5185 27.2106C22.5185 27.2106 22.5185 27.2106 22.5185 27.1601C22.569 27.1095 22.569 27.1095 22.6195 27.1095C22.67 27.1095 22.67 27.059 22.7205 27.0085V26.958C22.7205 26.958 22.7205 26.958 22.7205 26.9075L22.7711 26.8569C22.8216 26.8569 22.8721 26.8569 22.9226 26.9075H22.9731C22.9731 26.8569 23.0236 26.8569 23.0742 26.8569C23.0742 26.8569 23.0742 26.8569 23.1247 26.8569C23.1247 26.8064 23.1752 26.8064 23.2257 26.8569C23.2762 26.8569 23.2762 26.9075 23.2762 26.9075C23.2762 26.9075 23.2762 26.958 23.3268 26.958C23.3773 27.0085 23.4278 27.0085 23.4278 27.059C23.4783 27.1095 23.4783 27.1095 23.5288 27.1095C23.5794 27.1095 23.5794 27.1601 23.6299 27.1601L23.6804 27.2106C23.6804 27.2106 23.6804 27.2611 23.7309 27.2611C23.7309 27.3116 23.7309 27.3116 23.6804 27.3116C23.6299 27.3116 23.5794 27.3116 23.5288 27.3116C23.5288 27.3116 23.5288 27.3116 23.4783 27.3116C23.4783 27.3116 23.5288 27.3116 23.5288 27.3621C23.5794 27.3621 23.6299 27.4127 23.6299 27.4127C23.6299 27.4127 23.6299 27.4127 23.6299 27.3621V27.3116C23.6299 27.3116 23.6299 27.2611 23.6804 27.2611H23.7309C23.7309 27.2106 23.7814 27.2106 23.7814 27.1601V27.1095V27.059C23.7814 27.059 23.8319 27.0085 23.8319 27.059C23.8319 27.059 23.8825 27.059 23.8825 27.1095V27.059C23.8319 27.0085 23.7814 27.0085 23.7309 26.958C23.7309 26.958 23.7309 26.958 23.7309 26.9075H23.6804C23.6299 26.9075 23.6299 26.9075 23.6299 26.8569L23.5794 26.8064C23.5794 26.7559 23.5288 26.7559 23.5288 26.7054C23.5288 26.7054 23.4783 26.7054 23.4783 26.6549V26.6044V26.5538H23.5288V26.6044C23.5288 26.6044 23.5288 26.6044 23.5794 26.6044H23.6299H23.6804C23.6804 26.6549 23.7309 26.6549 23.7814 26.7054C23.8319 26.7054 23.8319 26.7559 23.8825 26.7559L23.933 26.8064C23.933 26.8064 23.9835 26.8064 23.9835 26.8569L24.034 26.9075C24.034 26.9075 24.034 26.9075 24.034 26.958V27.0085C24.034 27.059 24.034 27.059 24.0845 27.1095C24.0845 27.1601 24.0845 27.1601 24.1351 27.1601C24.1351 27.1601 24.1856 27.1601 24.1856 27.2106C24.1856 27.2611 24.2361 27.2611 24.2361 27.2611C24.2866 27.2611 24.2866 27.3116 24.2866 27.3116H24.3371C24.3371 27.2611 24.3371 27.2611 24.3371 27.2106C24.3877 27.2106 24.3877 27.2106 24.3877 27.2106C24.3877 27.1601 24.3877 27.1601 24.3371 27.1601C24.3371 27.1601 24.3371 27.1601 24.2866 27.1601C24.2866 27.1095 24.2361 27.1095 24.2361 27.059C24.2866 27.059 24.2866 27.059 24.2866 27.059C24.2866 27.059 24.2866 27.059 24.2866 27.0085C24.2866 27.0085 24.2866 27.0085 24.3371 27.0085H24.3877C24.4382 27.0085 24.4382 27.059 24.4382 27.059C24.4382 27.1095 24.4382 27.1601 24.4382 27.1601C24.4382 27.1601 24.4382 27.1601 24.4887 27.1601C24.4887 27.1601 24.4382 27.1601 24.4382 27.2106C24.4382 27.2106 24.4382 27.2106 24.4887 27.2106C24.4887 27.2106 24.4887 27.2106 24.5392 27.2106C24.5392 27.2106 24.5392 27.2106 24.5392 27.2611C24.5392 27.2611 24.5897 27.2611 24.5897 27.3116L24.6403 27.3621C24.6403 27.3621 24.6403 27.3621 24.6908 27.3621C24.7413 27.3621 24.7413 27.3621 24.7413 27.3621C24.7918 27.3621 24.7918 27.3621 24.8423 27.3116H24.8928C24.8928 27.3116 24.9434 27.3116 24.9434 27.3621C24.9939 27.4127 24.9939 27.4127 25.0444 27.3621C25.0949 27.3621 25.0949 27.3621 25.1454 27.3116C25.1454 27.3116 25.1454 27.3116 25.196 27.3116H25.2465C25.2465 27.3621 25.2465 27.3621 25.2465 27.4127C25.2465 27.4632 25.2465 27.4632 25.2465 27.5137C25.2465 27.5642 25.2465 27.5642 25.2465 27.5642C25.2465 27.6147 25.196 27.6147 25.196 27.6652C25.196 27.7158 25.196 27.7158 25.1454 27.7663C25.1454 27.7663 25.1454 27.7663 25.0949 27.7663C25.0444 27.7663 24.9939 27.7663 24.9434 27.7663H24.8928C24.8423 27.7663 24.7918 27.7663 24.7918 27.8168H24.7413C24.6908 27.8168 24.5897 27.7663 24.5392 27.7663C24.4887 27.7663 24.4887 27.7663 24.4887 27.7663C24.4382 27.7663 24.4382 27.7663 24.3877 27.7158C24.3371 27.7158 24.3371 27.7158 24.2866 27.6652C24.2866 27.6652 24.2866 27.6652 24.2361 27.6652C24.1856 27.6652 24.1351 27.6652 24.0845 27.6652C24.034 27.6652 24.034 27.7158 24.034 27.7663C24.034 27.7663 24.034 27.7663 24.034 27.8168V27.8673H23.9835C23.9835 27.8673 23.9835 27.8673 23.933 27.8673C23.933 27.8673 23.8825 27.8673 23.8825 27.8168C23.8319 27.8168 23.7814 27.7663 23.7309 27.7663C23.7309 27.7663 23.6804 27.7663 23.6804 27.7158C23.6804 27.7158 23.6804 27.7158 23.6804 27.6652C23.6804 27.6652 23.6804 27.6147 23.6299 27.6147C23.5794 27.6147 23.5288 27.5642 23.4783 27.5642C23.4278 27.5642 23.4278 27.5642 23.3773 27.5642C23.3773 27.5137 23.3268 27.5137 23.2762 27.5137V27.4632L23.3268 27.4127V27.3621C23.3268 27.3621 23.3268 27.3621 23.2762 27.3116V27.2611H23.2257H23.1752H23.1247H23.0742H23.0236C22.9731 27.2611 22.9731 27.2611 22.9731 27.2611H22.9226C22.8721 27.2611 22.8216 27.2611 22.7711 27.2611C22.7205 27.2611 22.7205 27.2611 22.67 27.2611H22.6195C22.569 27.2611 22.569 27.3116 22.5185 27.3116C22.4679 27.3116 22.4679 27.3116 22.4679 27.3621C22.4174 27.3621 22.4174 27.4127 22.3669 27.3621C22.3164 27.3621 22.3164 27.3621 22.3164 27.3621H22.2659C22.2659 27.3621 22.2659 27.3621 22.2153 27.3621C22.1648 27.3116 22.1648 27.3621 22.1648 27.3621V27.4127C22.1648 27.4632 22.1143 27.4632 22.1143 27.5137C22.0638 27.5137 22.0638 27.5642 22.0133 27.5642C21.9628 27.5642 21.9628 27.6147 21.9628 27.6652V27.7158V27.7663V27.8168V27.8673C21.9628 27.8673 21.9628 27.9178 21.9122 27.9178C21.9122 27.9178 21.9122 27.9178 21.8617 27.9684C21.8617 27.9684 21.8112 27.9684 21.8112 28.0189L21.7607 28.0694C21.7607 28.0694 21.7102 28.0694 21.7102 28.1199C21.7102 28.1199 21.7102 28.1199 21.7102 28.1704L21.6596 28.221C21.6091 28.221 21.6091 28.2715 21.6091 28.2715C21.6091 28.322 21.5586 28.3725 21.5081 28.423C21.5081 28.423 21.5081 28.423 21.5081 28.4736C21.5081 28.5241 21.4576 28.5746 21.407 28.6251V28.6756C21.407 28.7261 21.407 28.7261 21.4576 28.7261C21.4576 28.7261 21.5081 28.7767 21.4576 28.7767V28.8272C21.4576 28.8777 21.4576 28.9282 21.4576 28.9787C21.4576 29.0293 21.407 29.0798 21.407 29.1303C21.407 29.1303 21.407 29.1808 21.4576 29.1808V29.2313C21.4576 29.2819 21.4576 29.2819 21.4576 29.3324L21.5081 29.3829H21.5586V29.4334C21.5586 29.4334 21.6091 29.4334 21.6091 29.4839C21.6091 29.4839 21.6091 29.4839 21.6596 29.5344C21.7102 29.5344 21.7102 29.585 21.7102 29.585C21.7102 29.585 21.7102 29.585 21.7102 29.6355C21.7102 29.686 21.7102 29.686 21.7607 29.7365C21.7607 29.787 21.8112 29.787 21.8617 29.8376C21.9122 29.8376 21.9122 29.8881 21.9122 29.8881C21.9628 29.9386 22.0133 29.9891 22.0638 29.9891C22.1143 29.9891 22.1143 30.0396 22.1648 30.0396C22.1648 30.0396 22.1648 30.0396 22.2153 30.0396C22.2153 30.0396 22.2659 30.0396 22.2659 29.9891C22.3164 29.9891 22.3164 29.9386 22.3669 29.9386C22.4174 29.9386 22.4174 29.9386 22.4679 29.9386C22.5185 29.9386 22.5185 29.9386 22.569 29.9386C22.569 29.9386 22.569 29.9386 22.6195 29.9386H22.67H22.7205H22.7711C22.8216 29.9386 22.8216 29.8881 22.8721 29.8881C22.9226 29.8881 22.9226 29.8881 22.9731 29.8881C23.0236 29.8881 23.0742 29.8881 23.0742 29.8881C23.0742 29.8881 23.0742 29.8881 23.1247 29.8881C23.1752 29.8881 23.1752 29.9386 23.2257 29.9891V30.0396C23.2257 30.0902 23.2762 30.0902 23.3268 30.0902C23.3268 30.0902 23.3268 30.0902 23.3773 30.0902C23.4278 30.0902 23.4783 30.0902 23.4783 30.0902H23.5288C23.5288 30.0902 23.5288 30.0902 23.5794 30.1407C23.6299 30.1407 23.6299 30.1912 23.6299 30.2417V30.2922C23.6299 30.2922 23.6299 30.3427 23.5794 30.3427V30.3933C23.5794 30.4438 23.5794 30.4438 23.5288 30.4943C23.5794 30.5953 23.5794 30.6459 23.6804 30.6964L23.7309 30.7469C23.7814 30.7469 23.7814 30.7974 23.7814 30.8479V30.8985C23.7814 30.949 23.8319 30.949 23.8319 30.9995C23.8319 31.05 23.8825 31.1005 23.8825 31.151C23.8825 31.151 23.8825 31.151 23.8825 31.2016C23.8825 31.2016 23.8825 31.2016 23.8825 31.2521C23.8825 31.3026 23.8825 31.3026 23.933 31.3531C23.933 31.3531 23.933 31.3531 23.933 31.4036C23.933 31.4542 23.933 31.5047 23.8825 31.5552L23.8319 31.6057L23.7814 31.6562C23.7814 31.7068 23.7814 31.7573 23.7309 31.7573V31.8078C23.7309 31.8583 23.7309 31.9088 23.7309 31.9088V31.9593C23.7814 32.0099 23.7814 32.0604 23.8319 32.1109C23.8319 32.1614 23.8825 32.2119 23.8825 32.2625C23.8825 32.313 23.933 32.313 23.933 32.3635C23.933 32.414 23.933 32.4645 23.933 32.4645V32.5151C23.933 32.5656 23.933 32.6161 23.933 32.6666C23.933 32.7171 23.9835 32.7677 23.9835 32.8182L24.034 32.8687L24.0845 32.9192C24.0845 32.9697 24.1351 33.0202 24.1351 33.0708C24.1351 33.0708 24.1351 33.0708 24.1351 33.1213C24.1351 33.1718 24.1351 33.1718 24.1351 33.2223C24.1351 33.2223 24.1351 33.2223 24.1351 33.2728C24.1351 33.3234 24.1351 33.3234 24.1351 33.3739C24.1856 33.3739 24.1856 33.4244 24.2361 33.4244C24.2361 33.4244 24.2361 33.4244 24.2866 33.4244C24.3371 33.4244 24.3371 33.3739 24.3877 33.3739H24.4382C24.4887 33.3739 24.4887 33.3739 24.5392 33.3739C24.5897 33.3739 24.5897 33.3739 24.6403 33.3739C24.6403 33.3739 24.6403 33.3739 24.6908 33.3739C24.7413 33.3739 24.7413 33.3739 24.7918 33.3234C24.7918 33.3234 24.7918 33.3234 24.8423 33.3234C24.8928 33.3234 24.9434 33.3234 24.9434 33.2728C24.9939 33.2223 25.0444 33.1718 25.0949 33.1213C25.1454 33.0708 25.1454 33.0708 25.196 33.0202C25.196 32.9697 25.2465 32.9697 25.2465 32.9192L25.297 32.8687C25.3475 32.8182 25.3475 32.8182 25.3475 32.7677C25.3475 32.7171 25.3475 32.7171 25.398 32.6666V32.6161V32.5656L25.4486 32.5151C25.4991 32.5151 25.4991 32.5151 25.5496 32.4645L25.6001 32.414C25.6001 32.3635 25.6001 32.3635 25.6001 32.313V32.2625C25.6001 32.2119 25.5496 32.1614 25.5496 32.1109V32.0604C25.6001 32.0099 25.7011 31.9594 25.7517 31.9088L25.8022 31.8583C25.8527 31.8583 25.8527 31.8078 25.9032 31.8078C25.9537 31.7573 26.0043 31.7068 26.0043 31.6562C26.0043 31.6057 26.0043 31.6057 26.0043 31.5552C26.0043 31.5047 26.0043 31.5047 26.0043 31.4542V31.4036C26.0043 31.3531 26.0043 31.3531 26.0043 31.3026V31.2521C25.9537 31.2521 25.9537 31.2016 25.9537 31.151C25.9537 31.1005 25.9537 31.05 25.9537 30.9995C25.9537 30.9995 25.9537 30.9995 25.9537 30.949V30.8985C25.9032 30.8479 25.9032 30.8479 25.9537 30.7974C25.9537 30.7469 25.9537 30.7469 26.0043 30.6964C26.0548 30.6459 26.0548 30.6459 26.0548 30.5953C26.0548 30.5953 26.0548 30.5448 26.1053 30.5448C26.1558 30.5448 26.1558 30.4943 26.2063 30.4943C26.2569 30.4438 26.3074 30.3427 26.4084 30.2922C26.4589 30.2417 26.4589 30.1912 26.56 30.1912C26.661 30.0902 26.762 29.9891 26.8126 29.8376C26.8126 29.787 26.8631 29.7365 26.9136 29.686C26.9136 29.6355 26.9641 29.6355 26.9641 29.585C26.9641 29.5344 26.9641 29.4839 26.9641 29.4334C26.9641 29.4334 26.9136 29.3829 26.9136 29.4334C26.8631 29.4839 26.8126 29.4839 26.8126 29.4839C26.762 29.4839 26.661 29.4839 26.6105 29.5344C26.6105 29.5344 26.6105 29.5344 26.56 29.5344C26.5094 29.5344 26.5094 29.5344 26.4589 29.5344C26.4589 29.5344 26.4589 29.5344 26.4084 29.5344H26.3579L26.3074 29.4839C26.3074 29.4334 26.3074 29.4334 26.3074 29.4334L26.2569 29.3829C26.2063 29.3324 26.2063 29.3324 26.1558 29.2819L26.1053 29.2313C26.0548 29.2313 26.0043 29.1808 26.0043 29.1303C26.0043 29.0798 26.0043 29.0798 26.0043 29.0293C26.0043 28.9787 25.9537 28.9787 25.9537 28.9787L25.9032 28.9282C25.9032 28.9282 25.9032 28.8777 25.8527 28.8777C25.8527 28.8272 25.8527 28.7767 25.8022 28.7261C25.8022 28.6756 25.7517 28.6251 25.7011 28.6251C25.7011 28.6251 25.7011 28.6251 25.6506 28.6251C25.6506 28.6251 25.6506 28.6251 25.6506 28.5746C25.6506 28.5241 25.6506 28.5241 25.6001 28.4736C25.6001 28.4736 25.6001 28.423 25.5496 28.423C25.4991 28.3725 25.4486 28.322 25.4486 28.221C25.4486 28.221 25.4486 28.221 25.4486 28.1704C25.4486 28.1704 25.4486 28.1704 25.4991 28.1704C25.4991 28.1704 25.4991 28.1704 25.5496 28.1704H25.6001C25.6001 28.1704 25.6001 28.1704 25.6001 28.221C25.6506 28.2715 25.6506 28.322 25.7011 28.3725C25.7011 28.423 25.7517 28.423 25.7517 28.4736C25.7517 28.4736 25.7517 28.5241 25.8022 28.5241C25.8527 28.5241 25.8527 28.5746 25.9032 28.6251C25.9032 28.6251 25.9032 28.6251 25.9032 28.6756V28.7261C25.9032 28.7261 25.9032 28.7261 25.9032 28.7767C25.9032 28.8272 25.9537 28.8777 25.9537 28.8777C25.9537 28.8777 26.0043 28.8777 26.0043 28.9282C26.0548 28.9282 26.0548 28.9787 26.0548 28.9787C26.0548 29.0293 26.1053 29.0293 26.1053 29.0798L26.1558 29.1303C26.1558 29.1808 26.2063 29.1808 26.2063 29.2313V29.2819C26.2063 29.3324 26.2569 29.3829 26.2569 29.4334V29.4839C26.2569 29.4839 26.2569 29.4839 26.3074 29.4839H26.3579C26.3579 29.4839 26.4084 29.4839 26.4084 29.4334C26.4084 29.3829 26.4589 29.3829 26.4589 29.3829C26.5094 29.3829 26.5094 29.3829 26.56 29.3324H26.6105C26.6105 29.3324 26.661 29.3324 26.661 29.2819C26.661 29.2819 26.7115 29.2819 26.7115 29.2313C26.762 29.2313 26.762 29.2313 26.8126 29.1808C26.8631 29.1808 26.8631 29.1808 26.9136 29.1303C26.9136 29.1303 26.9136 29.1303 26.9136 29.0798C26.9136 29.0293 26.9641 29.0293 26.9641 29.0293C27.0146 29.0293 27.0652 29.0293 27.0652 28.9787C27.1157 28.9787 27.1157 28.9787 27.1157 28.9282C27.1157 28.9282 27.1157 28.8777 27.1662 28.8777C27.2167 28.8777 27.2167 28.8777 27.2167 28.8272C27.2167 28.8272 27.2167 28.8272 27.2672 28.7767H27.3177V28.7261V28.6756C27.3683 28.6251 27.3683 28.5746 27.4188 28.5746C27.4188 28.5241 27.4188 28.5241 27.4188 28.5241L27.3683 28.4736L27.3177 28.423H27.2672H27.2167C27.2167 28.423 27.1662 28.3725 27.1662 28.322C27.1662 28.2715 27.1662 28.2715 27.1662 28.221C27.1157 28.2715 27.0652 28.2715 27.0652 28.322C27.0652 28.3725 27.0146 28.3725 26.9641 28.3725C26.9136 28.3725 26.9136 28.3725 26.8631 28.3725H26.8126C26.8126 28.3725 26.8126 28.3725 26.8126 28.322C26.8126 28.2715 26.8126 28.2715 26.8126 28.221C26.8126 28.221 26.8126 28.221 26.8126 28.2715C26.8126 28.2715 26.8126 28.2715 26.762 28.2715V28.221C26.762 28.1704 26.762 28.1704 26.7115 28.1199L26.661 28.0694C26.661 28.0189 26.6105 28.0189 26.6105 27.9684C26.6105 27.9684 26.6105 27.9684 26.6105 27.9178C26.6105 27.9178 26.6105 27.9178 26.6105 27.8673H26.661H26.7115C26.7115 27.8673 26.7115 27.8673 26.762 27.9178C26.8126 27.9684 26.8126 28.0189 26.8126 28.0189C26.8126 28.0189 26.8126 28.0694 26.8631 28.0694C26.8631 28.0694 26.8631 28.0694 26.9136 28.0694C26.9136 28.0694 26.9641 28.0694 26.9641 28.1199C26.9641 28.1199 27.0146 28.1199 27.0146 28.1704C27.0652 28.1704 27.0652 28.221 27.1157 28.221H27.1662L27.2167 28.1704C27.2672 28.1704 27.2672 28.1704 27.2672 28.1704C27.2672 28.1704 27.2672 28.221 27.3177 28.221C27.3177 28.221 27.3177 28.2715 27.3683 28.2715C27.4693 28.2715 27.5703 28.322 27.6209 28.322C27.6714 28.322 27.6714 28.322 27.7219 28.322C27.7724 28.322 27.8229 28.322 27.8735 28.322H27.924C27.9745 28.322 27.9745 28.322 28.025 28.322C28.025 28.322 28.025 28.322 28.0755 28.322C28.0755 28.322 28.0755 28.322 28.126 28.3725C28.126 28.3725 28.1766 28.3725 28.1766 28.423C28.1766 28.4736 28.1766 28.4736 28.2271 28.4736C28.2271 28.4736 28.2776 28.4736 28.2776 28.5241C28.2776 28.5746 28.3281 28.5746 28.3786 28.5746C28.3786 28.5746 28.3786 28.5746 28.4292 28.5746C28.4292 28.5746 28.3786 28.6251 28.3786 28.5746C28.4292 28.6251 28.4292 28.6251 28.4797 28.6756C28.5302 28.7261 28.5807 28.7261 28.6312 28.6756C28.6818 28.6756 28.6818 28.6251 28.6818 28.6251C28.6818 28.6756 28.7323 28.7261 28.7323 28.7767V28.8272C28.7323 28.8777 28.7323 28.9282 28.7828 28.9787C28.7828 29.0293 28.8333 29.0798 28.8333 29.1303C28.8333 29.1808 28.8838 29.1808 28.8838 29.2313C28.8838 29.2819 28.9344 29.2819 28.9344 29.3324V29.3829C28.9344 29.4334 28.9849 29.4334 28.9849 29.4839L29.0354 29.5344C29.0354 29.585 29.0859 29.6355 29.0859 29.686C29.0859 29.7365 29.0859 29.7365 29.1364 29.787C29.1364 29.787 29.1364 29.787 29.1869 29.8376C29.1869 29.8376 29.2375 29.8376 29.288 29.8376C29.288 29.8376 29.288 29.8376 29.288 29.787C29.288 29.787 29.288 29.7365 29.3385 29.7365C29.3385 29.7365 29.389 29.7365 29.389 29.686C29.389 29.686 29.389 29.6355 29.4395 29.6355C29.4395 29.6355 29.4395 29.6355 29.4395 29.585V29.5344V29.4839C29.4395 29.4839 29.4395 29.4839 29.4395 29.4334C29.4395 29.3829 29.4395 29.3829 29.4395 29.3324V29.2819C29.4395 29.2313 29.4395 29.2313 29.4395 29.1808C29.4395 29.1808 29.4395 29.1303 29.4901 29.1303C29.4901 29.0798 29.5406 29.0798 29.5406 29.0798C29.5406 29.0798 29.5406 29.0798 29.5406 29.0293V28.9787C29.5911 28.9787 29.5911 28.9282 29.6416 28.8777L29.6921 28.8272L29.7427 28.7767C29.7427 28.7767 29.7427 28.7767 29.7932 28.7767C29.8437 28.7767 29.8942 28.7261 29.8942 28.6756C29.8942 28.6756 29.8942 28.6251 29.9447 28.6251H29.9952C30.0458 28.6251 30.0963 28.6251 30.1468 28.5746C30.1468 28.5746 30.1973 28.5746 30.1973 28.5241V28.5746C30.1973 28.6251 30.2478 28.6756 30.2984 28.7261C30.2984 28.7261 30.2984 28.7261 30.3489 28.7261C30.3489 28.7261 30.3489 28.7261 30.3489 28.7767C30.3489 28.8272 30.3489 28.8272 30.3994 28.8272C30.3994 28.8272 30.4499 28.8272 30.4499 28.8777C30.4499 28.9282 30.5004 28.9787 30.4499 29.0293V29.0798C30.4499 29.0798 30.4499 29.1303 30.5004 29.1303C30.551 29.1303 30.551 29.1303 30.6015 29.0798L30.652 29.0293L30.7025 29.0798V29.1303C30.7025 29.1808 30.753 29.2313 30.753 29.2819C30.753 29.2819 30.753 29.2819 30.753 29.3324V29.3829C30.753 29.4334 30.753 29.4839 30.753 29.5344V29.585C30.753 29.6355 30.753 29.6355 30.753 29.686C30.753 29.7365 30.753 29.7365 30.8035 29.787C30.8541 29.8376 30.8541 29.8881 30.9046 29.9386C30.9046 29.9386 30.9046 29.9891 30.9046 30.0396V30.0902V30.1407L30.9551 30.1912L30.652 30.5448ZM18.7801 31.05C18.7295 31.05 18.7295 31.05 18.7801 31.05C18.7295 31.05 18.7295 30.9995 18.7801 31.05ZM18.6285 30.7469C18.578 30.7469 18.578 30.6964 18.6285 30.7469C18.6285 30.6964 18.578 30.6964 18.6285 30.7469C18.6285 30.6964 18.6285 30.6964 18.6285 30.7469ZM27.3683 23.6743C27.4188 23.7248 27.4188 23.7248 27.4188 23.7248V23.7753C27.4188 23.7248 27.3683 23.7248 27.3683 23.6743ZM27.5703 23.2701C27.5703 23.3206 27.5703 23.3206 27.5703 23.2701ZM27.6714 23.3711C27.6209 23.3711 27.6209 23.3711 27.6714 23.3711ZM28.025 26.5538C28.0755 26.5033 28.0755 26.5033 28.0755 26.5033C28.0755 26.5033 28.0755 26.5538 28.025 26.5538C28.0755 26.6044 28.025 26.6044 28.025 26.6549C27.9745 26.6044 28.025 26.5538 28.025 26.5538ZM28.6818 26.2507C28.7323 26.3012 28.7323 26.3012 28.7323 26.3012H28.7828C28.7828 26.3012 28.7828 26.3012 28.7323 26.3012C28.6818 26.3012 28.6818 26.3012 28.6312 26.2507C28.6818 26.3012 28.6818 26.3012 28.6818 26.2507ZM29.3385 26.2507C29.3385 26.3012 29.3385 26.3012 29.3385 26.2507ZM29.8437 25.8466C29.7932 25.8971 29.7932 25.8466 29.8437 25.8466C29.7932 25.8466 29.7932 25.8466 29.8437 25.8466ZM31.1572 26.0992C30.8035 25.1898 30.2478 24.3815 29.5406 23.6743C28.8838 22.967 28.025 22.4618 27.1157 22.0577C26.2569 21.704 25.297 21.502 24.2866 21.502C23.2762 21.502 22.3164 21.704 21.4576 22.0577C20.5482 22.4113 19.7399 22.967 19.0327 23.6743C17.6687 25.0383 16.8604 26.8569 16.8604 28.9282C16.8604 29.9386 17.0624 30.8985 17.4161 31.7573C17.7697 32.6666 18.3254 33.4749 19.0327 34.1822C19.6894 34.8389 20.5482 35.3946 21.4576 35.7988C22.3164 36.1524 23.2762 36.3545 24.2866 36.3545C25.297 36.3545 26.2569 36.1524 27.1157 35.7988C28.025 35.4451 28.8333 34.8894 29.5406 34.1822C30.1973 33.4749 30.753 32.6666 31.1572 31.7573C31.5108 30.8985 31.7129 29.9386 31.7129 28.9282C31.7129 27.9178 31.5108 26.958 31.1572 26.0992Z" fill="#151717"/>
<path fill-rule="evenodd" clip-rule="evenodd" d="M23.8328 25.5913C23.8833 25.5408 23.8833 25.5408 23.8833 25.4902H23.8328C23.7823 25.4902 23.7823 25.5408 23.8328 25.5913C23.7823 25.5408 23.7823 25.5408 23.8328 25.5913Z" fill="#151717"/>
<path fill-rule="evenodd" clip-rule="evenodd" d="M17.8203 29.4805C17.8717 29.4805 17.8203 29.5319 17.8203 29.4805C17.8717 29.4805 17.8717 29.4805 17.8203 29.4805Z" fill="#151717"/>
<path fill-rule="evenodd" clip-rule="evenodd" d="M17.8193 29.5844C17.8707 29.533 17.8193 29.533 17.8193 29.5844C17.8193 29.533 17.8193 29.533 17.8193 29.5844Z" fill="#151717"/>
<path fill-rule="evenodd" clip-rule="evenodd" d="M18.7291 26.4513C18.7291 26.5018 18.7291 26.5018 18.7291 26.4513C18.6786 26.4513 18.6786 26.4513 18.7291 26.4513C18.6786 26.4008 18.6786 26.4008 18.6786 26.4008C18.6786 26.4008 18.6786 26.4008 18.7291 26.3503C18.7291 26.3503 18.7291 26.3502 18.7291 26.2997C18.7291 26.2997 18.7291 26.2997 18.6786 26.2997H18.628C18.628 26.2997 18.628 26.2997 18.628 26.2492C18.628 26.2492 18.628 26.1987 18.5775 26.1987C18.5775 26.1987 18.5775 26.1987 18.527 26.1987C18.527 26.1482 18.5775 26.1482 18.5775 26.1482L18.628 26.0977C18.628 26.0977 18.628 26.0977 18.5775 26.0977C18.527 26.0977 18.527 26.0977 18.4765 26.1482C18.426 26.1987 18.3755 26.2492 18.3755 26.2997C18.3755 26.3502 18.3249 26.3503 18.3249 26.3503C18.3249 26.3503 18.3249 26.3502 18.3249 26.4008C18.3249 26.4008 18.3249 26.4008 18.2744 26.4513C18.2744 26.4513 18.2744 26.4513 18.2744 26.5018C18.2744 26.5018 18.2744 26.5018 18.3249 26.5018C18.3755 26.5018 18.3755 26.5018 18.426 26.5018C18.4765 26.5018 18.4765 26.5018 18.4765 26.5018C18.527 26.5018 18.527 26.5018 18.527 26.5018C18.527 26.5018 18.527 26.5018 18.4765 26.5523H18.527C18.527 26.5018 18.5775 26.5018 18.5775 26.5018V26.5523L18.628 26.6028H18.6786C18.7291 26.5523 18.7291 26.5523 18.7291 26.4513C18.7796 26.5018 18.7796 26.5018 18.7291 26.4513Z" fill="#151717"/>
<path fill-rule="evenodd" clip-rule="evenodd" d="M22.1152 25.4904C22.1662 25.4904 22.1662 25.4395 22.1662 25.4395C22.1152 25.4395 22.1152 25.4395 22.1152 25.4904Z" fill="#151717"/>
<path fill-rule="evenodd" clip-rule="evenodd" d="M22.165 25.6413C22.2156 25.6918 22.165 25.6918 22.165 25.6918C22.165 25.6918 22.165 25.6918 22.165 25.7423C22.165 25.7423 22.165 25.7423 22.2156 25.7423V25.7928C22.2156 25.7928 22.2156 25.8433 22.2661 25.8433H22.3166V25.8939C22.3166 25.8939 22.3166 25.8939 22.3166 25.9444C22.3166 25.9949 22.3166 25.9949 22.2661 25.9949V26.0454V26.0959C22.2661 26.0959 22.2661 26.0959 22.2156 26.0959C22.2661 26.0959 22.2661 26.0959 22.3166 26.1465C22.2661 26.1465 22.2661 26.1465 22.2661 26.197C22.2661 26.2475 22.2156 26.2475 22.2156 26.298C22.2156 26.298 22.2156 26.298 22.2661 26.298H22.3166C22.3671 26.298 22.3671 26.298 22.3671 26.2475C22.3671 26.2475 22.3671 26.2475 22.4176 26.2475C22.4682 26.2475 22.4682 26.2475 22.5187 26.2475C22.5692 26.2475 22.5692 26.2475 22.6197 26.2475C22.6702 26.2475 22.6702 26.2475 22.7207 26.197C22.7207 26.197 22.7207 26.197 22.7207 26.1465L22.7713 26.0959C22.7713 26.0454 22.7713 25.9949 22.7207 25.9949H22.6702C22.6702 25.9949 22.6702 25.9949 22.6702 25.9444C22.6702 25.8939 22.6197 25.8939 22.6197 25.8433C22.6197 25.8433 22.6197 25.7928 22.5692 25.7928C22.5187 25.7928 22.5187 25.7423 22.5187 25.7423C22.5187 25.6918 22.4682 25.6413 22.4176 25.6413V25.5907C22.4176 25.5402 22.4682 25.5402 22.4682 25.4897V25.4392H22.4176C22.4176 25.4392 22.4176 25.3887 22.4682 25.3887C22.4682 25.3887 22.4176 25.3887 22.3671 25.3887C22.3671 25.3887 22.3671 25.3887 22.3166 25.3887C22.3166 25.4392 22.2661 25.4392 22.2661 25.4897C22.2156 25.4897 22.2156 25.4897 22.2661 25.5402C22.165 25.5907 22.165 25.5907 22.165 25.6413Z" fill="#151717"/>
<path fill-rule="evenodd" clip-rule="evenodd" d="M22.1152 25.6934C22.1666 25.7448 22.1152 25.7448 22.1152 25.6934C22.1666 25.7448 22.1666 25.6934 22.1152 25.6934C22.1666 25.6934 22.1666 25.6934 22.1152 25.6934Z" fill="#151717"/>
<path fill-rule="evenodd" clip-rule="evenodd" d="M21.9637 26.1463C21.9637 26.1463 22.0142 26.1463 22.0142 26.0958C22.0647 26.0958 22.0647 26.0453 22.1152 26.0453C22.1152 26.0453 22.1152 26.0453 22.1657 26.0453C22.1657 25.9948 22.2163 25.9948 22.1657 25.9443C22.1657 25.9443 22.1657 25.9443 22.1657 25.8937V25.8432V25.7927C22.1657 25.7927 22.1657 25.7927 22.1657 25.7422C22.1152 25.7422 22.1152 25.7422 22.1152 25.7422C22.1152 25.7422 22.0647 25.7422 22.0647 25.7927V25.8432H22.0142V25.8937V25.9443V25.9948C22.0142 25.9948 22.0142 26.0453 21.9637 26.0453V26.0958C21.9132 26.1969 21.9132 26.1969 21.9637 26.1463Z" fill="#151717"/>
<path fill-rule="evenodd" clip-rule="evenodd" d="M21.3557 24.7826C21.4062 24.7826 21.4567 24.7321 21.5072 24.7321C21.5072 24.7321 21.5577 24.6816 21.6083 24.6816C21.6083 24.6816 21.6083 24.6816 21.6588 24.6816C21.6588 24.6816 21.6588 24.6816 21.7093 24.631C21.7093 24.5805 21.7093 24.5805 21.7093 24.5805C21.7093 24.5805 21.7093 24.5805 21.6588 24.5805V24.53V24.4795H21.6083H21.5577C21.5072 24.4795 21.5072 24.53 21.4567 24.4795H21.4062C21.3557 24.4795 21.3557 24.4795 21.3557 24.53C21.3557 24.53 21.3557 24.53 21.3557 24.5805V24.53H21.3051H21.2546L21.2041 24.5805V24.631C21.2041 24.631 21.2041 24.631 21.2546 24.631H21.3051C21.3051 24.631 21.3051 24.6816 21.2546 24.6816V24.7321C21.2546 24.7321 21.2546 24.7826 21.3051 24.7826C21.3051 24.7826 21.3051 24.7826 21.3557 24.7826C21.4062 24.7826 21.4062 24.7826 21.4567 24.7826C21.2546 24.7321 21.3051 24.7826 21.3557 24.7826Z" fill="#151717"/>
<path fill-rule="evenodd" clip-rule="evenodd" d="M29.9951 30.1382C30.0465 30.0868 29.9951 30.0868 29.9951 30.1382C29.9951 30.0868 29.9951 30.0868 29.9951 30.1382Z" fill="#151717"/>
<path fill-rule="evenodd" clip-rule="evenodd" d="M30.4523 30.8468C30.4523 30.7959 30.4523 30.7959 30.4523 30.7959C30.4523 30.7959 30.4013 30.7959 30.4523 30.8468C30.4013 30.7959 30.4013 30.7959 30.4523 30.8468Z" fill="#151717"/>
<path fill-rule="evenodd" clip-rule="evenodd" d="M30.3497 30.6447C30.3497 30.5938 30.3497 30.5938 30.3497 30.5938C30.2988 30.5938 30.2988 30.5938 30.3497 30.6447C30.2988 30.6447 30.2988 30.5938 30.3497 30.6447Z" fill="#151717"/>
<path fill-rule="evenodd" clip-rule="evenodd" d="M26.4588 31.6553C26.4083 31.6553 26.4083 31.7058 26.4083 31.7058C26.4083 31.7058 26.4083 31.7563 26.3578 31.7563C26.3578 31.7563 26.3073 31.7563 26.3073 31.8068C26.3073 31.8573 26.3073 31.8573 26.2568 31.8573L26.2062 31.9079C26.1557 31.9079 26.1557 31.9079 26.1052 31.9584C26.0547 31.9584 26.0547 31.9584 26.0042 32.0089C26.0042 32.0089 26.0042 32.0594 25.9536 32.0594C25.9536 32.1099 25.9536 32.1605 25.9536 32.1605C25.9536 32.1605 25.9536 32.1605 25.9536 32.211C25.9536 32.2615 25.9536 32.2615 25.9536 32.312C25.9536 32.3625 25.9031 32.3625 25.9031 32.4131C25.8526 32.4636 25.8526 32.5141 25.9031 32.5141V32.5646V32.6151C25.9031 32.6151 25.9031 32.6151 25.9031 32.6656C25.9031 32.7162 25.9536 32.7162 26.0042 32.7162H26.0547H26.1052C26.1557 32.7162 26.1557 32.7162 26.1557 32.6656C26.1557 32.6656 26.1557 32.6151 26.2062 32.6151C26.2062 32.5646 26.2568 32.5141 26.2568 32.4636C26.3073 32.3625 26.3073 32.312 26.3578 32.211V32.1605C26.3578 32.1099 26.3578 32.1099 26.4083 32.0594C26.4083 32.0089 26.4083 32.0089 26.4588 32.0089V31.9584C26.4588 31.9079 26.4588 31.9079 26.4588 31.8573C26.5093 31.7563 26.5093 31.7058 26.4588 31.6553Z" fill="#151717"/>
<path fill-rule="evenodd" clip-rule="evenodd" d="M28.9363 29.8877C28.8857 29.9382 28.9363 29.9887 28.8857 30.0393C28.8857 30.0898 28.8857 30.1403 28.9363 30.1908L28.9868 30.2413C29.0373 30.2413 29.0878 30.1908 29.0878 30.0898C29.0373 29.9887 28.9868 29.9382 28.9363 29.8877Z" fill="#151717"/>
<path fill-rule="evenodd" clip-rule="evenodd" d="M17.8218 29.332C17.7704 29.3834 17.7704 29.3834 17.8218 29.332C17.8218 29.3834 17.8218 29.3834 17.8218 29.332Z" fill="#151717"/>
<path fill-rule="evenodd" clip-rule="evenodd" d="M24.4382 27.8143C24.4887 27.8143 24.4887 27.8143 24.5393 27.8143H24.4887C24.4382 27.8143 24.4382 27.8143 24.3877 27.8143C24.3877 27.7637 24.4382 27.7637 24.4382 27.8143Z" fill="#151717"/>
<path fill-rule="evenodd" clip-rule="evenodd" d="M25.9033 23.8242C25.9033 23.8756 25.9033 23.8756 25.9033 23.8242C25.9547 23.8242 25.9547 23.8242 25.9033 23.8242Z" fill="#151717"/>
<path fill-rule="evenodd" clip-rule="evenodd" d="M25.1462 27.8142C25.1967 27.8142 25.1967 27.7637 25.1967 27.7637C25.1462 27.7637 25.1462 27.7637 25.1462 27.7637C25.1462 27.7637 25.0957 27.7637 25.0957 27.8142C25.0957 27.8142 25.0957 27.8142 25.0957 27.8647H25.1462C25.0957 27.8142 25.1462 27.8142 25.1462 27.8142Z" fill="#151717"/>
<path fill-rule="evenodd" clip-rule="evenodd" d="M23.226 27.1587C23.2766 27.1587 23.2766 27.1587 23.226 27.1587C23.226 27.1081 23.226 27.1081 23.226 27.1081C23.226 27.1081 23.226 27.1081 23.226 27.0576C23.226 27.0576 23.226 27.0576 23.1755 27.0576C23.1755 27.0576 23.1755 27.0576 23.125 27.0576C23.125 27.0576 23.125 27.0576 23.125 27.1081C23.1755 27.1081 23.1755 27.1587 23.226 27.1587Z" fill="#151717"/>
<path fill-rule="evenodd" clip-rule="evenodd" d="M26.7124 22.9665C26.7124 22.916 26.7124 22.916 26.6618 22.916C26.6113 22.916 26.6113 22.9665 26.6113 22.9665C26.6618 23.0171 26.7124 23.0171 26.7124 22.9665Z" fill="#151717"/>
<path fill-rule="evenodd" clip-rule="evenodd" d="M25.6003 23.9253C25.6508 23.9253 25.6508 23.8747 25.6508 23.8747L25.6003 23.8242C25.6003 23.8242 25.5498 23.8242 25.5498 23.8747C25.5498 23.8747 25.5498 23.8747 25.5498 23.9253C25.5498 23.8747 25.5498 23.8747 25.6003 23.9253Z" fill="#151717"/>
<path fill-rule="evenodd" clip-rule="evenodd" d="M25.7534 23.521C25.702 23.4696 25.702 23.4696 25.7534 23.521Z" fill="#151717"/>
<path fill-rule="evenodd" clip-rule="evenodd" d="M23.2768 27.4098C23.2768 27.3593 23.2768 27.3593 23.2768 27.3088C23.2768 27.3088 23.2768 27.3088 23.2768 27.2583C23.2768 27.2583 23.2768 27.2583 23.2768 27.2077C23.2768 27.1572 23.2263 27.1572 23.2263 27.1572C23.2263 27.1572 23.2263 27.1572 23.1758 27.1572C23.1758 27.2077 23.1758 27.2077 23.1758 27.2583C23.1758 27.4098 23.2263 27.4603 23.2768 27.4098Z" fill="#151717"/>
<path fill-rule="evenodd" clip-rule="evenodd" d="M37.4212 18.8737L36.5119 21.9553C36.6129 20.7429 36.5624 19.5809 36.3098 18.52L36.9666 16.2972C36.714 15.4889 36.4109 14.7311 36.0067 14.0239L35.451 15.8931C35.4005 15.792 35.35 15.691 35.2995 15.5899C35.0974 15.2363 34.8953 14.8827 34.6427 14.5796L35.1479 12.8114C34.7438 12.3567 34.3396 11.9526 33.8344 11.599L33.3292 13.2156C33.0261 12.963 32.6725 12.7104 32.3188 12.5083L32.8746 10.9422C32.4199 10.6896 31.9147 10.4875 31.4095 10.2855L30.9548 11.801C30.8033 11.7505 30.6012 11.7 30.4497 11.6495C30.2476 11.599 30.0455 11.5484 29.8434 11.4979L30.2981 10.0329C29.7929 9.93183 29.2372 9.88131 28.6815 9.83079L28.2773 11.2453C27.9742 11.2453 27.6711 11.1948 27.368 11.1948H27.0649L27.469 9.78027H25.8019L25.3978 11.1948H24.1853L24.5895 9.78027H22.9223L22.5182 11.1948H21.3057L21.7099 9.78027H20.0428L19.7397 11.1948H18.5272L18.9314 9.78027H17.2642L16.8601 11.1948H15.6476L16.0518 9.78027H14.3847L13.9805 11.1948H12.7681L13.1722 9.78027H11.5051L11.1515 11.1948H9.93901L10.3432 9.78027H8.67604L8.27189 11.1948H7.10996L7.51411 9.78027H5.84699L5.3418 11.4474H27.3175C28.3784 11.4474 29.3888 11.599 30.3486 11.9021C32.4199 12.5588 34.0365 13.8723 35.0974 15.792C36.1583 17.7622 36.5119 20.1366 36.2593 22.4605C36.1078 23.9255 35.7036 25.3906 35.1984 26.7546C35.0974 27.0072 34.9963 27.3103 34.8448 27.5629C34.4912 28.3712 34.188 29.0279 33.6829 29.7857C33.6829 29.8868 33.6323 29.9878 33.6323 30.0383C35.0469 28.1691 36.1583 26.0473 36.8655 23.8245C37.1181 22.9152 37.3202 22.0058 37.4212 21.147V21.0965C37.4212 20.9955 37.4212 20.9449 37.4718 20.8439V20.7429C37.4718 20.6923 37.4718 20.5913 37.4718 20.5408C37.4718 20.4903 37.4718 20.3892 37.4718 20.3387V20.2377C37.4718 19.783 37.4718 19.3283 37.4212 18.8737Z" fill="#151717"/>
<path fill-rule="evenodd" clip-rule="evenodd" d="M33.0274 21.9043C32.2696 20.3383 31.0571 19.2268 29.4911 18.5701C28.4302 18.1154 27.2682 17.9639 26.1063 17.9639H3.42335L2.7666 20.1362H4.43372L4.98943 18.2165H6.20188L5.64617 20.1362H7.3133L7.869 18.2165H9.08145L8.52575 20.1362H10.1929L10.7486 18.2165H11.961L11.4053 20.1362H13.0724L13.6281 18.2165H14.8406L14.2849 20.1362H15.952L16.5077 18.2165H17.7202L17.1645 20.1362H18.7305L19.2863 18.2165H20.4987L19.943 20.1362H21.6101L22.1658 18.2165H23.3783L22.7721 20.0857H23.6309C23.8329 20.0857 23.9845 20.0857 24.1866 20.0857C24.2876 20.0857 24.3887 20.0857 24.4392 20.0857L24.9949 18.1659H26.0558H26.2073L25.6011 20.1867C26.1568 20.2877 26.662 20.3888 27.1672 20.5403L27.8239 18.3175C28.2281 18.368 28.5817 18.4691 28.9353 18.6206L28.2281 21.0455C28.7333 21.2981 29.1879 21.5507 29.6426 21.9043L30.4004 19.3279C30.754 19.53 31.1077 19.7825 31.3603 20.0857L30.6025 22.7632C30.7035 22.8642 30.8045 22.9652 30.9056 23.1168C31.2087 23.4704 31.5118 23.8746 31.8149 24.3292L32.5727 21.6517C32.6737 21.8033 32.7748 21.9549 32.8253 22.1569C33.0274 22.5106 33.1284 22.9147 33.28 23.3189L32.5222 25.8953C33.0274 27.2088 33.2294 28.7244 33.0274 30.2905C32.9769 30.5431 32.9769 30.7956 32.9263 31.0482C32.9769 30.9977 33.0274 30.9472 33.0779 30.8967C33.4315 29.7853 33.7346 28.6233 33.8357 27.5119C34.0377 25.4407 33.8357 23.5209 33.0274 21.9043Z" fill="#151717"/>
<path fill-rule="evenodd" clip-rule="evenodd" d="M26.8631 12.0026H27.3178C27.5704 12.0026 27.823 12.0026 28.0756 12.0531L26.459 17.4586C26.3579 17.4586 26.2569 17.4586 26.1559 17.4586H25.2465L26.8631 12.0026ZM23.5794 17.4081H22.367L23.9836 12.0026H25.196L23.5794 17.4081ZM20.7504 17.4081H19.5379L21.1545 12.0026H22.367L20.7504 17.4081ZM17.8708 17.4081H16.7089L18.3255 12.0026H19.5379L17.8708 17.4081ZM15.0417 17.4081H13.8293L15.4459 12.0026H16.6583L15.0417 17.4081ZM12.1622 17.4081H10.9497L12.5663 12.0026H13.7788L12.1622 17.4081ZM9.3331 17.4081H8.12065L9.73725 12.0026H10.9497L9.3331 17.4081ZM6.45353 17.4081H5.24108L6.85768 12.0026H8.07013L6.45353 17.4081ZM29.6417 12.2552C29.8437 12.3057 29.9953 12.3562 30.1974 12.4067C30.3995 12.4573 30.6015 12.5078 30.7531 12.6088L29.187 17.8123C28.8334 17.7112 28.4797 17.6102 28.0756 17.5091L29.6417 12.2552ZM33.1275 14.0739L31.6119 19.1763C31.3088 18.9237 30.9552 18.6711 30.6015 18.469L32.1171 13.3161C32.5212 13.5687 32.8244 13.8213 33.1275 14.0739ZM34.3904 15.5389C34.4915 15.6905 34.5925 15.842 34.6935 16.0441C34.8451 16.3472 35.0472 16.7008 35.1482 17.0545L33.6832 21.9043C33.6327 21.8032 33.5821 21.7022 33.5316 21.6012C33.3295 21.197 33.1275 20.8434 32.8749 20.5403L34.3904 15.5389ZM35.7544 22.4095C35.6029 23.723 35.2493 25.1375 34.7441 26.552C34.643 26.8551 34.4915 27.1582 34.3904 27.4108V27.2593C34.4915 26.451 34.4915 25.6932 34.441 24.9354L35.8555 20.2372C35.8555 20.9949 35.805 21.7022 35.7544 22.4095ZM29.6417 18.2669C31.2583 18.9237 32.5212 20.1361 33.3295 21.7527C34.1378 23.4198 34.3399 25.3901 34.1378 27.3603C34.0873 27.8655 33.9863 28.3202 33.8852 28.8254C34.2894 28.0676 34.643 27.2593 34.9461 26.5015C35.4008 25.188 35.7544 23.824 35.906 22.5105C36.1586 20.2372 35.8555 17.9133 34.7946 15.9936C33.7842 14.1749 32.2181 12.8614 30.1974 12.2552C29.3386 11.9016 28.3282 11.75 27.3178 11.75H5.2916L3.52344 17.6102H26.1053C27.3683 17.6102 28.5808 17.8123 29.6417 18.2669Z" fill="#151717"/>
</g>
<defs>
<linearGradient id="paint0_linear_336_6163" x1="9.37896" y1="36.8387" x2="120.75" y2="36.8387" gradientUnits="userSpaceOnUse">
<stop stop-color="#0346B8"/>
<stop offset="0.9972" stop-color="#00FF78"/>
</linearGradient>
<clipPath id="clip0_336_6163">
<rect width="123.519" height="44.6081" fill="white" transform="translate(0.0371094 6.69629)"/>
</clipPath>
</defs>
</svg>
